<?xml version="1.0" encoding="UTF-8" standalone="no"?>
<!-- Created with Inkscape (http://www.inkscape.org/) -->

<svg
   xmlns:dc="http://purl.org/dc/elements/1.1/"
   xmlns:cc="http://creativecommons.org/ns#"
   xmlns:rdf="http://www.w3.org/1999/02/22-rdf-syntax-ns#"
   xmlns:svg="http://www.w3.org/2000/svg"
   xmlns="http://www.w3.org/2000/svg"
   xmlns:sodipodi="http://sodipodi.sourceforge.net/DTD/sodipodi-0.dtd"
   xmlns:inkscape="http://www.inkscape.org/namespaces/inkscape"
   width="105"
   height="380"
   viewBox="0 0 27.781251 100.54167"
   version="1.1"
   id="svg8"
   inkscape:version="0.92.3 (2405546, 2018-03-11)"
   sodipodi:docname="BBD.svg">
  <defs
     id="defs2">
    <inkscape:path-effect
       effect="powerstroke"
       id="path-effect41"
       is_visible="true"
       offset_points="0,0.13229166"
       sort_points="true"
       interpolator_type="CubicBezierJohan"
       interpolator_beta="0.2"
       start_linecap_type="zerowidth"
       linejoin_type="extrp_arc"
       miter_limit="4"
       end_linecap_type="zerowidth" />
  </defs>
  <sodipodi:namedview
     id="base"
     pagecolor="#ffffff"
     bordercolor="#666666"
     borderopacity="1.0"
     inkscape:pageopacity="0.0"
     inkscape:pageshadow="2"
     inkscape:zoom="3.9999998"
     inkscape:cx="51.368364"
     inkscape:cy="301.12056"
     inkscape:document-units="mm"
     inkscape:current-layer="layer1"
     showgrid="true"
     units="px"
     inkscape:snap-bbox="true"
     inkscape:snap-page="true"
     inkscape:bbox-nodes="false"
     inkscape:snap-bbox-edge-midpoints="false"
     inkscape:window-width="1680"
     inkscape:window-height="988"
     inkscape:window-x="-8"
     inkscape:window-y="-8"
     inkscape:window-maximized="1"
     inkscape:snap-global="false"
     inkscape:snap-grids="false"
     showguides="false"
     inkscape:measure-start="53.033,-0.353553"
     inkscape:measure-end="53.1214,19.4454">
    <inkscape:grid
       type="xygrid"
       id="grid98"
       spacingx="7.9375003"
       spacingy="7.9375003" />
  </sodipodi:namedview>
  <metadata
     id="metadata5">
    <rdf:RDF>
      <cc:Work
         rdf:about="">
        <dc:format>image/svg+xml</dc:format>
        <dc:type
           rdf:resource="http://purl.org/dc/dcmitype/StillImage" />
        <dc:title />
      </cc:Work>
    </rdf:RDF>
  </metadata>
  <g
     inkscape:label="Layer 1"
     inkscape:groupmode="layer"
     id="layer1"
     transform="translate(0,-196.45832)"
     style="display:inline">
    <path
       style="opacity:1;vector-effect:none;fill:#cccccc;fill-opacity:1;fill-rule:evenodd;stroke:none;stroke-width:0.52751052;stroke-linecap:butt;stroke-linejoin:round;stroke-miterlimit:4;stroke-dasharray:none;stroke-dashoffset:0;stroke-opacity:1;paint-order:normal"
       d="M -0.0159728,196.50507 H 28.029861 V 297.04675 H -0.0159728 Z"
       id="rect817"
       inkscape:connector-curvature="0" />
    <path
       style="fill:#ececec;stroke:none;stroke-width:0.2867431"
       d="M 0.00219964,203.54524 H 27.970492 v 1.00029 H 0.00219964 Z"
       id="rect110"
       inkscape:connector-curvature="0" />
    <path
       style="fill:#ececec;stroke:none;stroke-width:0.2868427"
       d="M -0.01275544,205.04097 H 27.97497 v 1.00029 H -0.01275544 Z"
       id="rect110-9"
       inkscape:connector-curvature="0" />
    <path
       style="fill:#ececec;stroke:none;stroke-width:0.28684276"
       d="M -0.01275603,206.57788 H 27.974969 v 1.00029 H -0.01275603 Z"
       id="rect110-1"
       inkscape:connector-curvature="0" />
    <path
       style="fill:#ececec;stroke:none;stroke-width:0.28671461"
       d="M 0.00776588,201.95918 H 27.970506 v 1.00029 H 0.00776588 Z"
       id="rect110-3"
       inkscape:connector-curvature="0" />
    <path
       style="fill:#ececec;stroke:none;stroke-width:0.28673524"
       d="M 0.00326612,208.1815 H 27.970025 v 1.00029 H 0.00326612 Z"
       id="rect110-2"
       inkscape:connector-curvature="0" />
    <path
       style="fill:#ececec;stroke:none;stroke-width:0.28650355"
       d="M 0.06256661,200.36251 H 27.984146 v 1.00029 H 0.06256661 Z"
       id="rect110-3-9"
       inkscape:connector-curvature="0" />
    <g
       style="font-style:normal;font-weight:normal;font-size:10.58333302px;line-height:1.25;font-family:sans-serif;letter-spacing:0px;word-spacing:0px;fill:#000000;fill-opacity:1;stroke:none;stroke-width:0.26458332"
       id="text4029" />
    <g
       style="font-style:normal;font-weight:normal;font-size:10.58333302px;line-height:1.25;font-family:sans-serif;letter-spacing:0px;word-spacing:0px;fill:#000000;fill-opacity:1;stroke:none;stroke-width:0.26458332"
       id="text3852" />
    <g
       style="font-style:normal;font-weight:normal;font-size:10.58333302px;line-height:1.25;font-family:sans-serif;letter-spacing:0px;word-spacing:0px;fill:#000000;fill-opacity:1;stroke:none;stroke-width:0.26458332"
       id="text4016" />
    <g
       style="font-style:normal;font-weight:normal;font-size:10.58333302px;line-height:1.25;font-family:sans-serif;letter-spacing:0px;word-spacing:0px;fill:#000000;fill-opacity:1;stroke:none;stroke-width:0.26458332"
       id="text4887" />
    <g
       style="font-style:normal;font-weight:normal;font-size:10.58333302px;line-height:1.25;font-family:sans-serif;letter-spacing:0px;word-spacing:0px;fill:#000000;fill-opacity:1;stroke:none;stroke-width:0.26458332"
       id="text877" />
    <g
       aria-label="BBD"
       style="font-style:normal;font-weight:normal;font-size:10.58333302px;line-height:1.25;font-family:sans-serif;letter-spacing:0px;word-spacing:0px;fill:#000000;fill-opacity:1;stroke:none;stroke-width:0.26458332"
       id="text881">
      <path
         d="m 9.5529048,205.96265 q 0,0.79065 -0.4495849,1.28674 -0.6511231,0.71831 -1.984375,0.71831 H 4.178556 v -7.05384 h 2.7285156 q 1.9843749,0 1.9843749,1.83969 0,0.55293 -0.217041,0.925 -0.1808675,0.31523 -0.5581055,0.53744 0.8474935,0.1757 1.1575521,0.67696 0.2790527,0.45992 0.2790527,1.0697 z m -2.3564452,-2.96623 q 0,-0.48059 -0.434082,-0.63562 -0.1550293,-0.0517 -0.4134115,-0.0517 H 6.0130693 v 1.37976 h 0.3358968 q 0.4754232,0 0.6821289,-0.23255 0.1653646,-0.18603 0.1653646,-0.45992 z m 0.5219319,2.84221 q 0,-0.61495 -0.6356201,-0.72347 -0.201538,-0.031 -0.6924641,-0.031 h -0.377238 v 1.48828 h 0.4082438 q 0.7027995,0 0.9818522,-0.16536 0.3152262,-0.18604 0.3152262,-0.56844 z"
         style="font-style:normal;font-variant:normal;font-weight:bold;font-stretch:normal;font-size:10.58333302px;font-family:Aharoni;-inkscape-font-specification:'Aharoni, Bold';font-variant-ligatures:normal;font-variant-caps:normal;font-variant-numeric:normal;font-feature-settings:normal;text-align:start;writing-mode:lr-tb;text-anchor:start;stroke-width:0.26458332"
         id="path4943" />
      <path
         d="m 16.105476,205.96265 q 0,0.79065 -0.449585,1.28674 -0.651123,0.71831 -1.984375,0.71831 h -2.940389 v -7.05384 h 2.728516 q 1.984375,0 1.984375,1.83969 0,0.55293 -0.217041,0.925 -0.180868,0.31523 -0.558106,0.53744 0.847494,0.1757 1.157552,0.67696 0.279053,0.45992 0.279053,1.0697 z m -2.356445,-2.96623 q 0,-0.48059 -0.434082,-0.63562 -0.155029,-0.0517 -0.413412,-0.0517 h -0.335896 v 1.37976 h 0.335896 q 0.475424,0 0.682129,-0.23255 0.165365,-0.18603 0.165365,-0.45992 z m 0.521932,2.84221 q 0,-0.61495 -0.63562,-0.72347 -0.201538,-0.031 -0.692464,-0.031 h -0.377238 v 1.48828 h 0.408243 q 0.7028,0 0.981853,-0.16536 0.315226,-0.18604 0.315226,-0.56844 z"
         style="font-style:normal;font-variant:normal;font-weight:bold;font-stretch:normal;font-size:10.58333302px;font-family:Aharoni;-inkscape-font-specification:'Aharoni, Bold';font-variant-ligatures:normal;font-variant-caps:normal;font-variant-numeric:normal;font-feature-settings:normal;text-align:start;writing-mode:lr-tb;text-anchor:start;stroke-width:0.26458332"
         id="path4945" />
      <path
         d="m 23.469367,204.4382 q 0,1.1007 -0.666626,2.04122 -0.661458,0.93534 -1.694987,1.29707 -0.54777,0.19121 -1.11621,0.19121 h -2.707845 v -7.05384 h 2.707845 q 0.992187,0 1.839681,0.55294 0.83199,0.53744 1.276407,1.43661 0.361735,0.74414 0.361735,1.53479 z m -1.90686,0 q 0,-0.72864 -0.408244,-1.27124 -0.542602,-0.71831 -1.617472,-0.71831 h -0.418579 v 3.98426 h 0.418579 q 1.080037,0 1.617472,-0.71831 0.408244,-0.54777 0.408244,-1.2764 z"
         style="font-style:normal;font-variant:normal;font-weight:bold;font-stretch:normal;font-size:10.58333302px;font-family:Aharoni;-inkscape-font-specification:'Aharoni, Bold';font-variant-ligatures:normal;font-variant-caps:normal;font-variant-numeric:normal;font-feature-settings:normal;text-align:start;writing-mode:lr-tb;text-anchor:start;stroke-width:0.26458332"
         id="path4947" />
    </g>
    <g
       aria-label="BBD"
       style="font-style:normal;font-weight:normal;font-size:10.58333302px;line-height:1.25;font-family:sans-serif;letter-spacing:0px;word-spacing:0px;fill:#000000;fill-opacity:1;stroke:none;stroke-width:0.26458332"
       id="text4589">
      <path
         d="m 9.5529048,205.96265 q 0,0.79065 -0.4495849,1.28674 -0.6511231,0.71831 -1.984375,0.71831 H 4.178556 v -7.05384 h 2.7285156 q 1.9843749,0 1.9843749,1.83969 0,0.55293 -0.217041,0.925 -0.1808675,0.31523 -0.5581055,0.53744 0.8474935,0.1757 1.1575521,0.67696 0.2790527,0.45992 0.2790527,1.0697 z m -2.3564452,-2.96623 q 0,-0.48059 -0.434082,-0.63562 -0.1550293,-0.0517 -0.4134115,-0.0517 H 6.0130693 v 1.37976 h 0.3358968 q 0.4754232,0 0.6821289,-0.23255 0.1653646,-0.18603 0.1653646,-0.45992 z m 0.5219319,2.84221 q 0,-0.61495 -0.6356201,-0.72347 -0.201538,-0.031 -0.6924641,-0.031 h -0.377238 v 1.48828 h 0.4082438 q 0.7027995,0 0.9818522,-0.16536 0.3152262,-0.18604 0.3152262,-0.56844 z"
         style="font-style:normal;font-variant:normal;font-weight:bold;font-stretch:normal;font-size:10.58333302px;font-family:Aharoni;-inkscape-font-specification:'Aharoni, Bold';font-variant-ligatures:normal;font-variant-caps:normal;font-variant-numeric:normal;font-feature-settings:normal;text-align:start;writing-mode:lr-tb;text-anchor:start;stroke-width:0.26458332"
         id="path4591" />
      <path
         d="m 16.105476,205.96265 q 0,0.79065 -0.449585,1.28674 -0.651123,0.71831 -1.984375,0.71831 h -2.940389 v -7.05384 h 2.728516 q 1.984375,0 1.984375,1.83969 0,0.55293 -0.217041,0.925 -0.180868,0.31523 -0.558106,0.53744 0.847494,0.1757 1.157552,0.67696 0.279053,0.45992 0.279053,1.0697 z m -2.356445,-2.96623 q 0,-0.48059 -0.434082,-0.63562 -0.155029,-0.0517 -0.413412,-0.0517 h -0.335896 v 1.37976 h 0.335896 q 0.475424,0 0.682129,-0.23255 0.165365,-0.18603 0.165365,-0.45992 z m 0.521932,2.84221 q 0,-0.61495 -0.63562,-0.72347 -0.201538,-0.031 -0.692464,-0.031 h -0.377238 v 1.48828 h 0.408243 q 0.7028,0 0.981853,-0.16536 0.315226,-0.18604 0.315226,-0.56844 z"
         style="font-style:normal;font-variant:normal;font-weight:bold;font-stretch:normal;font-size:10.58333302px;font-family:Aharoni;-inkscape-font-specification:'Aharoni, Bold';font-variant-ligatures:normal;font-variant-caps:normal;font-variant-numeric:normal;font-feature-settings:normal;text-align:start;writing-mode:lr-tb;text-anchor:start;stroke-width:0.26458332"
         id="path4593" />
      <path
         d="m 23.469367,204.4382 q 0,1.1007 -0.666626,2.04122 -0.661458,0.93534 -1.694987,1.29707 -0.54777,0.19121 -1.11621,0.19121 h -2.707845 v -7.05384 h 2.707845 q 0.992187,0 1.839681,0.55294 0.83199,0.53744 1.276407,1.43661 0.361735,0.74414 0.361735,1.53479 z m -1.90686,0 q 0,-0.72864 -0.408244,-1.27124 -0.542602,-0.71831 -1.617472,-0.71831 h -0.418579 v 3.98426 h 0.418579 q 1.080037,0 1.617472,-0.71831 0.408244,-0.54777 0.408244,-1.2764 z"
         style="font-style:normal;font-variant:normal;font-weight:bold;font-stretch:normal;font-size:10.58333302px;font-family:Aharoni;-inkscape-font-specification:'Aharoni, Bold';font-variant-ligatures:normal;font-variant-caps:normal;font-variant-numeric:normal;font-feature-settings:normal;text-align:start;writing-mode:lr-tb;text-anchor:start;stroke-width:0.26458332"
         id="path4595" />
    </g>
    <g
       aria-label="In"
       style="font-style:normal;font-weight:normal;font-size:10.58333302px;line-height:1.25;font-family:sans-serif;letter-spacing:0px;word-spacing:0px;fill:#000000;fill-opacity:1;stroke:none;stroke-width:0.26458332"
       id="text4600">
      <path
         d="M 5.0841647,221.60324 H 4.0713066 v -0.26183 h 0.3358968 v -2.04122 H 4.0713066 v -0.26182 h 1.0128581 v 0.26182 H 4.7482679 v 2.04122 h 0.3358968 z"
         style="font-style:normal;font-variant:normal;font-weight:normal;font-stretch:normal;font-size:3.52777767px;font-family:sans-serif;-inkscape-font-specification:'sans-serif, Normal';font-variant-ligatures:normal;font-variant-caps:normal;font-variant-numeric:normal;font-feature-settings:normal;text-align:start;writing-mode:lr-tb;text-anchor:start;stroke-width:0.26458332"
         id="path4950" />
      <path
         d="M 7.2511297,221.60324 H 6.9272908 v -1.09554 q 0,-0.13264 -0.015503,-0.24805 -0.015503,-0.11713 -0.056844,-0.18259 -0.043064,-0.0723 -0.1240235,-0.10679 -0.08096,-0.0362 -0.2101508,-0.0362 -0.1326362,0 -0.2773302,0.0655 -0.144694,0.0655 -0.2773301,0.16709 v 1.4366 h -0.323839 v -1.92408 h 0.323839 v 0.21359 q 0.1515841,-0.12574 0.3135036,-0.19637 0.1619195,-0.0706 0.3324517,-0.0706 0.3117812,0 0.4754232,0.18775 0.163642,0.18776 0.163642,0.54088 z"
         style="font-style:normal;font-variant:normal;font-weight:normal;font-stretch:normal;font-size:3.52777767px;font-family:sans-serif;-inkscape-font-specification:'sans-serif, Normal';font-variant-ligatures:normal;font-variant-caps:normal;font-variant-numeric:normal;font-feature-settings:normal;text-align:start;writing-mode:lr-tb;text-anchor:start;stroke-width:0.26458332"
         id="path4952" />
    </g>
    <g
       aria-label="Out"
       style="font-style:normal;font-weight:normal;font-size:10.58333302px;line-height:1.25;font-family:sans-serif;letter-spacing:0px;word-spacing:0px;display:inline;fill:#000000;fill-opacity:1;stroke:none;stroke-width:0.26458332"
       id="text4600-9">
      <path
         d="m 18.35805,219.41862 q 0.156752,0.17225 0.239435,0.42202 0.0844,0.24977 0.0844,0.56672 0,0.31695 -0.08613,0.56844 -0.08441,0.24977 -0.237712,0.41686 -0.158474,0.17397 -0.375515,0.26182 -0.215318,0.0879 -0.492649,0.0879 -0.27044,0 -0.492648,-0.0896 -0.220486,-0.0896 -0.375516,-0.2601 -0.155029,-0.17054 -0.239434,-0.41858 -0.08268,-0.24805 -0.08268,-0.56672 0,-0.3135 0.08268,-0.56155 0.08268,-0.24977 0.241157,-0.42719 0.151584,-0.16881 0.375515,-0.25839 0.225654,-0.0896 0.490926,-0.0896 0.275608,0 0.494372,0.0913 0.220486,0.0896 0.373792,0.25666 z m -0.03101,0.98874 q 0,-0.49954 -0.223932,-0.76998 -0.223931,-0.27216 -0.611504,-0.27216 -0.391018,0 -0.61495,0.27216 -0.222208,0.27044 -0.222208,0.76998 0,0.50471 0.227376,0.77342 0.227376,0.267 0.609782,0.267 0.382405,0 0.608059,-0.267 0.227377,-0.26871 0.227377,-0.77342 z"
         style="font-style:normal;font-variant:normal;font-weight:normal;font-stretch:normal;font-size:3.52777767px;font-family:sans-serif;-inkscape-font-specification:'sans-serif, Normal';font-variant-ligatures:normal;font-variant-caps:normal;font-variant-numeric:normal;font-feature-settings:normal;text-align:start;writing-mode:lr-tb;text-anchor:start;stroke-width:0.26458332"
         id="path4955" />
      <path
         d="m 20.79201,221.68893 h -0.323839 v -0.21359 q -0.163642,0.12919 -0.313503,0.19809 -0.149862,0.0689 -0.330729,0.0689 -0.303169,0 -0.471978,-0.18431 -0.16881,-0.18603 -0.16881,-0.54432 v -1.24885 h 0.323839 v 1.09554 q 0,0.14642 0.01378,0.25149 0.01378,0.10335 0.05857,0.17742 0.04651,0.0758 0.120578,0.11025 0.07407,0.0344 0.215319,0.0344 0.125746,0 0.273885,-0.0655 0.149861,-0.0655 0.279052,-0.16709 v -1.4366 h 0.323839 z"
         style="font-style:normal;font-variant:normal;font-weight:normal;font-stretch:normal;font-size:3.52777767px;font-family:sans-serif;-inkscape-font-specification:'sans-serif, Normal';font-variant-ligatures:normal;font-variant-caps:normal;font-variant-numeric:normal;font-feature-settings:normal;text-align:start;writing-mode:lr-tb;text-anchor:start;stroke-width:0.26458332"
         id="path4957" />
      <path
         d="m 22.428431,221.67171 q -0.0913,0.0241 -0.199816,0.0396 -0.106798,0.0155 -0.191203,0.0155 -0.294555,0 -0.447862,-0.15847 -0.153307,-0.15848 -0.153307,-0.50816 v -1.02319 h -0.218764 v -0.27216 h 0.218764 v -0.55294 h 0.323839 v 0.55294 h 0.668349 v 0.27216 h -0.668349 v 0.87678 q 0,0.15158 0.0069,0.23771 0.0069,0.0844 0.04823,0.15847 0.0379,0.0689 0.103352,0.10163 0.06718,0.031 0.203261,0.031 0.07924,0 0.165365,-0.0224 0.08613,-0.0241 0.124023,-0.0396 h 0.01723 z"
         style="font-style:normal;font-variant:normal;font-weight:normal;font-stretch:normal;font-size:3.52777767px;font-family:sans-serif;-inkscape-font-specification:'sans-serif, Normal';font-variant-ligatures:normal;font-variant-caps:normal;font-variant-numeric:normal;font-feature-settings:normal;text-align:start;writing-mode:lr-tb;text-anchor:start;stroke-width:0.26458332"
         id="path4959" />
    </g>
    <g
       aria-label="Mod1"
       style="font-style:normal;font-weight:normal;font-size:10.58333302px;line-height:1.25;font-family:sans-serif;letter-spacing:0px;word-spacing:0px;display:inline;fill:#000000;fill-opacity:1;stroke:none;stroke-width:0.26458332"
       id="text4600-2">
      <path
         d="M 4.1703046,235.51418 H 3.8292401 v -2.21003 l -0.7131347,1.50378 H 2.9128447 l -0.7079671,-1.50378 v 2.21003 H 1.8862063 v -2.56488 h 0.4650879 l 0.6838514,1.42799 0.6614583,-1.42799 h 0.4737007 z"
         style="font-style:normal;font-variant:normal;font-weight:normal;font-stretch:normal;font-size:3.52777767px;font-family:sans-serif;-inkscape-font-specification:'sans-serif, Normal';font-variant-ligatures:normal;font-variant-caps:normal;font-variant-numeric:normal;font-feature-settings:normal;text-align:start;writing-mode:lr-tb;text-anchor:start;stroke-width:0.26458332"
         id="path4962" />
      <path
         d="m 6.476796,234.55299 q 0,0.47026 -0.2411567,0.74242 -0.2411566,0.27216 -0.6459553,0.27216 -0.4082439,0 -0.6494005,-0.27216 -0.2394342,-0.27216 -0.2394342,-0.74242 0,-0.47025 0.2394342,-0.74241 0.2411566,-0.27389 0.6494005,-0.27389 0.4047987,0 0.6459553,0.27389 0.2411567,0.27216 0.2411567,0.74241 z m -0.3341742,0 q 0,-0.37379 -0.1464166,-0.55466 -0.1464165,-0.18259 -0.4065212,-0.18259 -0.2635498,0 -0.4099664,0.18259 -0.144694,0.18087 -0.144694,0.55466 0,0.36174 0.1464165,0.5495 0.1464166,0.18603 0.4082439,0.18603 0.2583821,0 0.4047987,-0.18431 0.1481391,-0.18604 0.1481391,-0.55122 z"
         style="font-style:normal;font-variant:normal;font-weight:normal;font-stretch:normal;font-size:3.52777767px;font-family:sans-serif;-inkscape-font-specification:'sans-serif, Normal';font-variant-ligatures:normal;font-variant-caps:normal;font-variant-numeric:normal;font-feature-settings:normal;text-align:start;writing-mode:lr-tb;text-anchor:start;stroke-width:0.26458332"
         id="path4964" />
      <path
         d="m 8.5404083,235.51418 h -0.323839 v -0.20154 q -0.1395264,0.12058 -0.2911106,0.18776 -0.1515842,0.0672 -0.3290066,0.0672 -0.3445095,0 -0.5477701,-0.26527 -0.2015381,-0.26527 -0.2015381,-0.73553 0,-0.2446 0.068902,-0.4358 0.070624,-0.1912 0.1894802,-0.32556 0.1171333,-0.13092 0.2721626,-0.19982 0.1567518,-0.0689 0.3238389,-0.0689 0.1515842,0 0.2687175,0.0327 0.1171332,0.031 0.2463243,0.0982 v -0.83371 h 0.323839 z m -0.323839,-0.47371 v -1.10415 q -0.1309136,-0.0586 -0.2342665,-0.081 -0.1033529,-0.0224 -0.2256537,-0.0224 -0.2721626,0 -0.4237468,0.18948 -0.1515842,0.18948 -0.1515842,0.53743 0,0.34279 0.1171333,0.52194 0.1171332,0.17742 0.3755154,0.17742 0.1378038,0 0.2790527,-0.0603 0.1412489,-0.062 0.2635498,-0.15848 z"
         style="font-style:normal;font-variant:normal;font-weight:normal;font-stretch:normal;font-size:3.52777767px;font-family:sans-serif;-inkscape-font-specification:'sans-serif, Normal';font-variant-ligatures:normal;font-variant-caps:normal;font-variant-numeric:normal;font-feature-settings:normal;text-align:start;writing-mode:lr-tb;text-anchor:start;stroke-width:0.26458332"
         id="path4966" />
      <path
         d="M 10.726321,235.51418 H 9.3379479 v -0.26183 h 0.5339897 v -1.7191 H 9.3379479 v -0.23427 q 0.1085205,0 0.2325439,-0.0172 0.1240234,-0.0189 0.1877577,-0.0534 0.079237,-0.0431 0.1240234,-0.10852 0.046509,-0.0672 0.053399,-0.17914 h 0.2669951 v 2.31166 h 0.523654 z"
         style="font-style:normal;font-variant:normal;font-weight:normal;font-stretch:normal;font-size:3.52777767px;font-family:sans-serif;-inkscape-font-specification:'sans-serif, Normal';font-variant-ligatures:normal;font-variant-caps:normal;font-variant-numeric:normal;font-feature-settings:normal;text-align:start;writing-mode:lr-tb;text-anchor:start;stroke-width:0.26458332"
         id="path4968" />
    </g>
    <g
       aria-label="Mod2"
       style="font-style:normal;font-weight:normal;font-size:10.58333302px;line-height:1.25;font-family:sans-serif;letter-spacing:0px;word-spacing:0px;display:inline;fill:#000000;fill-opacity:1;stroke:none;stroke-width:0.26458332"
       id="text4600-8">
      <path
         d="m 17.827775,235.51418 h -0.341064 v -2.21003 l -0.713135,1.50378 h -0.203261 l -0.707967,-1.50378 v 2.21003 h -0.318671 v -2.56488 h 0.465088 l 0.683851,1.42799 0.661458,-1.42799 h 0.473701 z"
         style="font-style:normal;font-variant:normal;font-weight:normal;font-stretch:normal;font-size:3.52777767px;font-family:sans-serif;-inkscape-font-specification:'sans-serif, Normal';font-variant-ligatures:normal;font-variant-caps:normal;font-variant-numeric:normal;font-feature-settings:normal;text-align:start;writing-mode:lr-tb;text-anchor:start;stroke-width:0.26458332"
         id="path4971" />
      <path
         d="m 20.134266,234.55299 q 0,0.47026 -0.241156,0.74242 -0.241157,0.27216 -0.645956,0.27216 -0.408243,0 -0.6494,-0.27216 -0.239434,-0.27216 -0.239434,-0.74242 0,-0.47025 0.239434,-0.74241 0.241157,-0.27389 0.6494,-0.27389 0.404799,0 0.645956,0.27389 0.241156,0.27216 0.241156,0.74241 z m -0.334174,0 q 0,-0.37379 -0.146416,-0.55466 -0.146417,-0.18259 -0.406522,-0.18259 -0.263549,0 -0.409966,0.18259 -0.144694,0.18087 -0.144694,0.55466 0,0.36174 0.146417,0.5495 0.146416,0.18603 0.408243,0.18603 0.258383,0 0.404799,-0.18431 0.148139,-0.18604 0.148139,-0.55122 z"
         style="font-style:normal;font-variant:normal;font-weight:normal;font-stretch:normal;font-size:3.52777767px;font-family:sans-serif;-inkscape-font-specification:'sans-serif, Normal';font-variant-ligatures:normal;font-variant-caps:normal;font-variant-numeric:normal;font-feature-settings:normal;text-align:start;writing-mode:lr-tb;text-anchor:start;stroke-width:0.26458332"
         id="path4973" />
      <path
         d="M 22.197879,235.51418 H 21.87404 v -0.20154 q -0.139527,0.12058 -0.291111,0.18776 -0.151584,0.0672 -0.329006,0.0672 -0.34451,0 -0.547771,-0.26527 -0.201538,-0.26527 -0.201538,-0.73553 0,-0.2446 0.0689,-0.4358 0.07062,-0.1912 0.189481,-0.32556 0.117133,-0.13092 0.272162,-0.19982 0.156752,-0.0689 0.323839,-0.0689 0.151584,0 0.268717,0.0327 0.117134,0.031 0.246325,0.0982 v -0.83371 h 0.323839 z m -0.323839,-0.47371 v -1.10415 q -0.130914,-0.0586 -0.234267,-0.081 -0.103353,-0.0224 -0.225653,-0.0224 -0.272163,0 -0.423747,0.18948 -0.151584,0.18948 -0.151584,0.53743 0,0.34279 0.117133,0.52194 0.117133,0.17742 0.375515,0.17742 0.137804,0 0.279053,-0.0603 0.141249,-0.062 0.26355,-0.15848 z"
         style="font-style:normal;font-variant:normal;font-weight:normal;font-stretch:normal;font-size:3.52777767px;font-family:sans-serif;-inkscape-font-specification:'sans-serif, Normal';font-variant-ligatures:normal;font-variant-caps:normal;font-variant-numeric:normal;font-feature-settings:normal;text-align:start;writing-mode:lr-tb;text-anchor:start;stroke-width:0.26458332"
         id="path4975" />
      <path
         d="M 24.530208,235.51418 H 22.79388 v -0.36002 q 0.180868,-0.15503 0.361735,-0.31006 0.18259,-0.15502 0.339342,-0.30833 0.330729,-0.3204 0.45303,-0.50815 0.122301,-0.18948 0.122301,-0.40825 0,-0.19981 -0.132636,-0.31178 -0.130914,-0.11369 -0.366903,-0.11369 -0.156752,0 -0.339342,0.0551 -0.18259,0.0551 -0.356567,0.1688 h -0.01722 v -0.36173 q 0.1223,-0.0603 0.325561,-0.11024 0.204983,-0.05 0.396186,-0.05 0.394463,0 0.618395,0.19121 0.223931,0.18948 0.223931,0.51504 0,0.14641 -0.0379,0.27388 -0.03617,0.12575 -0.108521,0.23944 -0.06718,0.10679 -0.158474,0.21015 -0.08957,0.10335 -0.218764,0.2291 -0.184312,0.18086 -0.380683,0.3514 -0.19637,0.16881 -0.366902,0.3135 h 1.37976 z"
         style="font-style:normal;font-variant:normal;font-weight:normal;font-stretch:normal;font-size:3.52777767px;font-family:sans-serif;-inkscape-font-specification:'sans-serif, Normal';font-variant-ligatures:normal;font-variant-caps:normal;font-variant-numeric:normal;font-feature-settings:normal;text-align:start;writing-mode:lr-tb;text-anchor:start;stroke-width:0.26458332"
         id="path4977" />
    </g>
    <g
       aria-label="M1Amt"
       style="font-style:normal;font-weight:normal;font-size:10.58333302px;line-height:1.25;font-family:sans-serif;letter-spacing:0px;word-spacing:0px;display:inline;fill:#000000;fill-opacity:1;stroke:none;stroke-width:0.26458332"
       id="text4600-2-6">
      <path
         d="M 3.757334,249.57683 H 3.4162696 v -2.21003 l -0.7131348,1.50378 H 2.4998742 L 1.7919071,247.3668 v 2.21003 H 1.4732358 v -2.56488 h 0.4650879 l 0.6838514,1.428 0.6614583,-1.428 H 3.757334 Z"
         style="font-style:normal;font-variant:normal;font-weight:normal;font-stretch:normal;font-size:3.52777767px;font-family:sans-serif;-inkscape-font-specification:'sans-serif, Normal';font-variant-ligatures:normal;font-variant-caps:normal;font-variant-numeric:normal;font-feature-settings:normal;text-align:start;writing-mode:lr-tb;text-anchor:start;stroke-width:0.26458332"
         id="path4980" />
      <path
         d="M 5.9725304,249.57683 H 4.584157 V 249.315 h 0.5339898 v -1.7191 H 4.584157 v -0.23427 q 0.1085205,0 0.2325439,-0.0172 0.1240235,-0.019 0.1877577,-0.0534 0.079237,-0.0431 0.1240235,-0.10852 0.046509,-0.0672 0.053399,-0.17915 h 0.2669948 v 2.31166 h 0.5236545 z"
         style="font-style:normal;font-variant:normal;font-weight:normal;font-stretch:normal;font-size:3.52777767px;font-family:sans-serif;-inkscape-font-specification:'sans-serif, Normal';font-variant-ligatures:normal;font-variant-caps:normal;font-variant-numeric:normal;font-feature-settings:normal;text-align:start;writing-mode:lr-tb;text-anchor:start;stroke-width:0.26458332"
         id="path4982" />
      <path
         d="M 8.7182717,249.57683 H 8.3548142 l -0.251492,-0.71486 H 6.9940015 l -0.251492,0.71486 h -0.346232 l 0.9336208,-2.56488 h 0.4547526 z m -0.7200249,-1.00769 -0.4495849,-1.25918 -0.4513075,1.25918 z"
         style="font-style:normal;font-variant:normal;font-weight:normal;font-stretch:normal;font-size:3.52777767px;font-family:sans-serif;-inkscape-font-specification:'sans-serif, Normal';font-variant-ligatures:normal;font-variant-caps:normal;font-variant-numeric:normal;font-feature-settings:normal;text-align:start;writing-mode:lr-tb;text-anchor:start;stroke-width:0.26458332"
         id="path4984" />
      <path
         d="m 11.889482,249.57683 h -0.323839 v -1.09554 q 0,-0.12403 -0.01206,-0.23944 -0.01033,-0.11541 -0.04651,-0.18431 -0.03962,-0.0741 -0.113688,-0.11196 -0.07407,-0.0379 -0.213596,-0.0379 -0.136081,0 -0.272162,0.0689 -0.136081,0.0672 -0.272163,0.17226 0.0052,0.0396 0.0086,0.093 0.0034,0.0517 0.0034,0.10336 v 1.23162 h -0.323839 v -1.09554 q 0,-0.12747 -0.01206,-0.24116 -0.01034,-0.11541 -0.04651,-0.18431 -0.03962,-0.0741 -0.113689,-0.11024 -0.07407,-0.0379 -0.2135955,-0.0379 -0.1326362,0 -0.2669949,0.0655 -0.1326362,0.0654 -0.2652724,0.16708 v 1.43661 H 9.0817293 v -1.92409 h 0.3238389 v 0.2136 q 0.1515842,-0.12575 0.3014459,-0.19637 0.1515842,-0.0706 0.3221169,-0.0706 0.19637,0 0.332451,0.0827 0.137804,0.0827 0.204983,0.22909 0.196371,-0.16536 0.35829,-0.23771 0.16192,-0.0741 0.346232,-0.0741 0.316949,0 0.466811,0.19293 0.151584,0.1912 0.151584,0.53571 z"
         style="font-style:normal;font-variant:normal;font-weight:normal;font-stretch:normal;font-size:3.52777767px;font-family:sans-serif;-inkscape-font-specification:'sans-serif, Normal';font-variant-ligatures:normal;font-variant-caps:normal;font-variant-numeric:normal;font-feature-settings:normal;text-align:start;writing-mode:lr-tb;text-anchor:start;stroke-width:0.26458332"
         id="path4986" />
      <path
         d="m 13.512121,249.5596 q -0.0913,0.0241 -0.199815,0.0396 -0.106798,0.0155 -0.191203,0.0155 -0.294556,0 -0.447862,-0.15847 -0.153307,-0.15847 -0.153307,-0.50815 v -1.0232 H 12.30117 v -0.27216 h 0.218764 v -0.55294 h 0.323839 v 0.55294 h 0.668348 v 0.27216 h -0.668348 v 0.87678 q 0,0.15159 0.0069,0.23771 0.0069,0.0844 0.04823,0.15848 0.0379,0.0689 0.103353,0.10163 0.06718,0.031 0.203261,0.031 0.07924,0 0.165364,-0.0224 0.08613,-0.0241 0.124024,-0.0396 h 0.01722 z"
         style="font-style:normal;font-variant:normal;font-weight:normal;font-stretch:normal;font-size:3.52777767px;font-family:sans-serif;-inkscape-font-specification:'sans-serif, Normal';font-variant-ligatures:normal;font-variant-caps:normal;font-variant-numeric:normal;font-feature-settings:normal;text-align:start;writing-mode:lr-tb;text-anchor:start;stroke-width:0.26458332"
         id="path4988" />
    </g>
    <g
       aria-label="M2Amt "
       style="font-style:normal;font-weight:normal;font-size:10.58333302px;line-height:1.25;font-family:sans-serif;letter-spacing:0px;word-spacing:0px;display:inline;fill:#000000;fill-opacity:1;stroke:none;stroke-width:0.26458332"
       id="text4600-2-6-6">
      <path
         d="M 18.060485,249.53119 H 17.71942 v -2.21003 l -0.713134,1.50378 h -0.203261 l -0.707967,-1.50378 v 2.21003 h -0.318671 v -2.56487 h 0.465088 l 0.683851,1.42799 0.661458,-1.42799 h 0.473701 z"
         style="font-style:normal;font-variant:normal;font-weight:normal;font-stretch:normal;font-size:3.52777767px;font-family:sans-serif;-inkscape-font-specification:'sans-serif, Normal';font-variant-ligatures:normal;font-variant-caps:normal;font-variant-numeric:normal;font-feature-settings:normal;text-align:start;writing-mode:lr-tb;text-anchor:start;stroke-width:0.26458332"
         id="path4991" />
      <path
         d="M 20.422098,249.53119 H 18.68577 v -0.36001 q 0.180867,-0.15503 0.361735,-0.31006 0.18259,-0.15503 0.339342,-0.30834 0.330729,-0.32039 0.45303,-0.50815 0.122301,-0.18948 0.122301,-0.40824 0,-0.19982 -0.132637,-0.31178 -0.130913,-0.11369 -0.366902,-0.11369 -0.156752,0 -0.339342,0.0551 -0.18259,0.0551 -0.356567,0.16881 h -0.01723 v -0.36174 q 0.122301,-0.0603 0.325562,-0.11024 0.204983,-0.0499 0.396186,-0.0499 0.394463,0 0.618394,0.1912 0.223931,0.18948 0.223931,0.51504 0,0.14642 -0.0379,0.27389 -0.03617,0.12574 -0.10852,0.23943 -0.06718,0.1068 -0.158475,0.21015 -0.08957,0.10335 -0.218763,0.2291 -0.184313,0.18087 -0.380683,0.3514 -0.196371,0.16881 -0.366903,0.3135 h 1.379761 z"
         style="font-style:normal;font-variant:normal;font-weight:normal;font-stretch:normal;font-size:3.52777767px;font-family:sans-serif;-inkscape-font-specification:'sans-serif, Normal';font-variant-ligatures:normal;font-variant-caps:normal;font-variant-numeric:normal;font-feature-settings:normal;text-align:start;writing-mode:lr-tb;text-anchor:start;stroke-width:0.26458332"
         id="path4993" />
      <path
         d="m 23.021423,249.53119 h -0.363458 l -0.251492,-0.71486 h -1.109321 l -0.251492,0.71486 h -0.346232 l 0.933621,-2.56487 h 0.454753 z m -0.720025,-1.00769 -0.449585,-1.25918 -0.451308,1.25918 z"
         style="font-style:normal;font-variant:normal;font-weight:normal;font-stretch:normal;font-size:3.52777767px;font-family:sans-serif;-inkscape-font-specification:'sans-serif, Normal';font-variant-ligatures:normal;font-variant-caps:normal;font-variant-numeric:normal;font-feature-settings:normal;text-align:start;writing-mode:lr-tb;text-anchor:start;stroke-width:0.26458332"
         id="path4995" />
      <path
         d="m 26.192633,249.53119 h -0.323839 v -1.09554 q 0,-0.12402 -0.01206,-0.23944 -0.01034,-0.11541 -0.04651,-0.18431 -0.03962,-0.0741 -0.113688,-0.11196 -0.07407,-0.0379 -0.213596,-0.0379 -0.136081,0 -0.272162,0.0689 -0.136082,0.0672 -0.272163,0.17226 0.0052,0.0396 0.0086,0.093 0.0034,0.0517 0.0034,0.10336 v 1.23162 h -0.323839 v -1.09554 q 0,-0.12747 -0.01206,-0.24116 -0.01033,-0.11541 -0.04651,-0.18431 -0.03962,-0.0741 -0.113688,-0.11024 -0.07407,-0.0379 -0.213596,-0.0379 -0.132636,0 -0.266995,0.0655 -0.132636,0.0654 -0.265272,0.16708 v 1.43661 H 23.38488 v -1.92409 h 0.323839 v 0.2136 q 0.151584,-0.12575 0.301446,-0.19637 0.151584,-0.0706 0.322116,-0.0706 0.196371,0 0.332452,0.0827 0.137804,0.0827 0.204983,0.2291 0.196371,-0.16537 0.35829,-0.23772 0.16192,-0.0741 0.346232,-0.0741 0.316949,0 0.466811,0.19293 0.151584,0.1912 0.151584,0.53571 z"
         style="font-style:normal;font-variant:normal;font-weight:normal;font-stretch:normal;font-size:3.52777767px;font-family:sans-serif;-inkscape-font-specification:'sans-serif, Normal';font-variant-ligatures:normal;font-variant-caps:normal;font-variant-numeric:normal;font-feature-settings:normal;text-align:start;writing-mode:lr-tb;text-anchor:start;stroke-width:0.26458332"
         id="path4997" />
      <path
         d="m 27.815272,249.51396 q -0.09129,0.0241 -0.199815,0.0396 -0.106798,0.0155 -0.191203,0.0155 -0.294556,0 -0.447862,-0.15848 -0.153307,-0.15847 -0.153307,-0.50815 v -1.02319 h -0.218764 v -0.27217 h 0.218764 v -0.55293 h 0.323839 v 0.55293 h 0.668348 v 0.27217 h -0.668348 v 0.87677 q 0,0.15159 0.0069,0.23771 0.0069,0.0844 0.04823,0.15848 0.0379,0.0689 0.103353,0.10163 0.06718,0.031 0.203261,0.031 0.07924,0 0.165364,-0.0224 0.08613,-0.0241 0.124024,-0.0396 h 0.01722 z"
         style="font-style:normal;font-variant:normal;font-weight:normal;font-stretch:normal;font-size:3.52777767px;font-family:sans-serif;-inkscape-font-specification:'sans-serif, Normal';font-variant-ligatures:normal;font-variant-caps:normal;font-variant-numeric:normal;font-feature-settings:normal;text-align:start;writing-mode:lr-tb;text-anchor:start;stroke-width:0.26458332"
         id="path4999" />
    </g>
    <g
       aria-label="Mod Amt"
       style="font-style:normal;font-weight:normal;font-size:10.58333302px;line-height:1.25;font-family:sans-serif;letter-spacing:0px;word-spacing:0px;display:inline;fill:#000000;fill-opacity:1;stroke:none;stroke-width:0.26458332"
       id="text4600-2-6-3">
      <path
         d="M 2.9063033,263.18866 H 2.5652389 v -2.21003 l -0.7131348,1.50379 H 1.6488435 l -0.7079671,-1.50379 v 2.21003 H 0.62220507 v -2.56487 H 1.087293 l 0.6838514,1.42799 0.6614583,-1.42799 h 0.4737006 z"
         style="font-style:normal;font-variant:normal;font-weight:normal;font-stretch:normal;font-size:3.52777767px;font-family:sans-serif;-inkscape-font-specification:'sans-serif, Normal';font-variant-ligatures:normal;font-variant-caps:normal;font-variant-numeric:normal;font-feature-settings:normal;text-align:start;writing-mode:lr-tb;text-anchor:start;stroke-width:0.26458332"
         id="path5002" />
      <path
         d="m 5.2127948,262.22748 q 0,0.47025 -0.2411567,0.74242 -0.2411567,0.27216 -0.6459554,0.27216 -0.4082438,0 -0.6494005,-0.27216 -0.2394341,-0.27217 -0.2394341,-0.74242 0,-0.47026 0.2394341,-0.74242 0.2411567,-0.27389 0.6494005,-0.27389 0.4047987,0 0.6459554,0.27389 0.2411567,0.27216 0.2411567,0.74242 z m -0.3341743,0 q 0,-0.37379 -0.1464165,-0.55466 -0.1464166,-0.18259 -0.4065213,-0.18259 -0.2635498,0 -0.4099663,0.18259 -0.1446941,0.18087 -0.1446941,0.55466 0,0.36173 0.1464166,0.54949 0.1464166,0.18604 0.4082438,0.18604 0.2583822,0 0.4047987,-0.18432 0.1481391,-0.18603 0.1481391,-0.55121 z"
         style="font-style:normal;font-variant:normal;font-weight:normal;font-stretch:normal;font-size:3.52777767px;font-family:sans-serif;-inkscape-font-specification:'sans-serif, Normal';font-variant-ligatures:normal;font-variant-caps:normal;font-variant-numeric:normal;font-feature-settings:normal;text-align:start;writing-mode:lr-tb;text-anchor:start;stroke-width:0.26458332"
         id="path5004" />
      <path
         d="M 7.276407,263.18866 H 6.952568 v -0.20154 q -0.1395263,0.12058 -0.2911105,0.18776 -0.1515842,0.0672 -0.3290066,0.0672 -0.3445096,0 -0.5477702,-0.26527 -0.2015381,-0.26528 -0.2015381,-0.73553 0,-0.2446 0.068902,-0.43581 0.070625,-0.1912 0.1894803,-0.32556 0.1171332,-0.13091 0.2721625,-0.19981 0.1567519,-0.0689 0.323839,-0.0689 0.1515842,0 0.2687174,0.0327 0.1171333,0.031 0.2463243,0.0982 v -0.83371 h 0.323839 z m -0.323839,-0.4737 v -1.10415 q -0.1309136,-0.0586 -0.2342664,-0.081 -0.1033529,-0.0224 -0.2256538,-0.0224 -0.2721625,0 -0.4237467,0.18948 -0.1515842,0.18948 -0.1515842,0.53744 0,0.34279 0.1171332,0.52193 0.1171333,0.17742 0.3755154,0.17742 0.1378038,0 0.2790528,-0.0603 0.1412489,-0.062 0.2635497,-0.15847 z"
         style="font-style:normal;font-variant:normal;font-weight:normal;font-stretch:normal;font-size:3.52777767px;font-family:sans-serif;-inkscape-font-specification:'sans-serif, Normal';font-variant-ligatures:normal;font-variant-caps:normal;font-variant-numeric:normal;font-feature-settings:normal;text-align:start;writing-mode:lr-tb;text-anchor:start;stroke-width:0.26458332"
         id="path5006" />
      <path
         d="M 11.202093,263.18866 H 10.838636 L 10.587144,262.4738 H 9.477823 l -0.2514919,0.71486 H 8.880099 l 0.9336208,-2.56487 h 0.4547522 z m -0.720025,-1.00769 -0.449585,-1.25918 -0.4513071,1.25918 z"
         style="font-style:normal;font-variant:normal;font-weight:normal;font-stretch:normal;font-size:3.52777767px;font-family:sans-serif;-inkscape-font-specification:'sans-serif, Normal';font-variant-ligatures:normal;font-variant-caps:normal;font-variant-numeric:normal;font-feature-settings:normal;text-align:start;writing-mode:lr-tb;text-anchor:start;stroke-width:0.26458332"
         id="path5008" />
      <path
         d="m 14.373304,263.18866 h -0.323839 v -1.09554 q 0,-0.12402 -0.01206,-0.23943 -0.01034,-0.11542 -0.04651,-0.18432 -0.03962,-0.0741 -0.113688,-0.11196 -0.07407,-0.0379 -0.213596,-0.0379 -0.136081,0 -0.272163,0.0689 -0.136081,0.0672 -0.272162,0.17226 0.0052,0.0396 0.0086,0.093 0.0034,0.0517 0.0034,0.10335 v 1.23162 h -0.323839 v -1.09554 q 0,-0.12747 -0.01206,-0.24116 -0.01034,-0.11541 -0.04651,-0.18431 -0.03962,-0.0741 -0.113688,-0.11024 -0.07407,-0.0379 -0.213596,-0.0379 -0.132636,0 -0.266995,0.0655 -0.132636,0.0654 -0.265272,0.16708 v 1.43661 h -0.323839 v -1.92409 h 0.323839 v 0.2136 q 0.151584,-0.12575 0.301446,-0.19637 0.151584,-0.0706 0.322116,-0.0706 0.19637,0 0.332452,0.0827 0.137804,0.0827 0.204983,0.2291 0.19637,-0.16537 0.35829,-0.23772 0.161919,-0.0741 0.346232,-0.0741 0.316949,0 0.46681,0.19293 0.151585,0.1912 0.151585,0.53571 z"
         style="font-style:normal;font-variant:normal;font-weight:normal;font-stretch:normal;font-size:3.52777767px;font-family:sans-serif;-inkscape-font-specification:'sans-serif, Normal';font-variant-ligatures:normal;font-variant-caps:normal;font-variant-numeric:normal;font-feature-settings:normal;text-align:start;writing-mode:lr-tb;text-anchor:start;stroke-width:0.26458332"
         id="path5010" />
      <path
         d="m 15.995944,263.17143 q -0.0913,0.0241 -0.199816,0.0396 -0.106798,0.0155 -0.191202,0.0155 -0.294556,0 -0.447863,-0.15848 -0.153307,-0.15847 -0.153307,-0.50815 v -1.02319 h -0.218763 v -0.27217 h 0.218763 v -0.55293 h 0.323839 v 0.55293 h 0.668349 v 0.27217 h -0.668349 v 0.87677 q 0,0.15159 0.0069,0.23771 0.0069,0.0844 0.04823,0.15848 0.0379,0.0689 0.103353,0.10163 0.06718,0.031 0.20326,0.031 0.07924,0 0.165365,-0.0224 0.08613,-0.0241 0.124023,-0.0396 h 0.01723 z"
         style="font-style:normal;font-variant:normal;font-weight:normal;font-stretch:normal;font-size:3.52777767px;font-family:sans-serif;-inkscape-font-specification:'sans-serif, Normal';font-variant-ligatures:normal;font-variant-caps:normal;font-variant-numeric:normal;font-feature-settings:normal;text-align:start;writing-mode:lr-tb;text-anchor:start;stroke-width:0.26458332"
         id="path5012" />
    </g>
    <g
       aria-label="Offset "
       style="font-style:normal;font-weight:normal;font-size:10.58333302px;line-height:1.25;font-family:sans-serif;letter-spacing:0px;word-spacing:0px;display:inline;fill:#000000;fill-opacity:1;stroke:none;stroke-width:0.26458332"
       id="text4600-2-6-3-1">
      <path
         d="m 19.201497,261.05753 q 0.156752,0.17226 0.239434,0.42203 0.08441,0.24977 0.08441,0.56671 0,0.31695 -0.08613,0.56845 -0.08441,0.24977 -0.237712,0.41685 -0.158474,0.17398 -0.375515,0.26183 -0.215319,0.0879 -0.492649,0.0879 -0.27044,0 -0.492649,-0.0896 -0.220486,-0.0896 -0.375515,-0.26011 -0.155029,-0.17053 -0.239434,-0.41858 -0.08268,-0.24804 -0.08268,-0.56672 0,-0.3135 0.08268,-0.56155 0.08268,-0.24977 0.241157,-0.42719 0.151584,-0.16881 0.375515,-0.25838 0.225654,-0.0896 0.490926,-0.0896 0.275608,0 0.494371,0.0913 0.220486,0.0896 0.373793,0.25666 z m -0.03101,0.98874 q 0,-0.49953 -0.223931,-0.76997 -0.223931,-0.27217 -0.611504,-0.27217 -0.391019,0 -0.61495,0.27217 -0.222209,0.27044 -0.222209,0.76997 0,0.50471 0.227377,0.77343 0.227376,0.26699 0.609782,0.26699 0.382405,0 0.608059,-0.26699 0.227376,-0.26872 0.227376,-0.77343 z"
         style="font-style:normal;font-variant:normal;font-weight:normal;font-stretch:normal;font-size:3.52777767px;font-family:sans-serif;-inkscape-font-specification:'sans-serif, Normal';font-variant-ligatures:normal;font-variant-caps:normal;font-variant-numeric:normal;font-feature-settings:normal;text-align:start;writing-mode:lr-tb;text-anchor:start;stroke-width:0.26458332"
         id="path5015" />
      <path
         d="m 21.075629,260.96107 h -0.01722 q -0.0534,-0.0155 -0.139527,-0.031 -0.08613,-0.0172 -0.151584,-0.0172 -0.208428,0 -0.303168,0.093 -0.09302,0.0913 -0.09302,0.33245 v 0.0654 h 0.583944 v 0.27217 h -0.573609 v 1.65192 h -0.323839 v -1.65192 H 19.83884 v -0.27217 h 0.218763 v -0.0637 q 0,-0.34279 0.170533,-0.52538 0.170532,-0.18431 0.492648,-0.18431 0.108521,0 0.194648,0.0103 0.08785,0.0103 0.160197,0.0241 z"
         style="font-style:normal;font-variant:normal;font-weight:normal;font-stretch:normal;font-size:3.52777767px;font-family:sans-serif;-inkscape-font-specification:'sans-serif, Normal';font-variant-ligatures:normal;font-variant-caps:normal;font-variant-numeric:normal;font-feature-settings:normal;text-align:start;writing-mode:lr-tb;text-anchor:start;stroke-width:0.26458332"
         id="path5017" />
      <path
         d="m 22.315863,260.96107 h -0.01722 q -0.0534,-0.0155 -0.139527,-0.031 -0.08613,-0.0172 -0.151584,-0.0172 -0.208428,0 -0.303168,0.093 -0.09302,0.0913 -0.09302,0.33245 v 0.0654 h 0.583944 v 0.27217 h -0.573608 v 1.65192 h -0.323839 v -1.65192 h -0.218764 v -0.27217 h 0.218764 v -0.0637 q 0,-0.34279 0.170532,-0.52538 0.170532,-0.18431 0.492648,-0.18431 0.108521,0 0.194648,0.0103 0.08785,0.0103 0.160197,0.0241 z"
         style="font-style:normal;font-variant:normal;font-weight:normal;font-stretch:normal;font-size:3.52777767px;font-family:sans-serif;-inkscape-font-specification:'sans-serif, Normal';font-variant-ligatures:normal;font-variant-caps:normal;font-variant-numeric:normal;font-feature-settings:normal;text-align:start;writing-mode:lr-tb;text-anchor:start;stroke-width:0.26458332"
         id="path5019" />
      <path
         d="m 23.89544,262.77319 q 0,0.26355 -0.218764,0.43236 -0.217041,0.16881 -0.594279,0.16881 -0.213596,0 -0.392741,-0.05 -0.177422,-0.0517 -0.298001,-0.11197 v -0.36346 h 0.01723 q 0.153307,0.11541 0.341064,0.18431 0.187758,0.0672 0.360013,0.0672 0.213596,0 0.334174,-0.0689 0.120578,-0.0689 0.120578,-0.21704 0,-0.11369 -0.06546,-0.17225 -0.06546,-0.0586 -0.251492,-0.0999 -0.0689,-0.0155 -0.180868,-0.0362 -0.110243,-0.0207 -0.201538,-0.0448 -0.253215,-0.0672 -0.360012,-0.19637 -0.105076,-0.13092 -0.105076,-0.3204 0,-0.11885 0.04823,-0.22393 0.04995,-0.10507 0.149862,-0.18775 0.09646,-0.081 0.244602,-0.12747 0.149862,-0.0482 0.334174,-0.0482 0.172255,0 0.347955,0.0431 0.177422,0.0413 0.294555,0.10163 v 0.34623 h -0.01722 q -0.124023,-0.0913 -0.301446,-0.1533 -0.177422,-0.0637 -0.347955,-0.0637 -0.177422,0 -0.299723,0.0689 -0.122301,0.0672 -0.122301,0.20154 0,0.11886 0.07407,0.17915 0.07235,0.0603 0.234266,0.0982 0.08957,0.0207 0.199816,0.0413 0.111965,0.0207 0.186035,0.0379 0.225654,0.0517 0.347955,0.17742 0.122301,0.12747 0.122301,0.33762 z"
         style="font-style:normal;font-variant:normal;font-weight:normal;font-stretch:normal;font-size:3.52777767px;font-family:sans-serif;-inkscape-font-specification:'sans-serif, Normal';font-variant-ligatures:normal;font-variant-caps:normal;font-variant-numeric:normal;font-feature-settings:normal;text-align:start;writing-mode:lr-tb;text-anchor:start;stroke-width:0.26458332"
         id="path5021" />
      <path
         d="m 25.97111,262.3994 h -1.417657 q 0,0.17742 0.0534,0.31006 0.0534,0.13091 0.146416,0.21531 0.08957,0.0827 0.211874,0.12403 0.124023,0.0413 0.272162,0.0413 0.196371,0 0.394464,-0.0775 0.199815,-0.0792 0.28422,-0.15503 h 0.01723 v 0.35313 q -0.163642,0.0689 -0.334175,0.11541 -0.170532,0.0465 -0.35829,0.0465 -0.478868,0 -0.747585,-0.25839 -0.268718,-0.2601 -0.268718,-0.73725 0,-0.47197 0.25666,-0.7493 0.258382,-0.27733 0.678684,-0.27733 0.389296,0 0.599446,0.22737 0.211874,0.22738 0.211874,0.64596 z m -0.315227,-0.24805 q -0.0017,-0.25494 -0.129191,-0.39446 -0.125746,-0.13953 -0.384128,-0.13953 -0.260104,0 -0.415134,0.15331 -0.153306,0.1533 -0.173977,0.38068 z"
         style="font-style:normal;font-variant:normal;font-weight:normal;font-stretch:normal;font-size:3.52777767px;font-family:sans-serif;-inkscape-font-specification:'sans-serif, Normal';font-variant-ligatures:normal;font-variant-caps:normal;font-variant-numeric:normal;font-feature-settings:normal;text-align:start;writing-mode:lr-tb;text-anchor:start;stroke-width:0.26458332"
         id="path5023" />
      <path
         d="m 27.461113,263.31062 q -0.0913,0.0241 -0.199816,0.0396 -0.106798,0.0155 -0.191202,0.0155 -0.294556,0 -0.447863,-0.15848 -0.153307,-0.15847 -0.153307,-0.50815 v -1.02319 h -0.218763 v -0.27217 h 0.218763 v -0.55293 h 0.323839 v 0.55293 h 0.668349 v 0.27217 h -0.668349 v 0.87677 q 0,0.15159 0.0069,0.23772 0.0069,0.0844 0.04823,0.15847 0.0379,0.0689 0.103353,0.10163 0.06718,0.031 0.20326,0.031 0.07924,0 0.165365,-0.0224 0.08613,-0.0241 0.124023,-0.0396 h 0.01723 z"
         style="font-style:normal;font-variant:normal;font-weight:normal;font-stretch:normal;font-size:3.52777767px;font-family:sans-serif;-inkscape-font-specification:'sans-serif, Normal';font-variant-ligatures:normal;font-variant-caps:normal;font-variant-numeric:normal;font-feature-settings:normal;text-align:start;writing-mode:lr-tb;text-anchor:start;stroke-width:0.26458332"
         id="path5025" />
    </g>
    <g
       aria-label="Rate"
       style="font-style:normal;font-weight:normal;font-size:10.58333302px;line-height:1.25;font-family:sans-serif;letter-spacing:0px;word-spacing:0px;display:inline;fill:#000000;fill-opacity:1;stroke:none;stroke-width:0.26458332"
       id="text4600-2-6-3-9"
       transform="translate(0.23386085,0.04677217)">
      <path
         d="M 2.8542993,278.57556 H 2.4116045 L 1.5537758,277.55581 H 1.073185 v 1.01975 H 0.73212051 v -2.56487 H 1.4504229 q 0.2325439,0 0.3875732,0.031 0.1550293,0.0293 0.2790528,0.1068 0.1395263,0.0879 0.217041,0.22221 0.079237,0.13264 0.079237,0.33762 0,0.27733 -0.1395264,0.46509 -0.1395264,0.18603 -0.3841281,0.28077 z m -0.7975396,-1.84312 q 0,-0.11025 -0.039619,-0.19465 -0.037896,-0.0861 -0.1274685,-0.1447 -0.07407,-0.0499 -0.1756999,-0.0689 -0.1016303,-0.0207 -0.2394341,-0.0207 H 1.073185 v 0.96807 h 0.3445095 q 0.1619195,0 0.2824978,-0.0276 0.1205784,-0.0293 0.2049832,-0.1068 0.077515,-0.0723 0.1136881,-0.16536 0.037896,-0.0947 0.037896,-0.23943 z"
         style="font-style:normal;font-variant:normal;font-weight:normal;font-stretch:normal;font-size:3.52777767px;font-family:sans-serif;-inkscape-font-specification:'sans-serif, Normal';font-variant-ligatures:normal;font-variant-caps:normal;font-variant-numeric:normal;font-feature-settings:normal;text-align:start;writing-mode:lr-tb;text-anchor:start;stroke-width:0.26458332"
         id="path5028"
         inkscape:connector-curvature="0" />
      <path
         d="M 4.6543615,278.57556 H 4.3322451 v -0.20498 q -0.043064,0.0293 -0.1171333,0.0827 -0.072347,0.0517 -0.1412489,0.0827 -0.08096,0.0396 -0.1860351,0.0655 -0.1050754,0.0276 -0.2463244,0.0276 -0.2601047,0 -0.4409722,-0.17225 -0.1808675,-0.17226 -0.1808675,-0.43925 0,-0.21877 0.093018,-0.35313 0.09474,-0.13608 0.2687174,-0.21359 0.1756999,-0.0775 0.4220242,-0.10508 0.2463244,-0.0276 0.5288222,-0.0413 v -0.05 q 0,-0.11025 -0.039619,-0.18259 -0.037896,-0.0723 -0.1102431,-0.11369 -0.068902,-0.0396 -0.1653646,-0.0534 -0.096463,-0.0138 -0.201538,-0.0138 -0.1274686,0 -0.2842204,0.0344 -0.1567518,0.0327 -0.323839,0.0965 H 3.190196 v -0.329 q 0.09474,-0.0258 0.273885,-0.0568 0.179145,-0.031 0.3531223,-0.031 0.2032606,0 0.3531223,0.0344 0.1515842,0.0327 0.2618272,0.11369 0.1085205,0.0792 0.1653646,0.20498 0.056844,0.12575 0.056844,0.31178 z m -0.3221164,-0.4737 v -0.53571 q -0.1481391,0.009 -0.3496772,0.0258 -0.1998155,0.0172 -0.3169488,0.0499 -0.1395263,0.0396 -0.2256537,0.12402 -0.086127,0.0827 -0.086127,0.2291 0,0.16537 0.099908,0.24977 0.099908,0.0827 0.3048909,0.0827 0.1705322,0 0.3117811,-0.0654 0.1412489,-0.0672 0.2618273,-0.1602 z"
         style="font-style:normal;font-variant:normal;font-weight:normal;font-stretch:normal;font-size:3.52777767px;font-family:sans-serif;-inkscape-font-specification:'sans-serif, Normal';font-variant-ligatures:normal;font-variant-caps:normal;font-variant-numeric:normal;font-feature-settings:normal;text-align:start;writing-mode:lr-tb;text-anchor:start;stroke-width:0.26458332"
         id="path5030"
         inkscape:connector-curvature="0" />
      <path
         d="m 6.2804465,278.55834 q -0.091295,0.0241 -0.1998155,0.0396 -0.1067979,0.0155 -0.1912028,0.0155 -0.2945556,0 -0.4478624,-0.15848 -0.1533067,-0.15847 -0.1533067,-0.50815 v -1.02319 H 5.0694955 v -0.27216 h 0.2187636 v -0.55294 H 5.612098 v 0.55294 h 0.6683485 v 0.27216 H 5.612098 v 0.87678 q 0,0.15158 0.00689,0.23771 0.00689,0.0844 0.048231,0.15847 0.037896,0.0689 0.1033528,0.10163 0.067179,0.031 0.2032607,0.031 0.079237,0 0.1653645,-0.0224 0.086127,-0.0241 0.1240235,-0.0396 h 0.017225 z"
         style="font-style:normal;font-variant:normal;font-weight:normal;font-stretch:normal;font-size:3.52777767px;font-family:sans-serif;-inkscape-font-specification:'sans-serif, Normal';font-variant-ligatures:normal;font-variant-caps:normal;font-variant-numeric:normal;font-feature-settings:normal;text-align:start;writing-mode:lr-tb;text-anchor:start;stroke-width:0.26458332"
         id="path5032"
         inkscape:connector-curvature="0" />
      <path
         d="M 8.2837695,277.64711 H 6.8661128 q 0,0.17742 0.053399,0.31006 0.053399,0.13091 0.1464166,0.21532 0.089573,0.0827 0.2118734,0.12402 0.1240234,0.0413 0.2721625,0.0413 0.1963704,0 0.3944634,-0.0775 0.1998155,-0.0792 0.2842204,-0.15503 h 0.017226 v 0.35312 q -0.1636421,0.0689 -0.3341743,0.11541 -0.1705322,0.0465 -0.3582899,0.0465 -0.4788683,0 -0.7475857,-0.25838 -0.2687175,-0.26011 -0.2687175,-0.73725 0,-0.47198 0.2566597,-0.74931 0.2583821,-0.27733 0.6786837,-0.27733 0.3892958,0 0.5994466,0.22737 0.2118734,0.22738 0.2118734,0.64596 z m -0.3152262,-0.24805 q -0.00172,-0.25494 -0.1291911,-0.39446 -0.125746,-0.13953 -0.3841281,-0.13953 -0.2601047,0 -0.415134,0.15331 -0.1533068,0.15331 -0.1739773,0.38068 z"
         style="font-style:normal;font-variant:normal;font-weight:normal;font-stretch:normal;font-size:3.52777767px;font-family:sans-serif;-inkscape-font-specification:'sans-serif, Normal';font-variant-ligatures:normal;font-variant-caps:normal;font-variant-numeric:normal;font-feature-settings:normal;text-align:start;writing-mode:lr-tb;text-anchor:start;stroke-width:0.26458332"
         id="path5034"
         inkscape:connector-curvature="0" />
    </g>
    <g
       aria-label="Stages"
       style="font-style:normal;font-weight:normal;font-size:10.58333302px;line-height:1.25;font-family:sans-serif;letter-spacing:0px;word-spacing:0px;display:inline;fill:#000000;fill-opacity:1;stroke:none;stroke-width:0.26458332"
       id="text4600-2-6-3-9-1"
       transform="translate(-2.1281337,-0.18708867)">
      <path
         d="m 18.106461,278.25351 q 0,0.14986 -0.07062,0.29628 -0.0689,0.14642 -0.194648,0.24805 -0.137804,0.11024 -0.322116,0.17225 -0.18259,0.062 -0.440973,0.062 -0.27733,0 -0.499538,-0.0517 -0.220487,-0.0517 -0.449585,-0.15331 v -0.42719 h 0.02412 q 0.194648,0.16192 0.449585,0.24977 0.254937,0.0879 0.478868,0.0879 0.316949,0 0.492649,-0.11886 0.177423,-0.11885 0.177423,-0.31695 0,-0.17053 -0.08441,-0.25149 -0.08268,-0.081 -0.253215,-0.12574 -0.129191,-0.0344 -0.280775,-0.0568 -0.149862,-0.0224 -0.318671,-0.0568 -0.341065,-0.0723 -0.506429,-0.24633 -0.163642,-0.1757 -0.163642,-0.45647 0,-0.32212 0.272162,-0.5271 0.272163,-0.20671 0.690742,-0.20671 0.27044,0 0.496093,0.0517 0.225654,0.0517 0.399631,0.12747 v 0.40307 h -0.02412 q -0.146417,-0.12402 -0.385851,-0.20498 -0.237711,-0.0827 -0.487481,-0.0827 -0.273885,0 -0.440972,0.11369 -0.165365,0.11369 -0.165365,0.29283 0,0.1602 0.08268,0.25149 0.08268,0.0913 0.29111,0.13953 0.110243,0.0241 0.313504,0.0586 0.203261,0.0344 0.344509,0.0706 0.285943,0.0758 0.430637,0.2291 0.144694,0.15331 0.144694,0.42891 z"
         style="font-style:normal;font-variant:normal;font-weight:normal;font-stretch:normal;font-size:3.52777767px;font-family:sans-serif;-inkscape-font-specification:'sans-serif, Normal';font-variant-ligatures:normal;font-variant-caps:normal;font-variant-numeric:normal;font-feature-settings:normal;text-align:start;writing-mode:lr-tb;text-anchor:start;stroke-width:0.26458332"
         id="path5037"
         inkscape:connector-curvature="0" />
      <path
         d="m 19.627471,278.96837 q -0.09129,0.0241 -0.199816,0.0396 -0.106798,0.0155 -0.191202,0.0155 -0.294556,0 -0.447863,-0.15847 -0.153307,-0.15848 -0.153307,-0.50815 v -1.0232 H 18.41652 v -0.27216 h 0.218763 v -0.55294 h 0.323839 v 0.55294 h 0.668349 v 0.27216 h -0.668349 v 0.87678 q 0,0.15158 0.0069,0.23771 0.0069,0.0844 0.04823,0.15848 0.0379,0.0689 0.103353,0.10163 0.06718,0.031 0.20326,0.031 0.07924,0 0.165365,-0.0224 0.08613,-0.0241 0.124023,-0.0396 h 0.01723 z"
         style="font-style:normal;font-variant:normal;font-weight:normal;font-stretch:normal;font-size:3.52777767px;font-family:sans-serif;-inkscape-font-specification:'sans-serif, Normal';font-variant-ligatures:normal;font-variant-caps:normal;font-variant-numeric:normal;font-feature-settings:normal;text-align:start;writing-mode:lr-tb;text-anchor:start;stroke-width:0.26458332"
         id="path5039"
         inkscape:connector-curvature="0" />
      <path
         d="m 21.515383,278.9856 h -0.322116 v -0.20499 q -0.04306,0.0293 -0.117133,0.0827 -0.07235,0.0517 -0.141249,0.0827 -0.08096,0.0396 -0.186036,0.0654 -0.105075,0.0276 -0.246324,0.0276 -0.260105,0 -0.440972,-0.17225 -0.180868,-0.17225 -0.180868,-0.43925 0,-0.21876 0.09302,-0.35312 0.09474,-0.13608 0.268717,-0.2136 0.1757,-0.0775 0.422025,-0.10507 0.246324,-0.0276 0.528822,-0.0413 v -0.05 q 0,-0.11024 -0.03962,-0.18259 -0.0379,-0.0723 -0.110243,-0.11369 -0.0689,-0.0396 -0.165364,-0.0534 -0.09646,-0.0138 -0.201539,-0.0138 -0.127468,0 -0.28422,0.0345 -0.156752,0.0327 -0.323839,0.0965 h -0.01722 v -0.32901 q 0.09474,-0.0258 0.273885,-0.0568 0.179145,-0.031 0.353122,-0.031 0.203261,0 0.353122,0.0344 0.151584,0.0327 0.261828,0.11369 0.10852,0.0792 0.165364,0.20498 0.05684,0.12575 0.05684,0.31178 z m -0.322116,-0.4737 v -0.53572 q -0.148139,0.009 -0.349677,0.0258 -0.199816,0.0172 -0.316949,0.0499 -0.139527,0.0396 -0.225654,0.12403 -0.08613,0.0827 -0.08613,0.2291 0,0.16536 0.09991,0.24977 0.09991,0.0827 0.304891,0.0827 0.170533,0 0.311782,-0.0655 0.141248,-0.0672 0.261827,-0.16019 z"
         style="font-style:normal;font-variant:normal;font-weight:normal;font-stretch:normal;font-size:3.52777767px;font-family:sans-serif;-inkscape-font-specification:'sans-serif, Normal';font-variant-ligatures:normal;font-variant-caps:normal;font-variant-numeric:normal;font-feature-settings:normal;text-align:start;writing-mode:lr-tb;text-anchor:start;stroke-width:0.26458332"
         id="path5041"
         inkscape:connector-curvature="0" />
      <path
         d="m 23.703019,278.76683 q 0,0.48921 -0.222209,0.7183 -0.222209,0.2291 -0.683852,0.2291 -0.153306,0 -0.299723,-0.0224 -0.144694,-0.0207 -0.285943,-0.0603 v -0.33073 h 0.01723 q 0.07924,0.031 0.251492,0.0758 0.172254,0.0465 0.344509,0.0465 0.165365,0 0.273885,-0.0396 0.108521,-0.0396 0.16881,-0.11024 0.06029,-0.0672 0.08613,-0.16192 0.02584,-0.0947 0.02584,-0.21187 v -0.1757 q -0.146417,0.11713 -0.280776,0.1757 -0.132636,0.0568 -0.339342,0.0568 -0.344509,0 -0.54777,-0.24804 -0.201538,-0.24977 -0.201538,-0.7028 0,-0.24805 0.0689,-0.4272 0.07062,-0.18086 0.191203,-0.31178 0.111965,-0.1223 0.272162,-0.18948 0.160197,-0.0689 0.318672,-0.0689 0.167087,0 0.279052,0.0344 0.113689,0.0327 0.239435,0.10163 l 0.02067,-0.0827 h 0.303169 z m -0.323839,-0.31006 v -1.04903 q -0.129191,-0.0586 -0.241157,-0.0827 -0.110243,-0.0258 -0.220486,-0.0258 -0.266995,0 -0.420302,0.17915 -0.153307,0.17914 -0.153307,0.52021 0,0.32383 0.113689,0.49092 0.113688,0.16709 0.377238,0.16709 0.141248,0 0.282497,-0.0534 0.142972,-0.0551 0.261828,-0.14642 z"
         style="font-style:normal;font-variant:normal;font-weight:normal;font-stretch:normal;font-size:3.52777767px;font-family:sans-serif;-inkscape-font-specification:'sans-serif, Normal';font-variant-ligatures:normal;font-variant-caps:normal;font-variant-numeric:normal;font-feature-settings:normal;text-align:start;writing-mode:lr-tb;text-anchor:start;stroke-width:0.26458332"
         id="path5043"
         inkscape:connector-curvature="0" />
      <path
         d="m 25.950944,278.05714 h -1.417657 q 0,0.17742 0.0534,0.31006 0.0534,0.13091 0.146417,0.21532 0.08957,0.0827 0.211873,0.12402 0.124023,0.0413 0.272162,0.0413 0.196371,0 0.394464,-0.0775 0.199815,-0.0792 0.28422,-0.15503 h 0.01723 v 0.35312 q -0.163642,0.0689 -0.334175,0.11541 -0.170532,0.0465 -0.358289,0.0465 -0.478869,0 -0.747586,-0.25838 -0.268718,-0.2601 -0.268718,-0.73725 0,-0.47198 0.25666,-0.74931 0.258382,-0.27733 0.678684,-0.27733 0.389296,0 0.599446,0.22738 0.211874,0.22737 0.211874,0.64595 z m -0.315226,-0.24804 q -0.0017,-0.25494 -0.129192,-0.39447 -0.125746,-0.13952 -0.384128,-0.13952 -0.260104,0 -0.415134,0.1533 -0.153306,0.15331 -0.173977,0.38069 z"
         style="font-style:normal;font-variant:normal;font-weight:normal;font-stretch:normal;font-size:3.52777767px;font-family:sans-serif;-inkscape-font-specification:'sans-serif, Normal';font-variant-ligatures:normal;font-variant-caps:normal;font-variant-numeric:normal;font-feature-settings:normal;text-align:start;writing-mode:lr-tb;text-anchor:start;stroke-width:0.26458332"
         id="path5045"
         inkscape:connector-curvature="0" />
      <path
         d="m 27.816463,278.43094 q 0,0.26355 -0.218764,0.43235 -0.217041,0.16881 -0.594279,0.16881 -0.213596,0 -0.39274,-0.05 -0.177423,-0.0517 -0.298001,-0.11196 v -0.36346 h 0.01722 q 0.153307,0.11541 0.341065,0.18431 0.187757,0.0672 0.360012,0.0672 0.213596,0 0.334174,-0.0689 0.120579,-0.0689 0.120579,-0.21704 0,-0.11369 -0.06546,-0.17226 -0.06546,-0.0586 -0.251492,-0.0999 -0.0689,-0.0155 -0.180868,-0.0362 -0.110243,-0.0207 -0.201538,-0.0448 -0.253214,-0.0672 -0.360012,-0.19637 -0.105076,-0.13091 -0.105076,-0.32039 0,-0.11886 0.04823,-0.22393 0.04995,-0.10508 0.149861,-0.18776 0.09646,-0.081 0.244602,-0.12747 0.149862,-0.0482 0.334175,-0.0482 0.172254,0 0.347954,0.0431 0.177423,0.0413 0.294556,0.10164 v 0.34623 h -0.01723 q -0.124023,-0.0913 -0.301446,-0.15331 -0.177422,-0.0637 -0.347954,-0.0637 -0.177423,0 -0.299723,0.0689 -0.122301,0.0672 -0.122301,0.20154 0,0.11885 0.07407,0.17914 0.07235,0.0603 0.234267,0.0982 0.08957,0.0207 0.199815,0.0413 0.111966,0.0207 0.186035,0.0379 0.225654,0.0517 0.347955,0.17743 0.122301,0.12746 0.122301,0.33762 z"
         style="font-style:normal;font-variant:normal;font-weight:normal;font-stretch:normal;font-size:3.52777767px;font-family:sans-serif;-inkscape-font-specification:'sans-serif, Normal';font-variant-ligatures:normal;font-variant-caps:normal;font-variant-numeric:normal;font-feature-settings:normal;text-align:start;writing-mode:lr-tb;text-anchor:start;stroke-width:0.26458332"
         id="path5047"
         inkscape:connector-curvature="0" />
    </g>
    <g
       aria-label="256"
       style="font-style:normal;font-weight:normal;font-size:10.58333302px;line-height:1.25;font-family:sans-serif;letter-spacing:0px;word-spacing:0px;fill:#000000;fill-opacity:1;stroke:none;stroke-width:0.26458332"
       id="text918"
       transform="translate(0.21047475,-0.28063301)">
      <path
         d="m 11.465578,276.13959 h -1.21543 v -0.25201 q 0.126607,-0.10852 0.253215,-0.21704 0.127813,-0.10852 0.237539,-0.21584 0.23151,-0.22427 0.317121,-0.3557 0.08561,-0.13264 0.08561,-0.28577 0,-0.13988 -0.09285,-0.21825 -0.09164,-0.0796 -0.256832,-0.0796 -0.109726,0 -0.237539,0.0386 -0.127813,0.0386 -0.249597,0.11817 h -0.01206 v -0.25322 q 0.08561,-0.0422 0.227893,-0.0772 0.143488,-0.035 0.27733,-0.035 0.276125,0 0.432877,0.13384 0.156751,0.13263 0.156751,0.36053 0,0.10249 -0.02653,0.19172 -0.02532,0.088 -0.07596,0.1676 -0.04703,0.0748 -0.110932,0.14711 -0.0627,0.0723 -0.153135,0.16037 -0.129019,0.1266 -0.266478,0.24598 -0.137459,0.11816 -0.256832,0.21945 h 0.965833 z"
         style="font-style:normal;font-variant:normal;font-weight:normal;font-stretch:normal;font-size:2.46944451px;font-family:sans-serif;-inkscape-font-specification:'sans-serif, Normal';font-variant-ligatures:normal;font-variant-caps:normal;font-variant-numeric:normal;font-feature-settings:normal;text-align:start;writing-mode:lr-tb;text-anchor:start;stroke-width:0.26458332"
         id="path1011"
         inkscape:connector-curvature="0" />
      <path
         d="m 13.02345,275.56925 q 0,0.1254 -0.04582,0.23995 -0.04582,0.11455 -0.125401,0.19293 -0.08682,0.0844 -0.207395,0.13022 -0.119373,0.0446 -0.27733,0.0446 -0.147106,0 -0.283359,-0.0313 -0.136254,-0.0301 -0.230305,-0.0736 v -0.25442 h 0.01688 q 0.09887,0.0627 0.23151,0.10732 0.132637,0.0434 0.26045,0.0434 0.08561,0 0.165192,-0.0241 0.08079,-0.0241 0.143488,-0.0844 0.05306,-0.0519 0.07958,-0.1242 0.02773,-0.0724 0.02773,-0.1676 0,-0.0929 -0.03256,-0.15676 -0.03135,-0.0639 -0.08802,-0.10249 -0.0627,-0.0458 -0.153135,-0.0639 -0.08923,-0.0193 -0.20016,-0.0193 -0.106109,0 -0.204983,0.0145 -0.09767,0.0145 -0.16881,0.0289 v -0.92483 h 1.080382 v 0.21101 h -0.847666 v 0.47749 q 0.05185,-0.005 0.106109,-0.007 0.05426,-0.002 0.09405,-0.002 0.145899,0 0.255626,0.0253 0.109726,0.0241 0.201365,0.0868 0.09646,0.0663 0.149518,0.17122 0.05305,0.1049 0.05305,0.26286 z"
         style="font-style:normal;font-variant:normal;font-weight:normal;font-stretch:normal;font-size:2.46944451px;font-family:sans-serif;-inkscape-font-specification:'sans-serif, Normal';font-variant-ligatures:normal;font-variant-caps:normal;font-variant-numeric:normal;font-feature-settings:normal;text-align:start;writing-mode:lr-tb;text-anchor:start;stroke-width:0.26458332"
         id="path1013"
         inkscape:connector-curvature="0" />
      <path
         d="m 14.636788,275.55719 q 0,0.27372 -0.180867,0.44735 -0.179662,0.17243 -0.441317,0.17243 -0.132636,0 -0.241157,-0.041 -0.10852,-0.041 -0.191719,-0.12178 -0.103698,-0.10008 -0.160369,-0.26528 -0.05547,-0.16519 -0.05547,-0.3979 0,-0.23875 0.05064,-0.42323 0.05185,-0.18449 0.163986,-0.32798 0.106109,-0.13625 0.273713,-0.21222 0.167604,-0.0772 0.390674,-0.0772 0.07114,0 0.119372,0.006 0.04823,0.006 0.09767,0.0217 v 0.2303 h -0.01206 q -0.03376,-0.0181 -0.102492,-0.0338 -0.06752,-0.0169 -0.138665,-0.0169 -0.259243,0 -0.413583,0.16278 -0.154341,0.16157 -0.179662,0.4377 0.101286,-0.0615 0.198954,-0.0928 0.09887,-0.0326 0.227893,-0.0326 0.11455,0 0.201366,0.0217 0.08802,0.0205 0.179662,0.0844 0.106109,0.0736 0.159163,0.18569 0.05426,0.11213 0.05426,0.2725 z m -0.244774,0.01 q 0,-0.11214 -0.03376,-0.18569 -0.03256,-0.0736 -0.10852,-0.12781 -0.05547,-0.0386 -0.12299,-0.0506 -0.06752,-0.0121 -0.141077,-0.0121 -0.102491,0 -0.190513,0.0241 -0.08802,0.0241 -0.180868,0.0748 -0.0024,0.0265 -0.0036,0.0519 -0.0012,0.0241 -0.0012,0.0615 0,0.19052 0.03859,0.30145 0.03979,0.10973 0.10852,0.17363 0.05547,0.0531 0.119373,0.0784 0.06511,0.0241 0.141077,0.0241 0.174838,0 0.274918,-0.1061 0.10008,-0.10732 0.10008,-0.30748 z"
         style="font-style:normal;font-variant:normal;font-weight:normal;font-stretch:normal;font-size:2.46944451px;font-family:sans-serif;-inkscape-font-specification:'sans-serif, Normal';font-variant-ligatures:normal;font-variant-caps:normal;font-variant-numeric:normal;font-feature-settings:normal;text-align:start;writing-mode:lr-tb;text-anchor:start;stroke-width:0.26458332"
         id="path1015"
         inkscape:connector-curvature="0" />
    </g>
    <g
       aria-label="512"
       style="font-style:normal;font-weight:normal;font-size:10.58333302px;line-height:1.25;font-family:sans-serif;letter-spacing:0px;word-spacing:0px;display:inline;fill:#000000;fill-opacity:1;stroke:none;stroke-width:0.26458332"
       id="text918-5">
      <path
         d="m 11.502657,267.80204 q 0,0.1254 -0.04582,0.23995 -0.04582,0.11455 -0.125402,0.19293 -0.08682,0.0844 -0.207395,0.13022 -0.119372,0.0446 -0.27733,0.0446 -0.147105,0 -0.283359,-0.0313 -0.136254,-0.0301 -0.230305,-0.0736 v -0.25442 h 0.01688 q 0.09887,0.0627 0.231511,0.10732 0.132636,0.0434 0.260449,0.0434 0.08561,0 0.165192,-0.0241 0.08079,-0.0241 0.143489,-0.0844 0.05305,-0.0518 0.07958,-0.12419 0.02773,-0.0723 0.02773,-0.16761 0,-0.0928 -0.03256,-0.15675 -0.03135,-0.0639 -0.08802,-0.10249 -0.0627,-0.0458 -0.153135,-0.0639 -0.08923,-0.0193 -0.20016,-0.0193 -0.106109,0 -0.204983,0.0145 -0.09767,0.0145 -0.168809,0.0289 v -0.92484 H 11.4906 v 0.21102 h -0.847666 v 0.47749 q 0.05185,-0.005 0.106109,-0.007 0.05426,-0.002 0.09405,-0.002 0.1459,0 0.255626,0.0253 0.109726,0.0241 0.201366,0.0868 0.09646,0.0663 0.149517,0.17122 0.05305,0.1049 0.05305,0.26286 z"
         style="font-style:normal;font-variant:normal;font-weight:normal;font-stretch:normal;font-size:2.46944451px;font-family:sans-serif;-inkscape-font-specification:'sans-serif, Normal';font-variant-ligatures:normal;font-variant-caps:normal;font-variant-numeric:normal;font-feature-settings:normal;text-align:start;writing-mode:lr-tb;text-anchor:start;stroke-width:0.26458332"
         id="path1004" />
      <path
         d="m 12.986977,268.37238 h -0.971862 v -0.18328 h 0.373793 v -1.20338 h -0.373793 v -0.16398 q 0.07597,0 0.162781,-0.0121 0.08682,-0.0133 0.131431,-0.0374 0.05547,-0.0301 0.08682,-0.076 0.03256,-0.047 0.03738,-0.1254 h 0.186897 v 1.61816 h 0.366558 z"
         style="font-style:normal;font-variant:normal;font-weight:normal;font-stretch:normal;font-size:2.46944451px;font-family:sans-serif;-inkscape-font-specification:'sans-serif, Normal';font-variant-ligatures:normal;font-variant-caps:normal;font-variant-numeric:normal;font-feature-settings:normal;text-align:start;writing-mode:lr-tb;text-anchor:start;stroke-width:0.26458332"
         id="path1006" />
      <path
         d="m 14.66181,268.37238 h -1.21543 v -0.25201 q 0.126608,-0.10852 0.253215,-0.21704 0.127813,-0.10852 0.237539,-0.21584 0.231511,-0.22428 0.317121,-0.35571 0.08561,-0.13263 0.08561,-0.28577 0,-0.13987 -0.09285,-0.21824 -0.09164,-0.0796 -0.256832,-0.0796 -0.109727,0 -0.23754,0.0386 -0.127813,0.0386 -0.249597,0.11817 h -0.01206 v -0.25322 q 0.08561,-0.0422 0.227893,-0.0772 0.143489,-0.035 0.277331,-0.035 0.276124,0 0.432876,0.13385 0.156752,0.13263 0.156752,0.36053 0,0.10249 -0.02653,0.19172 -0.02532,0.088 -0.07597,0.1676 -0.04702,0.0748 -0.110932,0.1471 -0.0627,0.0723 -0.153134,0.16037 -0.129019,0.12661 -0.266479,0.24598 -0.137459,0.11817 -0.256831,0.21946 h 0.965832 z"
         style="font-style:normal;font-variant:normal;font-weight:normal;font-stretch:normal;font-size:2.46944451px;font-family:sans-serif;-inkscape-font-specification:'sans-serif, Normal';font-variant-ligatures:normal;font-variant-caps:normal;font-variant-numeric:normal;font-feature-settings:normal;text-align:start;writing-mode:lr-tb;text-anchor:start;stroke-width:0.26458332"
         id="path1008" />
    </g>
    <g
       aria-label="1024"
       style="font-style:normal;font-weight:normal;font-size:10.58333302px;line-height:1.25;font-family:sans-serif;letter-spacing:0px;word-spacing:0px;display:inline;fill:#000000;fill-opacity:1;stroke:none;stroke-width:0.26458332"
       id="text918-5-1"
       transform="translate(0,0.1403165)">
      <path
         d="m 22.786243,268.19113 h -0.971862 v -0.18328 h 0.373793 v -1.20337 h -0.373793 v -0.16399 q 0.07597,0 0.162781,-0.012 0.08682,-0.0133 0.131431,-0.0374 0.05547,-0.0302 0.08682,-0.076 0.03256,-0.047 0.03738,-0.1254 h 0.186897 v 1.61816 h 0.366558 z"
         style="font-style:normal;font-variant:normal;font-weight:normal;font-stretch:normal;font-size:2.46944451px;font-family:sans-serif;-inkscape-font-specification:'sans-serif, Normal';font-variant-ligatures:normal;font-variant-caps:normal;font-variant-numeric:normal;font-feature-settings:normal;text-align:start;writing-mode:lr-tb;text-anchor:start;stroke-width:0.26458332"
         id="path995"
         inkscape:connector-curvature="0" />
      <path
         d="m 24.458665,267.29282 q 0,0.48352 -0.151929,0.71021 -0.150723,0.22548 -0.46905,0.22548 -0.32315,0 -0.472667,-0.2291 -0.148311,-0.2291 -0.148311,-0.70418 0,-0.47869 0.150723,-0.70658 0.150723,-0.2291 0.470255,-0.2291 0.32315,0 0.471461,0.23271 0.149518,0.23151 0.149518,0.70056 z m -0.317121,0.54743 q 0.0422,-0.0977 0.05667,-0.2291 0.01568,-0.13264 0.01568,-0.31833 0,-0.18328 -0.01568,-0.31832 -0.01447,-0.13505 -0.05788,-0.2291 -0.0422,-0.0928 -0.115755,-0.13987 -0.07235,-0.047 -0.186897,-0.047 -0.113343,0 -0.188102,0.047 -0.07355,0.047 -0.116961,0.14228 -0.041,0.0892 -0.05667,0.23272 -0.01447,0.14348 -0.01447,0.3147 0,0.18811 0.01326,0.31471 0.01326,0.12661 0.05667,0.22669 0.03979,0.094 0.112138,0.14349 0.07355,0.0494 0.194131,0.0494 0.113344,0 0.188102,-0.047 0.07476,-0.047 0.115756,-0.14228 z"
         style="font-style:normal;font-variant:normal;font-weight:normal;font-stretch:normal;font-size:2.46944451px;font-family:sans-serif;-inkscape-font-specification:'sans-serif, Normal';font-variant-ligatures:normal;font-variant-caps:normal;font-variant-numeric:normal;font-feature-settings:normal;text-align:start;writing-mode:lr-tb;text-anchor:start;stroke-width:0.26458332"
         id="path997"
         inkscape:connector-curvature="0" />
      <path
         d="m 26.033418,268.19113 h -1.21543 v -0.25201 q 0.126607,-0.10852 0.253215,-0.21704 0.127813,-0.10852 0.237539,-0.21583 0.23151,-0.22428 0.317121,-0.35571 0.08561,-0.13264 0.08561,-0.28577 0,-0.13987 -0.09285,-0.21825 -0.09164,-0.0796 -0.256832,-0.0796 -0.109726,0 -0.237539,0.0386 -0.127813,0.0386 -0.249597,0.11816 h -0.01206 v -0.25321 q 0.08561,-0.0422 0.227893,-0.0772 0.143488,-0.035 0.27733,-0.035 0.276125,0 0.432877,0.13384 0.156752,0.13264 0.156752,0.36053 0,0.10249 -0.02653,0.19172 -0.02532,0.088 -0.07596,0.16761 -0.04703,0.0747 -0.110932,0.1471 -0.0627,0.0723 -0.153135,0.16037 -0.129018,0.12661 -0.266478,0.24598 -0.137459,0.11817 -0.256832,0.21945 h 0.965833 z"
         style="font-style:normal;font-variant:normal;font-weight:normal;font-stretch:normal;font-size:2.46944451px;font-family:sans-serif;-inkscape-font-specification:'sans-serif, Normal';font-variant-ligatures:normal;font-variant-caps:normal;font-variant-numeric:normal;font-feature-settings:normal;text-align:start;writing-mode:lr-tb;text-anchor:start;stroke-width:0.26458332"
         id="path999"
         inkscape:connector-curvature="0" />
      <path
         d="m 27.646756,267.68591 h -0.266478 v 0.50522 h -0.231511 v -0.50522 h -0.859723 v -0.27733 l 0.86937,-1.01286 h 0.221864 v 1.09726 h 0.266478 z m -0.497989,-0.19293 v -0.81028 l -0.695737,0.81028 z"
         style="font-style:normal;font-variant:normal;font-weight:normal;font-stretch:normal;font-size:2.46944451px;font-family:sans-serif;-inkscape-font-specification:'sans-serif, Normal';font-variant-ligatures:normal;font-variant-caps:normal;font-variant-numeric:normal;font-feature-settings:normal;text-align:start;writing-mode:lr-tb;text-anchor:start;stroke-width:0.26458332"
         id="path1001"
         inkscape:connector-curvature="0" />
    </g>
    <g
       aria-label="2048"
       style="font-style:normal;font-weight:normal;font-size:10.58333302px;line-height:1.25;font-family:sans-serif;letter-spacing:0px;word-spacing:0px;display:inline;fill:#000000;fill-opacity:1;stroke:none;stroke-width:0.26458332"
       id="text918-5-1-8">
      <path
         d="m 22.830484,275.98495 h -1.21543 v -0.252 q 0.126608,-0.10852 0.253215,-0.21704 0.127813,-0.10853 0.237539,-0.21584 0.231511,-0.22428 0.317121,-0.35571 0.08561,-0.13263 0.08561,-0.28577 0,-0.13987 -0.09285,-0.21824 -0.09164,-0.0796 -0.256832,-0.0796 -0.109727,0 -0.23754,0.0386 -0.127813,0.0386 -0.249597,0.11817 h -0.01206 v -0.25322 q 0.08561,-0.0422 0.227893,-0.0772 0.143489,-0.035 0.277331,-0.035 0.276124,0 0.432876,0.13385 0.156752,0.13263 0.156752,0.36053 0,0.10249 -0.02653,0.19171 -0.02532,0.088 -0.07596,0.16761 -0.04703,0.0748 -0.110932,0.1471 -0.0627,0.0723 -0.153134,0.16037 -0.129019,0.12661 -0.266479,0.24598 -0.137459,0.11817 -0.256831,0.21946 h 0.965832 z"
         style="font-style:normal;font-variant:normal;font-weight:normal;font-stretch:normal;font-size:2.46944451px;font-family:sans-serif;-inkscape-font-specification:'sans-serif, Normal';font-variant-ligatures:normal;font-variant-caps:normal;font-variant-numeric:normal;font-feature-settings:normal;text-align:start;writing-mode:lr-tb;text-anchor:start;stroke-width:0.26458332"
         id="path986" />
      <path
         d="m 24.400414,275.08665 q 0,0.48352 -0.151929,0.7102 -0.150722,0.22548 -0.469049,0.22548 -0.32315,0 -0.472667,-0.22909 -0.148312,-0.2291 -0.148312,-0.70418 0,-0.4787 0.150723,-0.70659 0.150723,-0.2291 0.470256,-0.2291 0.32315,0 0.471461,0.23272 0.149517,0.23151 0.149517,0.70056 z m -0.317121,0.54742 q 0.0422,-0.0977 0.05667,-0.2291 0.01567,-0.13263 0.01567,-0.31832 0,-0.18328 -0.01567,-0.31833 -0.01447,-0.13505 -0.05788,-0.2291 -0.0422,-0.0928 -0.115755,-0.13987 -0.07235,-0.047 -0.186896,-0.047 -0.113344,0 -0.188102,0.047 -0.07355,0.047 -0.116961,0.14228 -0.041,0.0892 -0.05667,0.23272 -0.01447,0.14349 -0.01447,0.31471 0,0.1881 0.01326,0.31471 0.01326,0.1266 0.05667,0.22668 0.03979,0.0941 0.112138,0.14349 0.07355,0.0494 0.194131,0.0494 0.113343,0 0.188102,-0.047 0.07476,-0.047 0.115755,-0.14228 z"
         style="font-style:normal;font-variant:normal;font-weight:normal;font-stretch:normal;font-size:2.46944451px;font-family:sans-serif;-inkscape-font-specification:'sans-serif, Normal';font-variant-ligatures:normal;font-variant-caps:normal;font-variant-numeric:normal;font-feature-settings:normal;text-align:start;writing-mode:lr-tb;text-anchor:start;stroke-width:0.26458332"
         id="path988" />
      <path
         d="m 26.016164,275.47973 h -0.266478 v 0.50522 h -0.23151 v -0.50522 h -0.859724 v -0.27733 l 0.86937,-1.01286 h 0.221864 v 1.09727 h 0.266478 z m -0.497988,-0.19292 v -0.81029 l -0.695738,0.81029 z"
         style="font-style:normal;font-variant:normal;font-weight:normal;font-stretch:normal;font-size:2.46944451px;font-family:sans-serif;-inkscape-font-specification:'sans-serif, Normal';font-variant-ligatures:normal;font-variant-caps:normal;font-variant-numeric:normal;font-feature-settings:normal;text-align:start;writing-mode:lr-tb;text-anchor:start;stroke-width:0.26458332"
         id="path990" />
      <path
         d="m 27.560773,275.48455 q 0,0.23272 -0.182074,0.38706 -0.180867,0.15434 -0.455786,0.15434 -0.2918,0 -0.465432,-0.15072 -0.172427,-0.15072 -0.172427,-0.38585 0,-0.14952 0.08682,-0.2701 0.08682,-0.12178 0.244774,-0.19292 v -0.007 q -0.144694,-0.0772 -0.214629,-0.16881 -0.06873,-0.0916 -0.06873,-0.2291 0,-0.20257 0.166398,-0.33762 0.166398,-0.13504 0.42323,-0.13504 0.26889,0 0.429259,0.12902 0.160369,0.12901 0.160369,0.32797 0,0.12178 -0.07596,0.23995 -0.07597,0.11696 -0.22307,0.18328 v 0.007 q 0.16881,0.0723 0.258038,0.17846 0.08923,0.10611 0.08923,0.27009 z m -0.285771,-0.8766 q 0,-0.12902 -0.10008,-0.20498 -0.09887,-0.0772 -0.253215,-0.0772 -0.151928,0 -0.249597,0.0723 -0.09646,0.0723 -0.09646,0.19534 0,0.0868 0.04823,0.15072 0.04944,0.0627 0.148311,0.11214 0.04461,0.0217 0.127813,0.0567 0.0844,0.035 0.163987,0.0579 0.119372,-0.0796 0.165192,-0.16519 0.04582,-0.0856 0.04582,-0.19775 z m 0.03738,0.89951 q 0,-0.11093 -0.04944,-0.17725 -0.04823,-0.0675 -0.190514,-0.13504 -0.05667,-0.0265 -0.124195,-0.0494 -0.06752,-0.0229 -0.179662,-0.0639 -0.108521,0.0591 -0.174839,0.16037 -0.06511,0.10129 -0.06511,0.2291 0,0.16278 0.112138,0.26889 0.112138,0.10611 0.284565,0.10611 0.176044,0 0.280947,-0.0904 0.106109,-0.0904 0.106109,-0.2484 z"
         style="font-style:normal;font-variant:normal;font-weight:normal;font-stretch:normal;font-size:2.46944451px;font-family:sans-serif;-inkscape-font-specification:'sans-serif, Normal';font-variant-ligatures:normal;font-variant-caps:normal;font-variant-numeric:normal;font-feature-settings:normal;text-align:start;writing-mode:lr-tb;text-anchor:start;stroke-width:0.26458332"
         id="path992" />
    </g>
    <g
       aria-label="hammondeggs"
       style="font-style:normal;font-variant:normal;font-weight:bold;font-stretch:normal;font-size:2.80348301px;line-height:1.25;font-family:Aharoni;-inkscape-font-specification:'Aharoni, Bold';font-variant-ligatures:normal;font-variant-caps:normal;font-variant-numeric:normal;font-feature-settings:normal;text-align:start;letter-spacing:0px;word-spacing:0px;writing-mode:lr-tb;text-anchor:start;fill:#000000;fill-opacity:1;stroke:none;stroke-width:0.07008708"
       id="text909"
       transform="translate(0.18708868,-3.6482292)">
      <path
         d="M 4.9123368,295.457 H 4.4633414 v -0.64338 q 0,-0.16974 -0.038329,-0.22449 -0.056124,-0.0808 -0.1683733,-0.0808 -0.1040355,0 -0.1724799,0.0698 -0.062969,0.0643 -0.062969,0.19849 v 0.68038 h -0.448995 v -2.05607 h 0.4489954 v 0.9459 q 0.078027,-0.0903 0.1437332,-0.1273 0.1081422,-0.0616 0.2669332,-0.0616 0.2025955,0 0.3340087,0.11224 0.1464711,0.12594 0.1464711,0.37782 z"
         style="font-style:normal;font-variant:normal;font-weight:bold;font-stretch:normal;font-size:2.80348301px;font-family:Aharoni;-inkscape-font-specification:'Aharoni, Bold';font-variant-ligatures:normal;font-variant-caps:normal;font-variant-numeric:normal;font-feature-settings:normal;text-align:start;writing-mode:lr-tb;text-anchor:start;stroke-width:0.07008708"
         id="path924"
         inkscape:connector-curvature="0" />
      <path
         d="M 6.6521937,295.457 H 6.2031983 v -0.14099 q -0.064338,0.0808 -0.1300444,0.11772 -0.1149866,0.0643 -0.2614576,0.0643 -0.2368177,0 -0.4216176,-0.1629 -0.220391,-0.19438 -0.220391,-0.5147 0,-0.3258 0.2258666,-0.52018 0.1793243,-0.15468 0.4120353,-0.15468 0.13552,0 0.2546132,0.0575 0.068445,0.0328 0.1409955,0.10814 v -0.12457 h 0.4489954 z m -0.4353065,-0.63516 q 0,-0.12047 -0.084871,-0.20397 -0.084871,-0.0849 -0.2053332,-0.0849 -0.134151,0 -0.220391,0.1013 -0.069813,0.0821 -0.069813,0.18754 0,0.1054 0.069813,0.18753 0.084871,0.1013 0.220391,0.1013 0.1218311,0 0.2053332,-0.0835 0.084871,-0.0835 0.084871,-0.20533 z"
         style="font-style:normal;font-variant:normal;font-weight:bold;font-stretch:normal;font-size:2.80348301px;font-family:Aharoni;-inkscape-font-specification:'Aharoni, Bold';font-variant-ligatures:normal;font-variant-caps:normal;font-variant-numeric:normal;font-feature-settings:normal;text-align:start;writing-mode:lr-tb;text-anchor:start;stroke-width:0.07008708"
         id="path926"
         inkscape:connector-curvature="0" />
      <path
         d="M 9.1107168,295.457 H 8.6617215 v -0.62832 q 0,-0.16427 -0.034222,-0.2245 -0.050649,-0.089 -0.1519466,-0.089 -0.1122489,0 -0.1724799,0.0972 -0.042436,0.0684 -0.042436,0.21628 V 295.457 H 7.8116419 v -0.62832 q 0,-0.16427 -0.027378,-0.21355 -0.054755,-0.0986 -0.1683732,-0.0986 -0.1054044,0 -0.1642666,0.0849 -0.021902,0.0301 -0.031484,0.0835 -0.00958,0.052 -0.00958,0.14373 V 295.457 H 6.9615623 v -1.27033 h 0.4489954 v 0.15606 q 0.079396,-0.0767 0.1451021,-0.11225 0.1190933,-0.0643 0.2655643,-0.0643 0.1875377,0 0.3121065,0.0972 0.062969,0.0493 0.1204622,0.13963 0.052018,-0.0849 0.1163555,-0.13415 0.1355199,-0.10404 0.3093687,-0.10404 0.1423644,0 0.2532443,0.0684 0.1190933,0.0753 0.1560533,0.20397 0.021902,0.078 0.021902,0.19438 z"
         style="font-style:normal;font-variant:normal;font-weight:bold;font-stretch:normal;font-size:2.80348301px;font-family:Aharoni;-inkscape-font-specification:'Aharoni, Bold';font-variant-ligatures:normal;font-variant-caps:normal;font-variant-numeric:normal;font-feature-settings:normal;text-align:start;writing-mode:lr-tb;text-anchor:start;stroke-width:0.07008708"
         id="path928"
         inkscape:connector-curvature="0" />
      <path
         d="m 11.56924,295.457 h -0.448995 v -0.62832 q 0,-0.16427 -0.03422,-0.2245 -0.05065,-0.089 -0.151947,-0.089 -0.112249,0 -0.17248,0.0972 -0.04244,0.0684 -0.04244,0.21628 v 0.62832 h -0.448995 v -0.62832 q 0,-0.16427 -0.02738,-0.21355 -0.05476,-0.0986 -0.168373,-0.0986 -0.1054042,0 -0.1642664,0.0849 -0.021902,0.0301 -0.031484,0.0835 -0.00958,0.052 -0.00958,0.14373 v 0.62836 h -0.448994 v -1.27033 h 0.4489953 v 0.15606 q 0.079396,-0.0767 0.1451021,-0.11225 0.119093,-0.0643 0.265564,-0.0643 0.187538,0 0.312107,0.0972 0.06297,0.0493 0.120462,0.13963 0.05202,-0.0849 0.116356,-0.13415 0.135519,-0.10404 0.309368,-0.10404 0.142365,0 0.253245,0.0684 0.119093,0.0753 0.156053,0.20397 0.0219,0.078 0.0219,0.19438 z"
         style="font-style:normal;font-variant:normal;font-weight:bold;font-stretch:normal;font-size:2.80348301px;font-family:Aharoni;-inkscape-font-specification:'Aharoni, Bold';font-variant-ligatures:normal;font-variant-caps:normal;font-variant-numeric:normal;font-feature-settings:normal;text-align:start;writing-mode:lr-tb;text-anchor:start;stroke-width:0.07008708"
         id="path930"
         inkscape:connector-curvature="0" />
      <path
         d="m 13.357008,294.82184 q 0,0.26419 -0.173849,0.4531 -0.210808,0.22997 -0.58999,0.22997 -0.380551,0 -0.59136,-0.22997 -0.173849,-0.18891 -0.173849,-0.46405 0,-0.24777 0.175218,-0.43942 0.212177,-0.23134 0.603679,-0.23134 0.360018,0 0.574933,0.23134 0.175218,0.18891 0.175218,0.45037 z m -0.466791,0 q 0,-0.1232 -0.08761,-0.20807 -0.08624,-0.0862 -0.209439,-0.0862 -0.139627,0 -0.227236,0.10403 -0.07118,0.0835 -0.07118,0.19028 0,0.10814 0.07118,0.19164 0.08761,0.10404 0.227236,0.10404 0.124568,0 0.210808,-0.0849 0.08624,-0.0862 0.08624,-0.21081 z"
         style="font-style:normal;font-variant:normal;font-weight:bold;font-stretch:normal;font-size:2.80348301px;font-family:Aharoni;-inkscape-font-specification:'Aharoni, Bold';font-variant-ligatures:normal;font-variant-caps:normal;font-variant-numeric:normal;font-feature-settings:normal;text-align:start;writing-mode:lr-tb;text-anchor:start;stroke-width:0.07008708"
         id="path932"
         inkscape:connector-curvature="0" />
      <path
         d="m 14.954501,295.457 h -0.448996 v -0.64338 q 0,-0.16837 -0.03833,-0.22313 -0.05612,-0.0808 -0.168373,-0.0808 -0.102666,0 -0.17248,0.0698 -0.06297,0.063 -0.06297,0.19712 v 0.68034 h -0.448995 v -1.27033 h 0.448995 v 0.16016 q 0.07803,-0.0903 0.143734,-0.1273 0.106773,-0.0602 0.266933,-0.0602 0.205333,0 0.334009,0.11088 0.146471,0.12594 0.146471,0.37782 z"
         style="font-style:normal;font-variant:normal;font-weight:bold;font-stretch:normal;font-size:2.80348301px;font-family:Aharoni;-inkscape-font-specification:'Aharoni, Bold';font-variant-ligatures:normal;font-variant-caps:normal;font-variant-numeric:normal;font-feature-settings:normal;text-align:start;writing-mode:lr-tb;text-anchor:start;stroke-width:0.07008708"
         id="path934"
         inkscape:connector-curvature="0" />
      <path
         d="m 16.694358,295.457 h -0.448995 v -0.14099 q -0.06434,0.0808 -0.130045,0.11772 -0.114986,0.0643 -0.261457,0.0643 -0.236818,0 -0.421618,-0.1629 -0.220391,-0.19438 -0.220391,-0.5147 0,-0.3258 0.225867,-0.52018 0.179324,-0.15468 0.412035,-0.15468 0.13552,0 0.254613,0.0575 0.06845,0.0328 0.140996,0.10814 v -0.91031 h 0.448995 z m -0.435306,-0.63516 q 0,-0.12047 -0.08487,-0.20397 -0.08487,-0.0849 -0.205333,-0.0849 -0.134151,0 -0.220391,0.1013 -0.06981,0.0821 -0.06981,0.18754 0,0.1054 0.06981,0.18753 0.08487,0.1013 0.220391,0.1013 0.121831,0 0.205333,-0.0835 0.08487,-0.0835 0.08487,-0.20533 z"
         style="font-style:normal;font-variant:normal;font-weight:bold;font-stretch:normal;font-size:2.80348301px;font-family:Aharoni;-inkscape-font-specification:'Aharoni, Bold';font-variant-ligatures:normal;font-variant-caps:normal;font-variant-numeric:normal;font-feature-settings:normal;text-align:start;writing-mode:lr-tb;text-anchor:start;stroke-width:0.07008708"
         id="path936"
         inkscape:connector-curvature="0" />
      <path
         d="m 18.352081,294.90397 h -0.944533 q 0,0.2861 0.276516,0.2861 0.140995,0 0.216284,-0.12046 h 0.433937 q -0.05202,0.17248 -0.153315,0.26693 -0.183431,0.17111 -0.491431,0.17111 -0.391502,0 -0.588622,-0.23819 -0.14784,-0.17795 -0.14784,-0.43393 0,-0.3039 0.1848,-0.49417 0.1848,-0.19028 0.521547,-0.19028 0.414773,0 0.592728,0.30116 0.09993,0.16974 0.09993,0.39424 z m -0.41888,-0.25735 q -0.04791,-0.21081 -0.255982,-0.21081 -0.114986,0 -0.186169,0.0671 -0.05612,0.0534 -0.07118,0.14373 z"
         style="font-style:normal;font-variant:normal;font-weight:bold;font-stretch:normal;font-size:2.80348301px;font-family:Aharoni;-inkscape-font-specification:'Aharoni, Bold';font-variant-ligatures:normal;font-variant-caps:normal;font-variant-numeric:normal;font-feature-settings:normal;text-align:start;writing-mode:lr-tb;text-anchor:start;stroke-width:0.07008708"
         id="path938"
         inkscape:connector-curvature="0" />
      <path
         d="m 20.030338,295.36939 q 0,0.16701 -0.02327,0.26967 -0.03696,0.16427 -0.191645,0.29431 -0.195751,0.16427 -0.520177,0.16427 -0.339484,0 -0.540711,-0.17932 -0.134151,-0.1191 -0.171111,-0.24914 -0.0041,-0.0137 -0.01095,-0.0575 h 0.50512 q 0.0219,0.063 0.05886,0.0903 0.06023,0.0452 0.153315,0.0452 0.156053,0 0.239556,-0.11088 0.05202,-0.0698 0.05202,-0.19986 v -0.12046 q -0.08076,0.0739 -0.13552,0.10403 -0.113617,0.063 -0.268302,0.063 -0.194382,0 -0.347697,-0.0999 -0.157422,-0.10267 -0.225867,-0.28062 -0.04654,-0.12046 -0.04654,-0.26146 0,-0.31211 0.198489,-0.50786 0.1848,-0.18206 0.444889,-0.18206 0.138257,0 0.246399,0.0561 0.06434,0.0342 0.134151,0.11224 v -0.13278 h 0.448996 z m -0.427093,-0.55166 q 0,-0.12183 -0.0835,-0.20944 -0.0835,-0.0876 -0.205333,-0.0876 -0.13552,0 -0.22176,0.10404 -0.06844,0.0835 -0.06844,0.19301 0,0.12183 0.0835,0.20944 0.08487,0.0862 0.206702,0.0862 0.120462,0 0.203965,-0.0862 0.08487,-0.0876 0.08487,-0.20944 z"
         style="font-style:normal;font-variant:normal;font-weight:bold;font-stretch:normal;font-size:2.80348301px;font-family:Aharoni;-inkscape-font-specification:'Aharoni, Bold';font-variant-ligatures:normal;font-variant-caps:normal;font-variant-numeric:normal;font-feature-settings:normal;text-align:start;writing-mode:lr-tb;text-anchor:start;stroke-width:0.07008708"
         id="path940"
         inkscape:connector-curvature="0" />
      <path
         d="m 21.760612,295.36939 q 0,0.16701 -0.02327,0.26967 -0.03696,0.16427 -0.191645,0.29431 -0.195751,0.16427 -0.520177,0.16427 -0.339484,0 -0.540711,-0.17932 -0.134151,-0.1191 -0.171111,-0.24914 -0.0041,-0.0137 -0.01095,-0.0575 h 0.50512 q 0.0219,0.063 0.05886,0.0903 0.06023,0.0452 0.153315,0.0452 0.156054,0 0.239556,-0.11088 0.05202,-0.0698 0.05202,-0.19986 v -0.12046 q -0.08076,0.0739 -0.13552,0.10403 -0.113618,0.063 -0.268302,0.063 -0.194383,0 -0.347698,-0.0999 -0.157422,-0.10267 -0.225867,-0.28062 -0.04654,-0.12046 -0.04654,-0.26146 0,-0.31211 0.198489,-0.50786 0.1848,-0.18206 0.444889,-0.18206 0.138257,0 0.2464,0.0561 0.06434,0.0342 0.134151,0.11224 v -0.13278 h 0.448995 z m -0.427093,-0.55166 q 0,-0.12183 -0.0835,-0.20944 -0.0835,-0.0876 -0.205334,-0.0876 -0.13552,0 -0.221759,0.10404 -0.06845,0.0835 -0.06845,0.19301 0,0.12183 0.0835,0.20944 0.08487,0.0862 0.206702,0.0862 0.120463,0 0.203965,-0.0862 0.08487,-0.0876 0.08487,-0.20944 z"
         style="font-style:normal;font-variant:normal;font-weight:bold;font-stretch:normal;font-size:2.80348301px;font-family:Aharoni;-inkscape-font-specification:'Aharoni, Bold';font-variant-ligatures:normal;font-variant-caps:normal;font-variant-numeric:normal;font-feature-settings:normal;text-align:start;writing-mode:lr-tb;text-anchor:start;stroke-width:0.07008708"
         id="path942"
         inkscape:connector-curvature="0" />
      <path
         d="m 23.102124,295.02854 q 0,0.20259 -0.145102,0.33127 -0.162898,0.1451 -0.458578,0.1451 -0.261458,0 -0.507857,-0.14647 l 0.162897,-0.31758 q 0.193014,0.12731 0.358649,0.12731 0.140995,0 0.140995,-0.0972 0,-0.0506 -0.04928,-0.078 -0.03148,-0.0178 -0.142365,-0.0424 -0.124569,-0.0274 -0.162898,-0.0424 -0.136888,-0.0534 -0.184799,-0.16701 -0.02601,-0.0616 -0.02601,-0.14784 0,-0.167 0.113617,-0.29157 0.146471,-0.16016 0.451733,-0.16016 0.212178,0 0.412036,0.0821 l -0.151947,0.29021 q -0.125937,-0.0643 -0.240924,-0.0643 -0.13552,0 -0.13552,0.0931 0,0.0424 0.05476,0.0685 0.02464,0.0123 0.145102,0.037 0.176586,0.037 0.260088,0.11772 0.105405,0.1013 0.105405,0.26283 z"
         style="font-style:normal;font-variant:normal;font-weight:bold;font-stretch:normal;font-size:2.80348301px;font-family:Aharoni;-inkscape-font-specification:'Aharoni, Bold';font-variant-ligatures:normal;font-variant-caps:normal;font-variant-numeric:normal;font-feature-settings:normal;text-align:start;writing-mode:lr-tb;text-anchor:start;stroke-width:0.07008708"
         id="path944"
         inkscape:connector-curvature="0" />
    </g>
    <g
       aria-label="v1.0"
       style="font-style:normal;font-weight:normal;font-size:1.68418849px;line-height:1.25;font-family:sans-serif;letter-spacing:0px;word-spacing:0px;fill:#000000;fill-opacity:1;stroke:none;stroke-width:0.04210471"
       id="text913"
       transform="translate(0.18708868,-3.1805075)">
      <path
         d="m 19.826918,291.44535 -0.371706,0.91857 h -0.155425 l -0.369239,-0.91857 h 0.167761 l 0.284536,0.73107 0.282069,-0.73107 z"
         style="stroke-width:0.04210471"
         id="path915"
         inkscape:connector-curvature="0" />
      <path
         d="m 20.768518,292.36392 h -0.662821 v -0.125 h 0.254931 v -0.82071 h -0.254931 v -0.11184 q 0.05181,0 0.111019,-0.008 0.05921,-0.009 0.08964,-0.0255 0.03783,-0.0206 0.05921,-0.0518 0.0222,-0.0321 0.02549,-0.0855 h 0.127466 v 1.1036 h 0.249997 z"
         style="stroke-width:0.04210471"
         id="path917"
         inkscape:connector-curvature="0" />
      <path
         d="m 21.354036,292.36392 h -0.196543 v -0.23437 h 0.196543 z"
         style="stroke-width:0.04210471"
         id="path919"
         inkscape:connector-curvature="0" />
      <path
         d="m 22.520962,291.75127 q 0,0.32976 -0.103617,0.48436 -0.102795,0.15379 -0.319897,0.15379 -0.220392,0 -0.322365,-0.15625 -0.10115,-0.15625 -0.10115,-0.48026 0,-0.32648 0.102795,-0.4819 0.102795,-0.15625 0.32072,-0.15625 0.220392,0 0.321542,0.15872 0.101972,0.15789 0.101972,0.47779 z m -0.21628,0.37335 q 0.02878,-0.0666 0.03865,-0.15625 0.01069,-0.0905 0.01069,-0.2171 0,-0.125 -0.01069,-0.21711 -0.0099,-0.0921 -0.03947,-0.15624 -0.02878,-0.0633 -0.07895,-0.0954 -0.04934,-0.0321 -0.127465,-0.0321 -0.0773,0 -0.128288,0.0321 -0.05016,0.0321 -0.07977,0.097 -0.02796,0.0608 -0.03865,0.15872 -0.0099,0.0979 -0.0099,0.21463 0,0.12829 0.009,0.21464 0.009,0.0863 0.03865,0.1546 0.02714,0.0641 0.07648,0.0979 0.05016,0.0337 0.1324,0.0337 0.0773,0 0.128287,-0.0321 0.05099,-0.0321 0.07895,-0.097 z"
         style="stroke-width:0.04210471"
         id="path921"
         inkscape:connector-curvature="0" />
    </g>
    <g
       aria-label="+"
       style="font-style:normal;font-weight:normal;font-size:1.40670824px;line-height:1.25;font-family:sans-serif;letter-spacing:0px;word-spacing:0px;fill:#000000;fill-opacity:1;stroke:none;stroke-width:0.03516771"
       id="text1656"
       transform="matrix(1.61285,0,0,1.61285,-5.630205,-159.44178)">
      <path
         d="M 10.049629,259.79009 H 9.6752854 v 0.37435 H 9.5612651 v -0.37435 H 9.1869214 v -0.10989 h 0.3743437 v -0.37435 h 0.1140203 v 0.37435 h 0.3743436 z"
         style="stroke-width:0.03516771"
         id="path1679"
         inkscape:connector-curvature="0" />
    </g>
    <g
       aria-label="-"
       transform="matrix(1.8484171,0,0,1.8043713,-1.1243277,-214.78683)"
       style="font-style:normal;font-weight:normal;font-size:1.88149142px;line-height:1.25;font-family:sans-serif;letter-spacing:0px;word-spacing:0px;display:inline;fill:#000000;fill-opacity:1;stroke:none;stroke-width:0.04703729"
       id="text1656-0">
      <path
         d="M 1.9176975,263.10384 H 1.3444306 v -0.16628 h 0.5732669 z"
         style="stroke-width:0.04703729"
         id="path1676"
         inkscape:connector-curvature="0" />
    </g>
  </g>
</svg>
