<?xml version="1.0" encoding="UTF-8" standalone="no"?>
<!-- Created with Inkscape (http://www.inkscape.org/) -->

<svg
   xmlns:dc="http://purl.org/dc/elements/1.1/"
   xmlns:cc="http://creativecommons.org/ns#"
   xmlns:rdf="http://www.w3.org/1999/02/22-rdf-syntax-ns#"
   xmlns:svg="http://www.w3.org/2000/svg"
   xmlns="http://www.w3.org/2000/svg"
   xmlns:sodipodi="http://sodipodi.sourceforge.net/DTD/sodipodi-0.dtd"
   xmlns:inkscape="http://www.inkscape.org/namespaces/inkscape"
   width="150"
   height="380"
   viewBox="0 0 39.687501 100.54167"
   version="1.1"
   id="svg8"
   inkscape:version="0.92.3 (2405546, 2018-03-11)"
   sodipodi:docname="COMBI.svg">
  <defs
     id="defs2" />
  <sodipodi:namedview
     id="base"
     pagecolor="#ffffff"
     bordercolor="#666666"
     borderopacity="1.0"
     inkscape:pageopacity="0.0"
     inkscape:pageshadow="2"
     inkscape:zoom="10.31544"
     inkscape:cx="74.599766"
     inkscape:cy="10.783379"
     inkscape:document-units="mm"
     inkscape:current-layer="layer1"
     showgrid="true"
     units="px"
     inkscape:snap-bbox="true"
     inkscape:snap-page="true"
     inkscape:bbox-nodes="false"
     inkscape:snap-bbox-edge-midpoints="false"
     inkscape:window-width="1680"
     inkscape:window-height="988"
     inkscape:window-x="-8"
     inkscape:window-y="-8"
     inkscape:window-maximized="1"
     inkscape:snap-global="false"
     inkscape:snap-grids="false"
     showguides="true"
     inkscape:measure-start="74.8393,-0.0969421"
     inkscape:measure-end="74.7423,19.5823">
    <inkscape:grid
       type="xygrid"
       id="grid98"
       spacingx="7.9375003"
       spacingy="7.9375003" />
  </sodipodi:namedview>
  <metadata
     id="metadata5">
    <rdf:RDF>
      <cc:Work
         rdf:about="">
        <dc:format>image/svg+xml</dc:format>
        <dc:type
           rdf:resource="http://purl.org/dc/dcmitype/StillImage" />
        <dc:title />
      </cc:Work>
    </rdf:RDF>
  </metadata>
  <g
     inkscape:label="Layer 1"
     inkscape:groupmode="layer"
     id="layer1"
     transform="translate(0,-196.45832)"
     style="display:inline">
    <path
       style="opacity:1;vector-effect:none;fill:#cccccc;fill-opacity:1;fill-rule:evenodd;stroke:none;stroke-width:0.6275146;stroke-linecap:butt;stroke-linejoin:round;stroke-miterlimit:4;stroke-dasharray:none;stroke-dashoffset:0;stroke-opacity:1;paint-order:normal"
       d="M 0.00741328,196.45831 H 39.694913 V 296.99999 H 0.00741328 Z"
       id="rect817"
       inkscape:connector-curvature="0" />
    <path
       style="fill:#ececec;stroke:none;stroke-width:0.34145704"
       d="M 0.0084516,203.54524 H 39.668394 v 1.00029 H 0.0084516 Z"
       id="rect110" />
    <path
       style="fill:#ececec;stroke:none;stroke-width:0.34157562"
       d="M -0.0127552,205.04097 H 39.674745 v 1.00029 H -0.0127552 Z"
       id="rect110-9" />
    <path
       style="fill:#ececec;stroke:none;stroke-width:0.34157568"
       d="M -0.01275603,206.57788 H 39.674744 v 1.00029 H -0.01275603 Z"
       id="rect110-1" />
    <path
       style="fill:#ececec;stroke:none;stroke-width:0.34142312"
       d="M 0.0163447,201.95918 H 39.668414 v 1.00029 H 0.0163447 Z"
       id="rect110-3" />
    <path
       style="fill:#ececec;stroke:none;stroke-width:0.34144762"
       d="M 0.0099639,208.1815 H 39.667732 v 1.00029 H 0.0099639 Z"
       id="rect110-2" />
    <path
       style="fill:#ececec;stroke:none;stroke-width:0.34157562"
       d="M 0.0238325,200.37054 H 39.711333 v 1.00029 H 0.0238325 Z"
       id="rect110-3-9"
       inkscape:connector-curvature="0" />
    <g
       style="font-style:normal;font-weight:normal;font-size:10.58333302px;line-height:1.25;font-family:sans-serif;letter-spacing:0px;word-spacing:0px;fill:#000000;fill-opacity:1;stroke:none;stroke-width:0.26458332"
       id="text4029" />
    <g
       style="font-style:normal;font-weight:normal;font-size:10.58333302px;line-height:1.25;font-family:sans-serif;letter-spacing:0px;word-spacing:0px;fill:#000000;fill-opacity:1;stroke:none;stroke-width:0.26458332"
       id="text3852" />
    <g
       style="font-style:normal;font-weight:normal;font-size:10.58333302px;line-height:1.25;font-family:sans-serif;letter-spacing:0px;word-spacing:0px;fill:#000000;fill-opacity:1;stroke:none;stroke-width:0.26458332"
       id="text4016" />
    <g
       style="font-style:normal;font-weight:normal;font-size:10.58333302px;line-height:1.25;font-family:sans-serif;letter-spacing:0px;word-spacing:0px;fill:#000000;fill-opacity:1;stroke:none;stroke-width:0.26458332"
       id="text4887" />
    <rect
       style="display:inline;fill:#808080;fill-opacity:1;stroke:#000000;stroke-width:0.35622618;stroke-linejoin:round;stroke-miterlimit:4;stroke-dasharray:none"
       id="rect937-1"
       width="39.463982"
       height="25.242628"
       x="0.11175899"
       y="233.28102" />
    <rect
       style="fill:#808080;fill-opacity:1;stroke:#000000;stroke-width:0.33284631;stroke-linejoin:round;stroke-miterlimit:4;stroke-dasharray:none"
       id="rect937"
       width="39.487362"
       height="22.024862"
       x="0.16621482"
       y="210.38286" />
    <path
       style="fill:none;stroke:#000000;stroke-width:0.26458332px;stroke-linecap:butt;stroke-linejoin:miter;stroke-opacity:1"
       d="m 11.707813,218.55102 3.175,-5.68854 2.38125,5.75469"
       id="path947"
       inkscape:connector-curvature="0" />
    <g
       aria-label="input"
       transform="rotate(-90)"
       style="font-style:normal;font-weight:normal;font-size:10.58333302px;line-height:1.25;font-family:sans-serif;letter-spacing:0px;word-spacing:0px;fill:#000000;fill-opacity:1;stroke:none;stroke-width:0.26458332"
       id="text81">
      <path
         d="m -229.55027,21.772403 h -0.40169 v -0.369487 h 0.40169 z m -0.0227,2.470822 h -0.35623 v -2.116494 h 0.35623 z"
         style="font-style:normal;font-variant:normal;font-weight:normal;font-stretch:normal;font-size:3.88055563px;font-family:sans-serif;-inkscape-font-specification:'sans-serif, Normal';font-variant-ligatures:normal;font-variant-caps:normal;font-variant-numeric:normal;font-feature-settings:normal;text-align:start;writing-mode:lr-tb;text-anchor:start;stroke-width:0.26458332"
         id="path3803" />
      <path
         d="m -227.0946,24.243225 h -0.35622 v -1.205094 q 0,-0.1459 -0.0171,-0.272852 -0.017,-0.128846 -0.0625,-0.200849 -0.0474,-0.07958 -0.13642,-0.117478 -0.0891,-0.03979 -0.23117,-0.03979 -0.1459,0 -0.30506,0.072 -0.15916,0.072 -0.30506,0.183796 v 1.580265 h -0.35623 v -2.116494 h 0.35623 v 0.234955 q 0.16674,-0.13832 0.34485,-0.216007 0.17811,-0.07769 0.3657,-0.07769 0.34296,0 0.52296,0.206533 0.18001,0.206534 0.18001,0.594968 z"
         style="font-style:normal;font-variant:normal;font-weight:normal;font-stretch:normal;font-size:3.88055563px;font-family:sans-serif;-inkscape-font-specification:'sans-serif, Normal';font-variant-ligatures:normal;font-variant-caps:normal;font-variant-numeric:normal;font-feature-settings:normal;text-align:start;writing-mode:lr-tb;text-anchor:start;stroke-width:0.26458332"
         id="path3805" />
      <path
         d="m -224.54609,23.159398 q 0,0.257693 -0.0739,0.471806 -0.0739,0.212218 -0.20843,0.360012 -0.12505,0.140216 -0.29559,0.217903 -0.16863,0.07579 -0.35811,0.07579 -0.16485,0 -0.29938,-0.036 -0.13264,-0.036 -0.27096,-0.111794 v 0.886768 h -0.35622 v -2.897153 h 0.35622 v 0.221692 q 0.14211,-0.119373 0.31833,-0.198955 0.17811,-0.08148 0.37896,-0.08148 0.38275,0 0.59497,0.289905 0.21411,0.28801 0.21411,0.801501 z m -0.36759,0.0095 q 0,-0.38275 -0.13075,-0.57223 -0.13074,-0.189481 -0.40169,-0.189481 -0.15348,0 -0.30886,0.06632 -0.15537,0.06632 -0.29748,0.174321 v 1.19941 q 0.15158,0.06821 0.25959,0.09285 0.1099,0.02463 0.24822,0.02463 0.29748,0 0.46422,-0.200849 0.16675,-0.200849 0.16675,-0.594968 z"
         style="font-style:normal;font-variant:normal;font-weight:normal;font-stretch:normal;font-size:3.88055563px;font-family:sans-serif;-inkscape-font-specification:'sans-serif, Normal';font-variant-ligatures:normal;font-variant-caps:normal;font-variant-numeric:normal;font-feature-settings:normal;text-align:start;writing-mode:lr-tb;text-anchor:start;stroke-width:0.26458332"
         id="path3807" />
      <path
         d="m -222.23633,24.243225 h -0.35622 V 24.00827 q -0.18001,0.14211 -0.34485,0.217902 -0.16485,0.07579 -0.36381,0.07579 -0.33348,0 -0.51917,-0.202744 -0.18569,-0.204639 -0.18569,-0.598758 v -1.373731 h 0.35622 v 1.205094 q 0,0.161058 0.0152,0.276641 0.0152,0.113688 0.0644,0.195165 0.0512,0.08337 0.13264,0.121267 0.0815,0.0379 0.23685,0.0379 0.13832,0 0.30127,-0.072 0.16485,-0.072 0.30696,-0.183796 v -1.580265 h 0.35622 z"
         style="font-style:normal;font-variant:normal;font-weight:normal;font-stretch:normal;font-size:3.88055563px;font-family:sans-serif;-inkscape-font-specification:'sans-serif, Normal';font-variant-ligatures:normal;font-variant-caps:normal;font-variant-numeric:normal;font-feature-settings:normal;text-align:start;writing-mode:lr-tb;text-anchor:start;stroke-width:0.26458332"
         id="path3809" />
      <path
         d="m -220.43626,24.224277 q -0.10043,0.02653 -0.2198,0.04358 -0.11748,0.01705 -0.21033,0.01705 -0.32401,0 -0.49264,-0.174322 -0.16864,-0.174322 -0.16864,-0.558967 v -1.125513 h -0.24064 v -0.299378 h 0.24064 v -0.608232 h 0.35622 v 0.608232 h 0.73519 v 0.299378 h -0.73519 v 0.964455 q 0,0.166743 0.008,0.261483 0.008,0.09285 0.0531,0.174322 0.0417,0.07579 0.11368,0.111793 0.0739,0.03411 0.22359,0.03411 0.0872,0 0.1819,-0.02463 0.0947,-0.02653 0.13643,-0.04358 h 0.0189 z"
         style="font-style:normal;font-variant:normal;font-weight:normal;font-stretch:normal;font-size:3.88055563px;font-family:sans-serif;-inkscape-font-specification:'sans-serif, Normal';font-variant-ligatures:normal;font-variant-caps:normal;font-variant-numeric:normal;font-feature-settings:normal;text-align:start;writing-mode:lr-tb;text-anchor:start;stroke-width:0.26458332"
         id="path3811" />
    </g>
    <g
       aria-label="output"
       transform="rotate(-90)"
       style="font-style:normal;font-weight:normal;font-size:10.58333302px;line-height:1.25;font-family:sans-serif;letter-spacing:0px;word-spacing:0px;fill:#000000;fill-opacity:1;stroke:none;stroke-width:0.26458332"
       id="text85">
      <path
         d="m -230.32507,32.277703 q 0,0.517281 -0.26527,0.81666 -0.26528,0.299379 -0.71055,0.299379 -0.44907,0 -0.71435,-0.299379 -0.26337,-0.299379 -0.26337,-0.81666 0,-0.517281 0.26337,-0.81666 0.26528,-0.301273 0.71435,-0.301273 0.44527,0 0.71055,0.301273 0.26527,0.299379 0.26527,0.81666 z m -0.36759,0 q 0,-0.411172 -0.16106,-0.610126 -0.16106,-0.200849 -0.44717,-0.200849 -0.28991,0 -0.45097,0.200849 -0.15916,0.198954 -0.15916,0.610126 0,0.397909 0.16106,0.604442 0.16106,0.204639 0.44907,0.204639 0.28422,0 0.44527,-0.202744 0.16296,-0.204639 0.16296,-0.606337 z"
         style="font-style:normal;font-variant:normal;font-weight:normal;font-stretch:normal;font-size:3.88055563px;font-family:sans-serif;-inkscape-font-specification:'sans-serif, Normal';font-variant-ligatures:normal;font-variant-caps:normal;font-variant-numeric:normal;font-feature-settings:normal;text-align:start;writing-mode:lr-tb;text-anchor:start;stroke-width:0.26458332"
         id="path3790" />
      <path
         d="m -228.0172,33.335003 h -0.35622 v -0.234956 q -0.18001,0.142111 -0.34486,0.217903 -0.16485,0.07579 -0.3638,0.07579 -0.33349,0 -0.51918,-0.202744 -0.18569,-0.204639 -0.18569,-0.598758 v -1.373732 h 0.35623 v 1.205095 q 0,0.161058 0.0152,0.276641 0.0152,0.113688 0.0644,0.195165 0.0512,0.08337 0.13263,0.121267 0.0815,0.0379 0.23685,0.0379 0.13832,0 0.30128,-0.072 0.16485,-0.072 0.30696,-0.183796 v -1.580266 h 0.35622 z"
         style="font-style:normal;font-variant:normal;font-weight:normal;font-stretch:normal;font-size:3.88055563px;font-family:sans-serif;-inkscape-font-specification:'sans-serif, Normal';font-variant-ligatures:normal;font-variant-caps:normal;font-variant-numeric:normal;font-feature-settings:normal;text-align:start;writing-mode:lr-tb;text-anchor:start;stroke-width:0.26458332"
         id="path3792" />
      <path
         d="m -226.21714,33.316055 q -0.10042,0.02653 -0.2198,0.04358 -0.11747,0.01705 -0.21032,0.01705 -0.32401,0 -0.49265,-0.174322 -0.16864,-0.174322 -0.16864,-0.558967 v -1.125513 h -0.24064 v -0.299379 h 0.24064 v -0.608231 h 0.35623 v 0.608231 h 0.73518 v 0.299379 h -0.73518 v 0.964455 q 0,0.166742 0.008,0.261483 0.008,0.09284 0.053,0.174321 0.0417,0.07579 0.11369,0.111794 0.0739,0.03411 0.22359,0.03411 0.0872,0 0.1819,-0.02463 0.0947,-0.02653 0.13642,-0.04358 h 0.0189 z"
         style="font-style:normal;font-variant:normal;font-weight:normal;font-stretch:normal;font-size:3.88055563px;font-family:sans-serif;-inkscape-font-specification:'sans-serif, Normal';font-variant-ligatures:normal;font-variant-caps:normal;font-variant-numeric:normal;font-feature-settings:normal;text-align:start;writing-mode:lr-tb;text-anchor:start;stroke-width:0.26458332"
         id="path3794" />
      <path
         d="m -223.92253,32.251176 q 0,0.257693 -0.0739,0.471806 -0.0739,0.212218 -0.20843,0.360012 -0.12506,0.140216 -0.29559,0.217902 -0.16864,0.07579 -0.35812,0.07579 -0.16484,0 -0.29937,-0.036 -0.13264,-0.036 -0.27096,-0.111793 v 0.886768 h -0.35622 v -2.897154 h 0.35622 V 31.4402 q 0.14211,-0.119372 0.31833,-0.198954 0.17811,-0.08148 0.37896,-0.08148 0.38275,0 0.59496,0.289904 0.21412,0.28801 0.21412,0.801502 z m -0.36759,0.0095 q 0,-0.38275 -0.13075,-0.572231 -0.13074,-0.18948 -0.40169,-0.18948 -0.15348,0 -0.30886,0.06632 -0.15537,0.06632 -0.29748,0.174322 v 1.19941 q 0.15158,0.06821 0.25959,0.09285 0.1099,0.02463 0.24822,0.02463 0.29748,0 0.46422,-0.200849 0.16675,-0.200849 0.16675,-0.594968 z"
         style="font-style:normal;font-variant:normal;font-weight:normal;font-stretch:normal;font-size:3.88055563px;font-family:sans-serif;-inkscape-font-specification:'sans-serif, Normal';font-variant-ligatures:normal;font-variant-caps:normal;font-variant-numeric:normal;font-feature-settings:normal;text-align:start;writing-mode:lr-tb;text-anchor:start;stroke-width:0.26458332"
         id="path3796" />
      <path
         d="m -221.61277,33.335003 h -0.35622 v -0.234956 q -0.18001,0.142111 -0.34486,0.217903 -0.16484,0.07579 -0.3638,0.07579 -0.33348,0 -0.51917,-0.202744 -0.18569,-0.204639 -0.18569,-0.598758 v -1.373732 h 0.35622 v 1.205095 q 0,0.161058 0.0152,0.276641 0.0152,0.113688 0.0644,0.195165 0.0512,0.08337 0.13264,0.121267 0.0815,0.0379 0.23685,0.0379 0.13832,0 0.30127,-0.072 0.16485,-0.072 0.30696,-0.183796 v -1.580266 h 0.35622 z"
         style="font-style:normal;font-variant:normal;font-weight:normal;font-stretch:normal;font-size:3.88055563px;font-family:sans-serif;-inkscape-font-specification:'sans-serif, Normal';font-variant-ligatures:normal;font-variant-caps:normal;font-variant-numeric:normal;font-feature-settings:normal;text-align:start;writing-mode:lr-tb;text-anchor:start;stroke-width:0.26458332"
         id="path3798" />
      <path
         d="m -219.81271,33.316055 q -0.10042,0.02653 -0.21979,0.04358 -0.11748,0.01705 -0.21033,0.01705 -0.32401,0 -0.49265,-0.174322 -0.16863,-0.174322 -0.16863,-0.558967 v -1.125513 h -0.24064 v -0.299379 h 0.24064 v -0.608231 h 0.35622 v 0.608231 h 0.73518 v 0.299379 h -0.73518 v 0.964455 q 0,0.166742 0.008,0.261483 0.008,0.09284 0.0531,0.174321 0.0417,0.07579 0.11369,0.111794 0.0739,0.03411 0.22359,0.03411 0.0872,0 0.1819,-0.02463 0.0947,-0.02653 0.13643,-0.04358 h 0.0189 z"
         style="font-style:normal;font-variant:normal;font-weight:normal;font-stretch:normal;font-size:3.88055563px;font-family:sans-serif;-inkscape-font-specification:'sans-serif, Normal';font-variant-ligatures:normal;font-variant-caps:normal;font-variant-numeric:normal;font-feature-settings:normal;text-align:start;writing-mode:lr-tb;text-anchor:start;stroke-width:0.26458332"
         id="path3800" />
    </g>
    <g
       aria-label="input"
       transform="rotate(-90,11.79129,11.745989)"
       style="font-style:normal;font-weight:normal;font-size:10.58333302px;line-height:1.25;font-family:sans-serif;letter-spacing:0px;word-spacing:0px;display:inline;fill:#000000;fill-opacity:1;stroke:none;stroke-width:0.26458332"
       id="text81-3">
      <path
         inkscape:connector-curvature="0"
         d="m -229.55027,21.772403 h -0.40169 v -0.369487 h 0.40169 z m -0.0227,2.470822 h -0.35623 v -2.116494 h 0.35623 z"
         style="font-style:normal;font-variant:normal;font-weight:normal;font-stretch:normal;font-size:3.88055563px;font-family:sans-serif;-inkscape-font-specification:'sans-serif, Normal';font-variant-ligatures:normal;font-variant-caps:normal;font-variant-numeric:normal;font-feature-settings:normal;text-align:start;writing-mode:lr-tb;text-anchor:start;stroke-width:0.26458332"
         id="path3803-9" />
      <path
         inkscape:connector-curvature="0"
         d="m -227.0946,24.243225 h -0.35622 v -1.205094 q 0,-0.1459 -0.0171,-0.272852 -0.017,-0.128846 -0.0625,-0.200849 -0.0474,-0.07958 -0.13642,-0.117478 -0.0891,-0.03979 -0.23117,-0.03979 -0.1459,0 -0.30506,0.072 -0.15916,0.072 -0.30506,0.183796 v 1.580265 h -0.35623 v -2.116494 h 0.35623 v 0.234955 q 0.16674,-0.13832 0.34485,-0.216007 0.17811,-0.07769 0.3657,-0.07769 0.34296,0 0.52296,0.206533 0.18001,0.206534 0.18001,0.594968 z"
         style="font-style:normal;font-variant:normal;font-weight:normal;font-stretch:normal;font-size:3.88055563px;font-family:sans-serif;-inkscape-font-specification:'sans-serif, Normal';font-variant-ligatures:normal;font-variant-caps:normal;font-variant-numeric:normal;font-feature-settings:normal;text-align:start;writing-mode:lr-tb;text-anchor:start;stroke-width:0.26458332"
         id="path3805-3" />
      <path
         inkscape:connector-curvature="0"
         d="m -224.54609,23.159398 q 0,0.257693 -0.0739,0.471806 -0.0739,0.212218 -0.20843,0.360012 -0.12505,0.140216 -0.29559,0.217903 -0.16863,0.07579 -0.35811,0.07579 -0.16485,0 -0.29938,-0.036 -0.13264,-0.036 -0.27096,-0.111794 v 0.886768 h -0.35622 V 22.12673 h 0.35622 v 0.221692 q 0.14211,-0.119373 0.31833,-0.198955 0.17811,-0.08148 0.37896,-0.08148 0.38275,0 0.59497,0.289905 0.21411,0.28801 0.21411,0.801501 z m -0.36759,0.0095 q 0,-0.38275 -0.13075,-0.57223 -0.13074,-0.189481 -0.40169,-0.189481 -0.15348,0 -0.30886,0.06632 -0.15537,0.06632 -0.29748,0.174321 v 1.19941 q 0.15158,0.06821 0.25959,0.09285 0.1099,0.02463 0.24822,0.02463 0.29748,0 0.46422,-0.200849 0.16675,-0.200849 0.16675,-0.594968 z"
         style="font-style:normal;font-variant:normal;font-weight:normal;font-stretch:normal;font-size:3.88055563px;font-family:sans-serif;-inkscape-font-specification:'sans-serif, Normal';font-variant-ligatures:normal;font-variant-caps:normal;font-variant-numeric:normal;font-feature-settings:normal;text-align:start;writing-mode:lr-tb;text-anchor:start;stroke-width:0.26458332"
         id="path3807-6" />
      <path
         inkscape:connector-curvature="0"
         d="m -222.23633,24.243225 h -0.35622 V 24.00827 q -0.18001,0.14211 -0.34485,0.217902 -0.16485,0.07579 -0.36381,0.07579 -0.33348,0 -0.51917,-0.202744 -0.18569,-0.204639 -0.18569,-0.598758 v -1.373731 h 0.35622 v 1.205094 q 0,0.161058 0.0152,0.276641 0.0152,0.113688 0.0644,0.195165 0.0512,0.08337 0.13264,0.121267 0.0815,0.0379 0.23685,0.0379 0.13832,0 0.30127,-0.072 0.16485,-0.072 0.30696,-0.183796 v -1.580265 h 0.35622 z"
         style="font-style:normal;font-variant:normal;font-weight:normal;font-stretch:normal;font-size:3.88055563px;font-family:sans-serif;-inkscape-font-specification:'sans-serif, Normal';font-variant-ligatures:normal;font-variant-caps:normal;font-variant-numeric:normal;font-feature-settings:normal;text-align:start;writing-mode:lr-tb;text-anchor:start;stroke-width:0.26458332"
         id="path3809-9" />
      <path
         inkscape:connector-curvature="0"
         d="m -220.43626,24.224277 q -0.10043,0.02653 -0.2198,0.04358 -0.11748,0.01705 -0.21033,0.01705 -0.32401,0 -0.49264,-0.174322 -0.16864,-0.174322 -0.16864,-0.558967 v -1.125513 h -0.24064 v -0.299378 h 0.24064 v -0.608232 h 0.35622 v 0.608232 h 0.73519 v 0.299378 h -0.73519 v 0.964455 q 0,0.166743 0.008,0.261483 0.008,0.09285 0.0531,0.174322 0.0417,0.07579 0.11368,0.111793 0.0739,0.03411 0.22359,0.03411 0.0872,0 0.1819,-0.02463 0.0947,-0.02653 0.13643,-0.04358 h 0.0189 z"
         style="font-style:normal;font-variant:normal;font-weight:normal;font-stretch:normal;font-size:3.88055563px;font-family:sans-serif;-inkscape-font-specification:'sans-serif, Normal';font-variant-ligatures:normal;font-variant-caps:normal;font-variant-numeric:normal;font-feature-settings:normal;text-align:start;writing-mode:lr-tb;text-anchor:start;stroke-width:0.26458332"
         id="path3811-0" />
    </g>
    <g
       aria-label="output"
       transform="rotate(-90,11.79129,11.745989)"
       style="font-style:normal;font-weight:normal;font-size:10.58333302px;line-height:1.25;font-family:sans-serif;letter-spacing:0px;word-spacing:0px;display:inline;fill:#000000;fill-opacity:1;stroke:none;stroke-width:0.26458332"
       id="text85-1">
      <path
         inkscape:connector-curvature="0"
         d="m -230.32507,32.277703 q 0,0.517281 -0.26527,0.81666 -0.26528,0.299379 -0.71055,0.299379 -0.44907,0 -0.71435,-0.299379 -0.26337,-0.299379 -0.26337,-0.81666 0,-0.517281 0.26337,-0.81666 0.26528,-0.301273 0.71435,-0.301273 0.44527,0 0.71055,0.301273 0.26527,0.299379 0.26527,0.81666 z m -0.36759,0 q 0,-0.411172 -0.16106,-0.610126 -0.16106,-0.200849 -0.44717,-0.200849 -0.28991,0 -0.45097,0.200849 -0.15916,0.198954 -0.15916,0.610126 0,0.397909 0.16106,0.604442 0.16106,0.204639 0.44907,0.204639 0.28422,0 0.44527,-0.202744 0.16296,-0.204639 0.16296,-0.606337 z"
         style="font-style:normal;font-variant:normal;font-weight:normal;font-stretch:normal;font-size:3.88055563px;font-family:sans-serif;-inkscape-font-specification:'sans-serif, Normal';font-variant-ligatures:normal;font-variant-caps:normal;font-variant-numeric:normal;font-feature-settings:normal;text-align:start;writing-mode:lr-tb;text-anchor:start;stroke-width:0.26458332"
         id="path3790-7" />
      <path
         inkscape:connector-curvature="0"
         d="m -228.0172,33.335003 h -0.35622 v -0.234956 q -0.18001,0.142111 -0.34486,0.217903 -0.16485,0.07579 -0.3638,0.07579 -0.33349,0 -0.51918,-0.202744 -0.18569,-0.204639 -0.18569,-0.598758 v -1.373732 h 0.35623 v 1.205095 q 0,0.161058 0.0152,0.276641 0.0152,0.113688 0.0644,0.195165 0.0512,0.08337 0.13263,0.121267 0.0815,0.0379 0.23685,0.0379 0.13832,0 0.30128,-0.072 0.16485,-0.072 0.30696,-0.183796 v -1.580266 h 0.35622 z"
         style="font-style:normal;font-variant:normal;font-weight:normal;font-stretch:normal;font-size:3.88055563px;font-family:sans-serif;-inkscape-font-specification:'sans-serif, Normal';font-variant-ligatures:normal;font-variant-caps:normal;font-variant-numeric:normal;font-feature-settings:normal;text-align:start;writing-mode:lr-tb;text-anchor:start;stroke-width:0.26458332"
         id="path3792-9" />
      <path
         inkscape:connector-curvature="0"
         d="m -226.21714,33.316055 q -0.10042,0.02653 -0.2198,0.04358 -0.11747,0.01705 -0.21032,0.01705 -0.32401,0 -0.49265,-0.174322 -0.16864,-0.174322 -0.16864,-0.558967 v -1.125513 h -0.24064 v -0.299379 h 0.24064 v -0.608231 h 0.35623 v 0.608231 h 0.73518 v 0.299379 h -0.73518 v 0.964455 q 0,0.166742 0.008,0.261483 0.008,0.09284 0.053,0.174321 0.0417,0.07579 0.11369,0.111794 0.0739,0.03411 0.22359,0.03411 0.0872,0 0.1819,-0.02463 0.0947,-0.02653 0.13642,-0.04358 h 0.0189 z"
         style="font-style:normal;font-variant:normal;font-weight:normal;font-stretch:normal;font-size:3.88055563px;font-family:sans-serif;-inkscape-font-specification:'sans-serif, Normal';font-variant-ligatures:normal;font-variant-caps:normal;font-variant-numeric:normal;font-feature-settings:normal;text-align:start;writing-mode:lr-tb;text-anchor:start;stroke-width:0.26458332"
         id="path3794-2" />
      <path
         inkscape:connector-curvature="0"
         d="m -223.92253,32.251176 q 0,0.257693 -0.0739,0.471806 -0.0739,0.212218 -0.20843,0.360012 -0.12506,0.140216 -0.29559,0.217902 -0.16864,0.07579 -0.35812,0.07579 -0.16484,0 -0.29937,-0.036 -0.13264,-0.036 -0.27096,-0.111793 v 0.886768 h -0.35622 v -2.897154 h 0.35622 V 31.4402 q 0.14211,-0.119372 0.31833,-0.198954 0.17811,-0.08148 0.37896,-0.08148 0.38275,0 0.59496,0.289904 0.21412,0.28801 0.21412,0.801502 z m -0.36759,0.0095 q 0,-0.38275 -0.13075,-0.572231 -0.13074,-0.18948 -0.40169,-0.18948 -0.15348,0 -0.30886,0.06632 -0.15537,0.06632 -0.29748,0.174322 v 1.19941 q 0.15158,0.06821 0.25959,0.09285 0.1099,0.02463 0.24822,0.02463 0.29748,0 0.46422,-0.200849 0.16675,-0.200849 0.16675,-0.594968 z"
         style="font-style:normal;font-variant:normal;font-weight:normal;font-stretch:normal;font-size:3.88055563px;font-family:sans-serif;-inkscape-font-specification:'sans-serif, Normal';font-variant-ligatures:normal;font-variant-caps:normal;font-variant-numeric:normal;font-feature-settings:normal;text-align:start;writing-mode:lr-tb;text-anchor:start;stroke-width:0.26458332"
         id="path3796-2" />
      <path
         inkscape:connector-curvature="0"
         d="m -221.61277,33.335003 h -0.35622 v -0.234956 q -0.18001,0.142111 -0.34486,0.217903 -0.16484,0.07579 -0.3638,0.07579 -0.33348,0 -0.51917,-0.202744 -0.18569,-0.204639 -0.18569,-0.598758 v -1.373732 h 0.35622 v 1.205095 q 0,0.161058 0.0152,0.276641 0.0152,0.113688 0.0644,0.195165 0.0512,0.08337 0.13264,0.121267 0.0815,0.0379 0.23685,0.0379 0.13832,0 0.30127,-0.072 0.16485,-0.072 0.30696,-0.183796 v -1.580266 h 0.35622 z"
         style="font-style:normal;font-variant:normal;font-weight:normal;font-stretch:normal;font-size:3.88055563px;font-family:sans-serif;-inkscape-font-specification:'sans-serif, Normal';font-variant-ligatures:normal;font-variant-caps:normal;font-variant-numeric:normal;font-feature-settings:normal;text-align:start;writing-mode:lr-tb;text-anchor:start;stroke-width:0.26458332"
         id="path3798-2" />
      <path
         inkscape:connector-curvature="0"
         d="m -219.81271,33.316055 q -0.10042,0.02653 -0.21979,0.04358 -0.11748,0.01705 -0.21033,0.01705 -0.32401,0 -0.49265,-0.174322 -0.16863,-0.174322 -0.16863,-0.558967 v -1.125513 h -0.24064 v -0.299379 h 0.24064 v -0.608231 h 0.35622 v 0.608231 h 0.73518 v 0.299379 h -0.73518 v 0.964455 q 0,0.166742 0.008,0.261483 0.008,0.09284 0.0531,0.174321 0.0417,0.07579 0.11369,0.111794 0.0739,0.03411 0.22359,0.03411 0.0872,0 0.1819,-0.02463 0.0947,-0.02653 0.13643,-0.04358 h 0.0189 z"
         style="font-style:normal;font-variant:normal;font-weight:normal;font-stretch:normal;font-size:3.88055563px;font-family:sans-serif;-inkscape-font-specification:'sans-serif, Normal';font-variant-ligatures:normal;font-variant-caps:normal;font-variant-numeric:normal;font-feature-settings:normal;text-align:start;writing-mode:lr-tb;text-anchor:start;stroke-width:0.26458332"
         id="path3800-6" />
    </g>
    <g
       aria-label="combi"
       style="font-style:normal;font-weight:normal;font-size:10.58333302px;line-height:1.25;font-family:sans-serif;letter-spacing:0px;word-spacing:0px;fill:#000000;fill-opacity:1;stroke:none;stroke-width:0.26458332"
       id="text139">
      <path
         d="m 9.8846666,208.12892 q -0.5270996,0.26355 -1.1058756,0.26355 -1.3125813,0 -2.0825601,-0.88884 -0.6201172,-0.7183 -0.6201172,-1.66398 0,-0.95085 0.6201172,-1.66398 0.7699788,-0.88884 2.0825601,-0.88884 0.5891113,0 1.1058756,0.26872 v 1.44177 q -0.4495849,-0.31522 -0.8784993,-0.31522 -0.506429,0 -0.8371582,0.32556 -0.3307291,0.32556 -0.3307291,0.83199 0,0.50643 0.3307291,0.83199 0.3307292,0.32556 0.8371582,0.32556 0.4237467,0 0.8784993,-0.31006 z"
         style="font-style:normal;font-variant:normal;font-weight:bold;font-stretch:normal;font-size:10.58333302px;font-family:Aharoni;-inkscape-font-specification:'Aharoni, Bold';font-variant-ligatures:normal;font-variant-caps:normal;font-variant-numeric:normal;font-feature-settings:normal;text-align:start;writing-mode:lr-tb;text-anchor:start;stroke-width:0.26458332"
         id="path141" />
      <path
         d="m 16.437238,205.83448 q 0,0.99736 -0.65629,1.71049 -0.795818,0.86817 -2.227255,0.86817 -1.436604,0 -2.232421,-0.86817 -0.656291,-0.71313 -0.656291,-1.75183 0,-0.93534 0.661458,-1.65881 0.800985,-0.87333 2.278931,-0.87333 1.35909,0 2.17041,0.87333 0.661458,0.71313 0.661458,1.70015 z m -1.762166,0 q 0,-0.46508 -0.330729,-0.78548 -0.325562,-0.32556 -0.79065,-0.32556 -0.527099,0 -0.857828,0.39274 -0.268718,0.31523 -0.268718,0.7183 0,0.40825 0.268718,0.72347 0.330729,0.39274 0.857828,0.39274 0.470256,0 0.795817,-0.32039 0.325562,-0.32556 0.325562,-0.79582 z"
         style="font-style:normal;font-variant:normal;font-weight:bold;font-stretch:normal;font-size:10.58333302px;font-family:Aharoni;-inkscape-font-specification:'Aharoni, Bold';font-variant-ligatures:normal;font-variant-caps:normal;font-variant-numeric:normal;font-feature-settings:normal;text-align:start;writing-mode:lr-tb;text-anchor:start;stroke-width:0.26458332"
         id="path143" />
      <path
         d="m 25.521955,208.23227 h -1.694987 v -2.37195 q 0,-0.62012 -0.129191,-0.84749 -0.191203,-0.3359 -0.573609,-0.3359 -0.423747,0 -0.651123,0.3669 -0.160197,0.25839 -0.160197,0.81649 v 2.37195 h -1.694987 v -2.37195 q 0,-0.62012 -0.103353,-0.80615 -0.206705,-0.37207 -0.63562,-0.37207 -0.397908,0 -0.620117,0.32039 -0.08268,0.11369 -0.118856,0.31523 -0.03617,0.19637 -0.03617,0.5426 v 2.37195 h -1.694987 v -4.79557 h 1.694987 v 0.58911 q 0.299723,-0.28939 0.54777,-0.42375 0.449585,-0.24288 1.002523,-0.24288 0.707967,0 1.178222,0.3669 0.237712,0.18604 0.454753,0.5271 0.19637,-0.32039 0.43925,-0.50642 0.511596,-0.39275 1.167887,-0.39275 0.537435,0 0.956014,0.25839 0.449585,0.28422 0.589111,0.76998 0.08268,0.29455 0.08268,0.7338 z"
         style="font-style:normal;font-variant:normal;font-weight:bold;font-stretch:normal;font-size:10.58333302px;font-family:Aharoni;-inkscape-font-specification:'Aharoni, Bold';font-variant-ligatures:normal;font-variant-caps:normal;font-variant-numeric:normal;font-feature-settings:normal;text-align:start;writing-mode:lr-tb;text-anchor:start;stroke-width:0.26458332"
         id="path145" />
      <path
         d="m 32.286399,205.82932 q 0,1.20922 -0.83199,1.94303 -0.697632,0.61495 -1.591634,0.61495 -0.552938,0 -0.98702,-0.24288 -0.26355,-0.14469 -0.490926,-0.44442 v 0.53227 h -1.694987 v -7.7618 h 1.694987 v 3.43648 q 0.273885,-0.28422 0.532267,-0.40824 0.449585,-0.21704 0.961182,-0.21704 0.878499,0 1.55546,0.58394 0.852661,0.73381 0.852661,1.96371 z m -1.762166,0.005 q 0,-0.39791 -0.26355,-0.70796 -0.325561,-0.38241 -0.83199,-0.38241 -0.454753,0 -0.775147,0.32039 -0.320394,0.31523 -0.320394,0.76998 0,0.45476 0.320394,0.77515 0.320394,0.31523 0.775147,0.31523 0.511596,0 0.83199,-0.38241 0.26355,-0.31523 0.26355,-0.70797 z"
         style="font-style:normal;font-variant:normal;font-weight:bold;font-stretch:normal;font-size:10.58333302px;font-family:Aharoni;-inkscape-font-specification:'Aharoni, Bold';font-variant-ligatures:normal;font-variant-caps:normal;font-variant-numeric:normal;font-feature-settings:normal;text-align:start;writing-mode:lr-tb;text-anchor:start;stroke-width:0.26458332"
         id="path147" />
      <path
         d="m 35.061424,201.59185 q 0,0.40307 -0.279053,0.68213 -0.273885,0.27388 -0.676961,0.27388 -0.397909,0 -0.676961,-0.27905 -0.273885,-0.27905 -0.273885,-0.67696 0,-0.39791 0.273885,-0.6718 0.279052,-0.27905 0.676961,-0.27905 0.397908,0 0.676961,0.27905 0.279053,0.27389 0.279053,0.6718 z m -0.108521,6.64042 h -1.694987 v -4.79557 h 1.694987 z"
         style="font-style:normal;font-variant:normal;font-weight:bold;font-stretch:normal;font-size:10.58333302px;font-family:Aharoni;-inkscape-font-specification:'Aharoni, Bold';font-variant-ligatures:normal;font-variant-caps:normal;font-variant-numeric:normal;font-feature-settings:normal;text-align:start;writing-mode:lr-tb;text-anchor:start;stroke-width:0.26458332"
         id="path149" />
    </g>
    <g
       aria-label="combi out"
       transform="rotate(-90,-1.7528646,1.7528646)"
       style="font-style:normal;font-weight:normal;font-size:10.58333302px;line-height:1.25;font-family:sans-serif;letter-spacing:0px;word-spacing:0px;fill:#000000;fill-opacity:1;stroke:none;stroke-width:0.26458332"
       id="text162">
      <path
         d="m -285.11692,33.79992 q -0.17811,0.08527 -0.33917,0.132636 -0.15916,0.04737 -0.33917,0.04737 -0.22927,0 -0.42064,-0.06632 -0.19138,-0.06821 -0.3278,-0.204639 -0.13832,-0.136425 -0.21412,-0.344854 -0.0758,-0.208428 -0.0758,-0.486964 0,-0.519176 0.28422,-0.814765 0.28612,-0.295589 0.75413,-0.295589 0.1819,0 0.35623,0.05116 0.17621,0.05116 0.32211,0.125056 v 0.396014 h -0.0189 q -0.16296,-0.126952 -0.33728,-0.195164 -0.17243,-0.06821 -0.33727,-0.06821 -0.30317,0 -0.47939,0.204638 -0.17432,0.202744 -0.17432,0.596863 0,0.38275 0.17053,0.589284 0.17243,0.204638 0.48318,0.204638 0.108,0 0.21979,-0.02842 0.1118,-0.02842 0.20085,-0.0739 0.0777,-0.03979 0.1459,-0.08337 0.0682,-0.04548 0.10801,-0.07769 h 0.0189 z"
         style="font-style:normal;font-variant:normal;font-weight:normal;font-stretch:normal;font-size:3.88055563px;font-family:sans-serif;-inkscape-font-specification:'sans-serif, Normal';font-variant-ligatures:normal;font-variant-caps:normal;font-variant-numeric:normal;font-feature-settings:normal;text-align:start;writing-mode:lr-tb;text-anchor:start;stroke-width:0.26458332"
         id="path212"
         inkscape:connector-curvature="0" />
      <path
         d="m -282.85452,32.875256 q 0,0.517281 -0.26527,0.81666 -0.26528,0.299379 -0.71056,0.299379 -0.44906,0 -0.71434,-0.299379 -0.26337,-0.299379 -0.26337,-0.81666 0,-0.517281 0.26337,-0.81666 0.26528,-0.301273 0.71434,-0.301273 0.44528,0 0.71056,0.301273 0.26527,0.299379 0.26527,0.81666 z m -0.36759,0 q 0,-0.411172 -0.16106,-0.610126 -0.16106,-0.200849 -0.44718,-0.200849 -0.2899,0 -0.45096,0.200849 -0.15916,0.198954 -0.15916,0.610126 0,0.397909 0.16106,0.604442 0.16105,0.204639 0.44906,0.204639 0.28422,0 0.44528,-0.202744 0.16296,-0.204639 0.16296,-0.606337 z"
         style="font-style:normal;font-variant:normal;font-weight:normal;font-stretch:normal;font-size:3.88055563px;font-family:sans-serif;-inkscape-font-specification:'sans-serif, Normal';font-variant-ligatures:normal;font-variant-caps:normal;font-variant-numeric:normal;font-feature-settings:normal;text-align:start;writing-mode:lr-tb;text-anchor:start;stroke-width:0.26458332"
         id="path214"
         inkscape:connector-curvature="0" />
      <path
         d="m -279.21271,33.932556 h -0.35622 v -1.205094 q 0,-0.136426 -0.0133,-0.263378 -0.0114,-0.126952 -0.0512,-0.202744 -0.0436,-0.08148 -0.12506,-0.123162 -0.0815,-0.04169 -0.23495,-0.04169 -0.14969,0 -0.29938,0.07579 -0.14969,0.0739 -0.29938,0.18948 0.006,0.04358 0.009,0.102319 0.004,0.05684 0.004,0.113688 v 1.354784 h -0.35623 v -1.205094 q 0,-0.140216 -0.0133,-0.265273 -0.0114,-0.126951 -0.0512,-0.202744 -0.0436,-0.08148 -0.12506,-0.121267 -0.0815,-0.04169 -0.23495,-0.04169 -0.1459,0 -0.2937,0.072 -0.1459,0.072 -0.2918,0.183796 v 1.580265 h -0.35622 v -2.116494 h 0.35622 v 0.234955 q 0.16675,-0.13832 0.33159,-0.216007 0.16675,-0.07769 0.35433,-0.07769 0.21601,0 0.3657,0.09095 0.15158,0.09095 0.22548,0.252009 0.21601,-0.181901 0.39412,-0.261483 0.17811,-0.08148 0.38085,-0.08148 0.34865,0 0.5135,0.212218 0.16674,0.210323 0.16674,0.589283 z"
         style="font-style:normal;font-variant:normal;font-weight:normal;font-stretch:normal;font-size:3.88055563px;font-family:sans-serif;-inkscape-font-specification:'sans-serif, Normal';font-variant-ligatures:normal;font-variant-caps:normal;font-variant-numeric:normal;font-feature-settings:normal;text-align:start;writing-mode:lr-tb;text-anchor:start;stroke-width:0.26458332"
         id="path216"
         inkscape:connector-curvature="0" />
      <path
         d="m -276.6642,32.858203 q 0,0.265272 -0.0758,0.47749 -0.0739,0.212218 -0.20085,0.356223 -0.13453,0.14969 -0.29559,0.225482 -0.16106,0.0739 -0.35433,0.0739 -0.18001,0 -0.31454,-0.04358 -0.13453,-0.04169 -0.26527,-0.113689 l -0.0227,0.09853 h -0.33348 v -2.948313 h 0.35622 v 1.053511 q 0.14969,-0.123163 0.31833,-0.200849 0.16863,-0.07958 0.37896,-0.07958 0.37517,0 0.59118,0.28801 0.2179,0.28801 0.2179,0.81287 z m -0.36759,0.0095 q 0,-0.37896 -0.12506,-0.574125 -0.12506,-0.19706 -0.40359,-0.19706 -0.15538,0 -0.31454,0.06821 -0.15916,0.06632 -0.29559,0.172427 v 1.212674 q 0.15158,0.06821 0.25959,0.09474 0.1099,0.02653 0.24822,0.02653 0.29559,0 0.46233,-0.193269 0.16864,-0.195165 0.16864,-0.610127 z"
         style="font-style:normal;font-variant:normal;font-weight:normal;font-stretch:normal;font-size:3.88055563px;font-family:sans-serif;-inkscape-font-specification:'sans-serif, Normal';font-variant-ligatures:normal;font-variant-caps:normal;font-variant-numeric:normal;font-feature-settings:normal;text-align:start;writing-mode:lr-tb;text-anchor:start;stroke-width:0.26458332"
         id="path218"
         inkscape:connector-curvature="0" />
      <path
         d="m -275.72628,31.461734 h -0.40169 v -0.369487 h 0.40169 z m -0.0227,2.470822 h -0.35623 v -2.116494 h 0.35623 z"
         style="font-style:normal;font-variant:normal;font-weight:normal;font-stretch:normal;font-size:3.88055563px;font-family:sans-serif;-inkscape-font-specification:'sans-serif, Normal';font-variant-ligatures:normal;font-variant-caps:normal;font-variant-numeric:normal;font-feature-settings:normal;text-align:start;writing-mode:lr-tb;text-anchor:start;stroke-width:0.26458332"
         id="path220"
         inkscape:connector-curvature="0" />
      <path
         d="m -271.87225,32.875256 q 0,0.517281 -0.26527,0.81666 -0.26527,0.299379 -0.71055,0.299379 -0.44907,0 -0.71434,-0.299379 -0.26338,-0.299379 -0.26338,-0.81666 0,-0.517281 0.26338,-0.81666 0.26527,-0.301273 0.71434,-0.301273 0.44528,0 0.71055,0.301273 0.26527,0.299379 0.26527,0.81666 z m -0.36759,0 q 0,-0.411172 -0.16106,-0.610126 -0.16106,-0.200849 -0.44717,-0.200849 -0.28991,0 -0.45096,0.200849 -0.15917,0.198954 -0.15917,0.610126 0,0.397909 0.16106,0.604442 0.16106,0.204639 0.44907,0.204639 0.28422,0 0.44528,-0.202744 0.16295,-0.204639 0.16295,-0.606337 z"
         style="font-style:normal;font-variant:normal;font-weight:normal;font-stretch:normal;font-size:3.88055563px;font-family:sans-serif;-inkscape-font-specification:'sans-serif, Normal';font-variant-ligatures:normal;font-variant-caps:normal;font-variant-numeric:normal;font-feature-settings:normal;text-align:start;writing-mode:lr-tb;text-anchor:start;stroke-width:0.26458332"
         id="path222"
         inkscape:connector-curvature="0" />
      <path
         d="m -269.56438,33.932556 h -0.35622 v -0.234955 q -0.18001,0.14211 -0.34485,0.217902 -0.16485,0.07579 -0.36381,0.07579 -0.33348,0 -0.51917,-0.202744 -0.18569,-0.204639 -0.18569,-0.598757 V 31.81606 h 0.35622 v 1.205094 q 0,0.161058 0.0152,0.276641 0.0152,0.113688 0.0644,0.195165 0.0512,0.08337 0.13264,0.121267 0.0815,0.0379 0.23685,0.0379 0.13832,0 0.30127,-0.072 0.16485,-0.072 0.30696,-0.183796 v -1.580265 h 0.35622 z"
         style="font-style:normal;font-variant:normal;font-weight:normal;font-stretch:normal;font-size:3.88055563px;font-family:sans-serif;-inkscape-font-specification:'sans-serif, Normal';font-variant-ligatures:normal;font-variant-caps:normal;font-variant-numeric:normal;font-feature-settings:normal;text-align:start;writing-mode:lr-tb;text-anchor:start;stroke-width:0.26458332"
         id="path224"
         inkscape:connector-curvature="0" />
      <path
         d="m -267.76431,33.913608 q -0.10043,0.02653 -0.2198,0.04358 -0.11748,0.01705 -0.21032,0.01705 -0.32402,0 -0.49265,-0.174322 -0.16864,-0.174322 -0.16864,-0.558967 v -1.125512 h -0.24064 v -0.299379 h 0.24064 V 31.20783 h 0.35622 v 0.608232 h 0.73519 v 0.299379 h -0.73519 v 0.964454 q 0,0.166743 0.008,0.261483 0.008,0.09285 0.0531,0.174322 0.0417,0.07579 0.11368,0.111793 0.0739,0.03411 0.22359,0.03411 0.0872,0 0.1819,-0.02463 0.0947,-0.02653 0.13643,-0.04358 h 0.0189 z"
         style="font-style:normal;font-variant:normal;font-weight:normal;font-stretch:normal;font-size:3.88055563px;font-family:sans-serif;-inkscape-font-specification:'sans-serif, Normal';font-variant-ligatures:normal;font-variant-caps:normal;font-variant-numeric:normal;font-feature-settings:normal;text-align:start;writing-mode:lr-tb;text-anchor:start;stroke-width:0.26458332"
         id="path226"
         inkscape:connector-curvature="0" />
    </g>
    <g
       aria-label="CV In"
       style="font-style:normal;font-weight:normal;font-size:10.58333302px;line-height:1.25;font-family:sans-serif;letter-spacing:0px;word-spacing:0px;fill:#000000;fill-opacity:1;stroke:none;stroke-width:0.26458332"
       id="text891"
       transform="matrix(0,-0.36953958,0.36953958,0,-96.396536,285.13227)">
      <path
         d="m 14.649235,279.64084 q -0.284221,0.12402 -0.516765,0.23254 -0.227376,0.10852 -0.599446,0.22738 -0.315227,0.0982 -0.687297,0.16536 -0.366903,0.0723 -0.81132,0.0723 -0.837158,0 -1.524455,-0.23254 -0.6821284,-0.23772 -1.1885574,-0.73898 -0.4960938,-0.49092 -0.7751465,-1.2454 -0.2790527,-0.75964 -0.2790527,-1.76216 0,-0.95085 0.2687174,-1.70016 0.2687174,-0.74931 0.7751465,-1.26607 0.4909261,-0.50126 1.1833907,-0.76481 0.697631,-0.26355 1.545125,-0.26355 0.620117,0 1.235067,0.14986 0.620117,0.14986 1.374593,0.5271 v 1.21439 h -0.07752 q -0.63562,-0.53226 -1.260905,-0.77514 -0.625285,-0.24288 -1.33842,-0.24288 -0.583943,0 -1.054199,0.1912 -0.465088,0.18604 -0.83199,0.58395 -0.3565676,0.38757 -0.5581057,0.98185 -0.1963705,0.58911 -0.1963705,1.36426 0,0.81132 0.217041,1.39526 0.2222087,0.58394 0.5684412,0.95085 0.361735,0.3824 0.842325,0.56844 0.485759,0.18086 1.023194,0.18086 0.738973,0 1.384928,-0.25321 0.645955,-0.25322 1.209229,-0.75964 h 0.07235 z"
         style="stroke-width:0.26458332"
         id="path893"
         inkscape:connector-curvature="0" />
      <path
         d="m 22.173323,272.50432 -2.800863,7.69462 h -1.364257 l -2.800863,-7.69462 h 1.09554 l 2.41329,6.76962 2.413289,-6.76962 z"
         style="stroke-width:0.26458332"
         id="path895"
         inkscape:connector-curvature="0" />
      <path
         d="m 29.774926,280.19894 h -3.038574 v -0.78548 h 1.007691 v -6.12365 h -1.007691 v -0.78549 h 3.038574 v 0.78549 h -1.00769 v 6.12365 h 1.00769 z"
         style="stroke-width:0.26458332"
         id="path897"
         inkscape:connector-curvature="0" />
      <path
         d="m 36.275822,280.19894 h -0.971517 v -3.28662 q 0,-0.39791 -0.04651,-0.74414 -0.04651,-0.3514 -0.170532,-0.54777 -0.129191,-0.21704 -0.372071,-0.32039 -0.242879,-0.10852 -0.630452,-0.10852 -0.397909,0 -0.831991,0.19637 -0.434082,0.19637 -0.83199,0.50126 v 4.30981 h -0.971517 v -5.77225 h 0.971517 v 0.64078 q 0.454752,-0.37723 0.940511,-0.58911 0.485758,-0.21187 0.997355,-0.21187 0.935343,0 1.426269,0.56327 0.490927,0.56328 0.490927,1.62264 z"
         style="stroke-width:0.26458332"
         id="path899"
         inkscape:connector-curvature="0" />
    </g>
    <text
       xml:space="preserve"
       style="font-style:normal;font-weight:normal;font-size:10.58333302px;line-height:1.25;font-family:sans-serif;letter-spacing:0px;word-spacing:0px;fill:#000000;fill-opacity:1;stroke:none;stroke-width:0.26458332"
       x="9.5249996"
       y="275.96561"
       id="text912"><tspan
         sodipodi:role="line"
         id="tspan910"
         x="9.5249996"
         y="285.62109"
         style="stroke-width:0.26458332" /></text>
    <g
       aria-label="/Pulse Out"
       transform="rotate(-90)"
       style="font-style:normal;font-weight:normal;font-size:3.54032183px;line-height:1.25;font-family:sans-serif;letter-spacing:0px;word-spacing:0px;fill:#000000;fill-opacity:1;stroke:none;stroke-width:0.08850805"
       id="text916">
      <path
         d="m -285.0936,31.187241 -1.23946,3.215332 h -0.29906 l 1.23427,-3.215332 z"
         style="stroke-width:0.08850805"
         id="path918" />
      <path
         d="m -282.93968,32.080965 q 0,0.171139 -0.0605,0.318076 -0.0588,0.145208 -0.16595,0.252386 -0.13311,0.133108 -0.31462,0.200526 -0.18151,0.06569 -0.4581,0.06569 h -0.34228 v 0.959413 h -0.34227 v -2.573994 h 0.69838 q 0.23164,0 0.39241,0.03976 0.16077,0.03803 0.28523,0.121007 0.14694,0.09853 0.22646,0.245471 0.0812,0.146938 0.0812,0.371665 z m -0.3561,0.0086 q 0,-0.133107 -0.0467,-0.231642 -0.0467,-0.09853 -0.14175,-0.160766 -0.083,-0.05359 -0.19015,-0.07606 -0.10545,-0.0242 -0.26795,-0.0242 h -0.33882 v 1.02856 h 0.28869 q 0.20744,0 0.33709,-0.0363 0.12965,-0.03803 0.2109,-0.119279 0.0813,-0.08298 0.11409,-0.174595 0.0346,-0.09162 0.0346,-0.205713 z"
         style="stroke-width:0.08850805"
         id="path920" />
      <path
         d="m -280.91194,33.877056 h -0.32499 v -0.214355 q -0.16423,0.12965 -0.31462,0.198797 -0.1504,0.06915 -0.33191,0.06915 -0.30424,0 -0.47365,-0.184968 -0.16941,-0.186697 -0.16941,-0.546261 v -1.253287 h 0.32499 v 1.099436 q 0,0.146937 0.0138,0.252386 0.0138,0.10372 0.0588,0.178053 0.0467,0.07606 0.12101,0.110635 0.0743,0.03457 0.21608,0.03457 0.1262,0 0.27486,-0.06569 0.1504,-0.06569 0.28005,-0.167681 v -1.441713 h 0.32499 z"
         style="stroke-width:0.08850805"
         id="path922" />
      <path
         d="m -279.94389,33.877056 h -0.32499 v -2.689815 h 0.32499 z"
         style="stroke-width:0.08850805"
         id="path924" />
      <path
         d="m -277.91788,33.320423 q 0,0.264487 -0.21954,0.433897 -0.21782,0.16941 -0.5964,0.16941 -0.21435,0 -0.39413,-0.05013 -0.17806,-0.05186 -0.29906,-0.112364 v -0.36475 h 0.0173 q 0.15386,0.115821 0.34228,0.184968 0.18843,0.06742 0.36129,0.06742 0.21436,0 0.33537,-0.06915 0.121,-0.06915 0.121,-0.217812 0,-0.114093 -0.0657,-0.172868 -0.0657,-0.05878 -0.25238,-0.100263 -0.0691,-0.01556 -0.18151,-0.0363 -0.11064,-0.02074 -0.20226,-0.04494 -0.25411,-0.06742 -0.36129,-0.197069 -0.10545,-0.131379 -0.10545,-0.321533 0,-0.119279 0.0484,-0.224728 0.0501,-0.105449 0.1504,-0.188425 0.0968,-0.08125 0.24547,-0.127922 0.15039,-0.0484 0.33536,-0.0484 0.17287,0 0.34919,0.04322 0.17806,0.04149 0.29561,0.101992 v 0.347463 h -0.0173 q -0.12446,-0.09162 -0.30252,-0.153852 -0.17805,-0.06396 -0.34919,-0.06396 -0.17805,0 -0.30079,0.06915 -0.12273,0.06742 -0.12273,0.202255 0,0.119278 0.0743,0.179782 0.0726,0.0605 0.2351,0.09853 0.0899,0.02074 0.20052,0.04149 0.11237,0.02074 0.1867,0.03803 0.22646,0.05186 0.34919,0.178054 0.12274,0.127921 0.12274,0.338819 z"
         style="stroke-width:0.08850805"
         id="path926" />
      <path
         d="m -275.83483,32.945302 h -1.4227 q 0,0.178053 0.0536,0.311161 0.0536,0.131379 0.14694,0.216084 0.0899,0.08298 0.21262,0.124464 0.12447,0.04149 0.27313,0.04149 0.19707,0 0.39587,-0.07779 0.20053,-0.07952 0.28523,-0.155581 h 0.0173 v 0.354378 q -0.16423,0.06915 -0.33536,0.115821 -0.17114,0.04668 -0.35957,0.04668 -0.48057,0 -0.75024,-0.259301 -0.26968,-0.26103 -0.26968,-0.739872 0,-0.473657 0.25758,-0.751973 0.2593,-0.278316 0.68109,-0.278316 0.39068,0 0.60158,0.228185 0.21263,0.228184 0.21263,0.648252 z m -0.31635,-0.248929 q -0.002,-0.255844 -0.12965,-0.395866 -0.12619,-0.140023 -0.38549,-0.140023 -0.26103,0 -0.41661,0.153852 -0.15385,0.153852 -0.1746,0.382037 z"
         style="stroke-width:0.08850805"
         id="path928" />
      <path
         d="m -272.15276,31.598665 q 0.15731,0.172868 0.24029,0.423525 0.0847,0.250658 0.0847,0.568734 0,0.318075 -0.0864,0.570462 -0.0847,0.250657 -0.23856,0.418338 -0.15904,0.174596 -0.37685,0.262759 -0.21608,0.08816 -0.4944,0.08816 -0.2714,0 -0.4944,-0.08989 -0.22127,-0.08989 -0.37685,-0.26103 -0.15558,-0.171138 -0.24029,-0.420067 -0.083,-0.248929 -0.083,-0.568733 0,-0.314619 0.083,-0.563548 0.083,-0.250657 0.24202,-0.428711 0.15212,-0.16941 0.37685,-0.259301 0.22646,-0.08989 0.49267,-0.08989 0.27659,0 0.49613,0.09162 0.22127,0.08989 0.37512,0.257572 z m -0.0311,0.992259 q 0,-0.501316 -0.22473,-0.772717 -0.22473,-0.27313 -0.61368,-0.27313 -0.39241,0 -0.61714,0.27313 -0.223,0.271401 -0.223,0.772717 0,0.506501 0.22819,0.776174 0.22818,0.267944 0.61195,0.267944 0.38376,0 0.61022,-0.267944 0.22819,-0.269673 0.22819,-0.776174 z"
         style="stroke-width:0.08850805"
         id="path930" />
      <path
         d="m -269.71014,33.877056 h -0.32499 v -0.214355 q -0.16423,0.12965 -0.31462,0.198797 -0.1504,0.06915 -0.33191,0.06915 -0.30424,0 -0.47365,-0.184968 -0.16941,-0.186697 -0.16941,-0.546261 v -1.253287 h 0.32499 v 1.099436 q 0,0.146937 0.0138,0.252386 0.0138,0.10372 0.0588,0.178053 0.0467,0.07606 0.12101,0.110635 0.0743,0.03457 0.21608,0.03457 0.12619,0 0.27486,-0.06569 0.1504,-0.06569 0.28005,-0.167681 v -1.441713 h 0.32499 z"
         style="stroke-width:0.08850805"
         id="path932" />
      <path
         d="m -268.0679,33.859769 q -0.0916,0.0242 -0.20053,0.03976 -0.10718,0.01556 -0.19188,0.01556 -0.29561,0 -0.44946,-0.159038 -0.15385,-0.159038 -0.15385,-0.509958 v -1.026832 h -0.21954 v -0.27313 h 0.21954 v -0.554904 h 0.32499 v 0.554904 h 0.67073 v 0.27313 h -0.67073 v 0.879894 q 0,0.152124 0.007,0.238557 0.007,0.0847 0.0484,0.159038 0.038,0.06915 0.10372,0.101992 0.0674,0.03112 0.20398,0.03112 0.0795,0 0.16595,-0.02247 0.0864,-0.0242 0.12447,-0.03976 h 0.0173 z"
         style="stroke-width:0.08850805"
         id="path934" />
    </g>
    <path
       style="fill:none;stroke:#000000;stroke-width:0.26458332px;stroke-linecap:butt;stroke-linejoin:miter;stroke-opacity:1"
       d="m 12.104687,241.76822 v -4.89479 h 2.248959 v 4.82864 h 4.233333"
       id="path968"
       inkscape:connector-curvature="0" />
    <g
       aria-label="select"
       transform="rotate(-90)"
       style="font-style:normal;font-weight:normal;font-size:3.98816562px;line-height:1.25;font-family:sans-serif;letter-spacing:0px;word-spacing:0px;fill:#000000;fill-opacity:1;stroke:none;stroke-width:0.09970414"
       id="text923">
      <path
         d="m -253.76184,8.2371426 q 0,0.297944 -0.24732,0.488784 -0.24536,0.1908399 -0.67183,0.1908399 -0.24147,0 -0.444,-0.056473 -0.20057,-0.05842 -0.33689,-0.1265775 V 8.3228259 h 0.0195 q 0.17331,0.1304722 0.38557,0.208366 0.21226,0.075947 0.407,0.075947 0.24147,0 0.37778,-0.077894 0.13631,-0.077894 0.13631,-0.2453657 0,-0.1285248 -0.074,-0.1947346 -0.074,-0.06621 -0.28432,-0.1129461 -0.0779,-0.017526 -0.20447,-0.040894 -0.12463,-0.023368 -0.22784,-0.050631 -0.28626,-0.075946 -0.40699,-0.2219975 -0.11879,-0.1479983 -0.11879,-0.3622064 0,-0.1343669 0.0545,-0.2531551 0.0565,-0.1187881 0.16942,-0.2122608 0.10905,-0.091525 0.27653,-0.1441036 0.16942,-0.054526 0.37778,-0.054526 0.19474,0 0.39337,0.048684 0.20057,0.046736 0.33299,0.1148934 v 0.3914167 h -0.0195 q -0.14021,-0.1032094 -0.34079,-0.1733139 -0.20057,-0.072052 -0.39336,-0.072052 -0.20058,0 -0.33884,0.077894 -0.13826,0.075946 -0.13826,0.2278395 0,0.1343669 0.0837,0.202524 0.0818,0.068157 0.26484,0.1109988 0.10127,0.023368 0.2259,0.046736 0.12657,0.023368 0.21031,0.042842 0.2551,0.05842 0.39336,0.2005767 0.13827,0.1441037 0.13827,0.3816799 z"
         style="stroke-width:0.09970414"
         id="path3158" />
      <path
         d="m -251.41529,7.8145684 h -1.60267 q 0,0.2005767 0.0604,0.3505224 0.0604,0.1479983 0.16552,0.2434183 0.10127,0.093473 0.23953,0.140209 0.14021,0.046736 0.30768,0.046736 0.222,0 0.44594,-0.087631 0.22589,-0.089578 0.32131,-0.1752612 h 0.0195 v 0.399206 q -0.185,0.077894 -0.37779,0.1304722 -0.19279,0.052578 -0.40505,0.052578 -0.54136,0 -0.84515,-0.292102 -0.30378,-0.2940493 -0.30378,-0.8334643 0,-0.5335729 0.29015,-0.8470957 0.2921,-0.3135228 0.76726,-0.3135228 0.4401,0 0.67767,0.2570498 0.23953,0.2570497 0.23953,0.7302549 z m -0.35637,-0.2804179 q -0.002,-0.2882072 -0.14605,-0.4459423 -0.14215,-0.1577351 -0.43426,-0.1577351 -0.29405,0 -0.46931,0.1733139 -0.17331,0.1733138 -0.19668,0.4303635 z"
         style="stroke-width:0.09970414"
         id="path3160" />
      <path
         d="m -250.4903,8.8641882 h -0.3661 V 5.8341171 h 0.3661 z"
         style="stroke-width:0.09970414"
         id="path3162" />
      <path
         d="m -247.94123,7.8145684 h -1.60266 q 0,0.2005767 0.0604,0.3505224 0.0604,0.1479983 0.16552,0.2434183 0.10126,0.093473 0.23952,0.140209 0.14021,0.046736 0.30768,0.046736 0.222,0 0.44595,-0.087631 0.22589,-0.089578 0.32131,-0.1752612 h 0.0195 v 0.399206 q -0.185,0.077894 -0.37778,0.1304722 -0.19279,0.052578 -0.40505,0.052578 -0.54136,0 -0.84515,-0.292102 -0.30379,-0.2940493 -0.30379,-0.8334643 0,-0.5335729 0.29016,-0.8470957 0.2921,-0.3135228 0.76725,-0.3135228 0.4401,0 0.67768,0.2570498 0.23952,0.2570497 0.23952,0.7302549 z m -0.35636,-0.2804179 q -0.002,-0.2882072 -0.14605,-0.4459423 -0.14216,-0.1577351 -0.43426,-0.1577351 -0.29405,0 -0.46931,0.1733139 -0.17331,0.1733138 -0.19668,0.4303635 z"
         style="stroke-width:0.09970414"
         id="path3164" />
      <path
         d="m -245.77772,8.7278739 q -0.18305,0.087631 -0.34858,0.1363143 -0.16358,0.048684 -0.34857,0.048684 -0.23563,0 -0.43232,-0.068157 -0.19668,-0.070104 -0.33689,-0.2103134 -0.14215,-0.1402089 -0.22005,-0.3544171 -0.0779,-0.2142081 -0.0779,-0.500468 0,-0.5335729 0.2921,-0.837359 0.29405,-0.303786 0.77505,-0.303786 0.18694,0 0.3661,0.052578 0.1811,0.052578 0.33105,0.1285249 v 0.4069954 h -0.0195 q -0.16747,-0.1304722 -0.34663,-0.2005767 -0.1772,-0.070105 -0.34662,-0.070105 -0.31158,0 -0.49268,0.2103135 -0.17916,0.208366 -0.17916,0.6134141 0,0.393364 0.17526,0.6056248 0.17721,0.2103134 0.49658,0.2103134 0.111,0 0.22589,-0.02921 0.11489,-0.02921 0.20642,-0.075947 0.0798,-0.040894 0.14994,-0.085683 0.0701,-0.046736 0.111,-0.079841 h 0.0195 z"
         style="stroke-width:0.09970414"
         id="path3166" />
      <path
         d="m -244.17701,8.8447147 q -0.1032,0.027263 -0.22589,0.044789 -0.12073,0.017526 -0.21615,0.017526 -0.333,0 -0.50631,-0.1791559 -0.17332,-0.1791558 -0.17332,-0.5744672 V 6.9966829 h -0.24731 V 6.6890022 h 0.24731 V 6.0639039 h 0.3661 v 0.6250983 h 0.75557 v 0.3076807 h -0.75557 v 0.9911994 q 0,0.1713665 0.008,0.2687338 0.008,0.09542 0.0545,0.1791559 0.0428,0.077894 0.11684,0.1148934 0.076,0.035052 0.22979,0.035052 0.0896,0 0.18694,-0.025316 0.0974,-0.027263 0.14021,-0.044789 h 0.0195 z"
         style="stroke-width:0.09970414"
         id="path3168" />
    </g>
    <g
       aria-label="pulse"
       transform="rotate(-90)"
       style="font-style:normal;font-weight:normal;font-size:3.98816562px;line-height:1.25;font-family:sans-serif;letter-spacing:0px;word-spacing:0px;fill:#000000;fill-opacity:1;stroke:none;stroke-width:0.09970414"
       id="text927">
      <path
         d="m -252.80231,3.5301331 q 0,0.2648391 -0.076,0.4848893 -0.0759,0.2181028 -0.21421,0.3699958 -0.12852,0.1441037 -0.30378,0.2239449 -0.17332,0.077894 -0.36805,0.077894 -0.16942,0 -0.30768,-0.037 -0.13632,-0.037 -0.27847,-0.1148935 v 0.9113582 h -0.3661 V 2.4688293 h 0.3661 v 0.2278395 q 0.14605,-0.1226828 0.32715,-0.2044714 0.18305,-0.083736 0.38947,-0.083736 0.39336,0 0.61147,0.2979441 0.22005,0.2959966 0.22005,0.8237275 z m -0.37779,0.00974 q 0,-0.393364 -0.13436,-0.5880987 -0.13437,-0.1947346 -0.41284,-0.1947346 -0.15774,0 -0.31742,0.068157 -0.15968,0.068157 -0.30573,0.1791559 v 1.2326703 q 0.15579,0.070105 0.26678,0.09542 0.11295,0.025316 0.25511,0.025316 0.30573,0 0.4771,-0.2064188 0.17136,-0.2064187 0.17136,-0.6114667 z"
         style="stroke-width:0.09970414"
         id="path3147" />
      <path
         d="m -250.4285,4.6440153 h -0.3661 v -0.241471 q -0.185,0.146051 -0.35441,0.2239449 -0.16942,0.077894 -0.3739,0.077894 -0.34273,0 -0.53357,-0.2083661 -0.19084,-0.2103134 -0.19084,-0.6153615 V 2.4688293 h 0.3661 v 1.2385123 q 0,0.1655245 0.0156,0.2843126 0.0156,0.1168408 0.0662,0.2005767 0.0526,0.085683 0.13632,0.1246302 0.0837,0.038947 0.24341,0.038947 0.14216,0 0.30963,-0.073999 0.16942,-0.073999 0.31547,-0.1888926 v -1.624087 h 0.3661 z"
         style="stroke-width:0.09970414"
         id="path3149" />
      <path
         d="m -249.33798,4.6440153 h -0.3661 V 1.6139442 h 0.3661 z"
         style="stroke-width:0.09970414"
         id="path3151" />
      <path
         d="m -247.05569,4.0169697 q 0,0.2979441 -0.24732,0.488784 -0.24536,0.19084 -0.67183,0.19084 -0.24147,0 -0.44399,-0.056473 -0.20058,-0.05842 -0.3369,-0.1265775 V 4.102653 h 0.0195 q 0.17331,0.1304722 0.38557,0.2083661 0.21226,0.075946 0.407,0.075946 0.24147,0 0.37778,-0.077894 0.13632,-0.077894 0.13632,-0.2453656 0,-0.1285249 -0.074,-0.1947347 -0.074,-0.06621 -0.28431,-0.1129461 -0.0779,-0.017526 -0.20448,-0.040894 -0.12463,-0.023368 -0.22784,-0.050631 -0.28626,-0.075946 -0.40699,-0.2219975 -0.11879,-0.1479983 -0.11879,-0.3622064 0,-0.1343669 0.0545,-0.2531551 0.0565,-0.1187881 0.16942,-0.2122607 0.10905,-0.091525 0.27652,-0.1441037 0.16942,-0.054526 0.37778,-0.054526 0.19474,0 0.39337,0.048684 0.20057,0.046736 0.33299,0.1148934 v 0.3914167 h -0.0195 q -0.14021,-0.1032094 -0.34078,-0.1733139 -0.20058,-0.072052 -0.39337,-0.072052 -0.20058,0 -0.33884,0.077894 -0.13826,0.075947 -0.13826,0.2278395 0,0.1343669 0.0837,0.2025241 0.0818,0.068157 0.26484,0.1109987 0.10126,0.023368 0.22589,0.046736 0.12658,0.023368 0.21031,0.042842 0.2551,0.05842 0.39337,0.2005767 0.13826,0.1441037 0.13826,0.3816799 z"
         style="stroke-width:0.09970414"
         id="path3153" />
      <path
         d="m -244.70914,3.5943956 h -1.60267 q 0,0.2005766 0.0604,0.3505223 0.0604,0.1479984 0.16553,0.2434183 0.10126,0.093473 0.23952,0.140209 0.14021,0.046736 0.30768,0.046736 0.222,0 0.44594,-0.087631 0.22589,-0.089578 0.32131,-0.1752612 h 0.0195 v 0.3992061 q -0.185,0.077894 -0.37779,0.1304722 -0.19278,0.052578 -0.40505,0.052578 -0.54136,0 -0.84514,-0.292102 -0.30379,-0.2940493 -0.30379,-0.8334643 0,-0.5335729 0.29016,-0.8470957 0.2921,-0.3135228 0.76725,-0.3135228 0.4401,0 0.67768,0.2570498 0.23952,0.2570497 0.23952,0.7302549 z m -0.35636,-0.2804179 q -0.002,-0.2882073 -0.14606,-0.4459424 -0.14215,-0.1577351 -0.43425,-0.1577351 -0.29405,0 -0.46931,0.1733139 -0.17332,0.1733138 -0.19669,0.4303636 z"
         style="stroke-width:0.09970414"
         id="path3155" />
    </g>
    <g
       aria-label="select"
       transform="rotate(-90)"
       style="font-style:normal;font-weight:normal;font-size:3.98816562px;line-height:1.25;font-family:sans-serif;letter-spacing:0px;word-spacing:0px;display:inline;fill:#000000;fill-opacity:1;stroke:none;stroke-width:0.09970414"
       id="text923-5">
      <path
         d="m -229.31377,8.6118928 q 0,0.297944 -0.24731,0.4887839 -0.24537,0.19084 -0.67184,0.19084 -0.24147,0 -0.44399,-0.056473 -0.20058,-0.05842 -0.33689,-0.1265775 V 8.697576 h 0.0195 q 0.17331,0.1304722 0.38557,0.2083661 0.21226,0.075946 0.407,0.075946 0.24147,0 0.37778,-0.077894 0.13632,-0.077894 0.13632,-0.2453656 0,-0.1285249 -0.074,-0.1947347 -0.074,-0.06621 -0.28431,-0.1129461 -0.0779,-0.017526 -0.20447,-0.040894 -0.12463,-0.023368 -0.22784,-0.050631 -0.28626,-0.075947 -0.407,-0.2219975 -0.11879,-0.1479983 -0.11879,-0.3622064 0,-0.1343669 0.0545,-0.253155 0.0565,-0.1187882 0.16942,-0.2122608 0.10905,-0.091525 0.27652,-0.1441037 0.16942,-0.054526 0.37779,-0.054526 0.19473,0 0.39336,0.048684 0.20058,0.046736 0.333,0.1148934 v 0.3914167 h -0.0195 q -0.14021,-0.1032094 -0.34078,-0.1733138 -0.20058,-0.072052 -0.39337,-0.072052 -0.20057,0 -0.33884,0.077894 -0.13826,0.075946 -0.13826,0.2278395 0,0.1343669 0.0837,0.2025241 0.0818,0.068157 0.26484,0.1109987 0.10126,0.023368 0.22589,0.046736 0.12658,0.023368 0.21031,0.042842 0.25511,0.05842 0.39337,0.2005766 0.13826,0.1441037 0.13826,0.38168 z"
         style="stroke-width:0.09970414"
         id="path3127" />
      <path
         d="m -226.96722,8.1893186 h -1.60266 q 0,0.2005767 0.0604,0.3505223 0.0604,0.1479984 0.16553,0.2434184 0.10126,0.093473 0.23952,0.1402089 0.14021,0.046736 0.30768,0.046736 0.222,0 0.44594,-0.087631 0.2259,-0.089578 0.32132,-0.1752612 h 0.0195 v 0.3992061 q -0.185,0.077894 -0.37778,0.1304722 -0.19279,0.052578 -0.40505,0.052578 -0.54137,0 -0.84515,-0.2921019 -0.30379,-0.2940494 -0.30379,-0.8334643 0,-0.533573 0.29016,-0.8470958 0.2921,-0.3135227 0.76725,-0.3135227 0.4401,0 0.67768,0.2570497 0.23952,0.2570497 0.23952,0.7302549 z m -0.35636,-0.2804179 q -0.002,-0.2882073 -0.14605,-0.4459424 -0.14216,-0.157735 -0.43426,-0.157735 -0.29405,0 -0.46931,0.1733138 -0.17332,0.1733138 -0.19668,0.4303636 z"
         style="stroke-width:0.09970414"
         id="path3129" />
      <path
         d="m -226.04223,9.2389383 h -0.3661 V 6.2088672 h 0.3661 z"
         style="stroke-width:0.09970414"
         id="path3131" />
      <path
         d="m -223.49315,8.1893186 h -1.60267 q 0,0.2005767 0.0604,0.3505223 0.0604,0.1479984 0.16552,0.2434184 0.10127,0.093473 0.23953,0.1402089 0.14021,0.046736 0.30768,0.046736 0.222,0 0.44594,-0.087631 0.22589,-0.089578 0.32131,-0.1752612 h 0.0195 v 0.3992061 q -0.185,0.077894 -0.37779,0.1304722 -0.19279,0.052578 -0.40505,0.052578 -0.54136,0 -0.84515,-0.2921019 -0.30378,-0.2940494 -0.30378,-0.8334643 0,-0.533573 0.29015,-0.8470958 0.29211,-0.3135227 0.76726,-0.3135227 0.4401,0 0.67767,0.2570497 0.23953,0.2570497 0.23953,0.7302549 z m -0.35637,-0.2804179 q -0.002,-0.2882073 -0.14605,-0.4459424 -0.14215,-0.157735 -0.43426,-0.157735 -0.29404,0 -0.46931,0.1733138 -0.17331,0.1733138 -0.19668,0.4303636 z"
         style="stroke-width:0.09970414"
         id="path3133" />
      <path
         d="m -221.32965,9.1026241 q -0.18305,0.087631 -0.34857,0.1363142 -0.16358,0.048684 -0.34858,0.048684 -0.23563,0 -0.43231,-0.068157 -0.19668,-0.070104 -0.33689,-0.2103135 -0.14216,-0.1402089 -0.22005,-0.354417 -0.0779,-0.2142081 -0.0779,-0.5004681 0,-0.5335729 0.29211,-0.837359 0.29405,-0.303786 0.77504,-0.303786 0.18695,0 0.3661,0.052578 0.1811,0.052578 0.33105,0.1285249 v 0.4069954 h -0.0195 q -0.16748,-0.1304722 -0.34663,-0.2005767 -0.17721,-0.070104 -0.34663,-0.070104 -0.31157,0 -0.49268,0.2103134 -0.17915,0.2083661 -0.17915,0.6134141 0,0.393364 0.17526,0.6056248 0.17721,0.2103134 0.49657,0.2103134 0.111,0 0.22589,-0.02921 0.1149,-0.02921 0.20642,-0.075947 0.0798,-0.040894 0.14995,-0.085683 0.0701,-0.046736 0.111,-0.079841 h 0.0195 z"
         style="stroke-width:0.09970414"
         id="path3135" />
      <path
         d="m -219.72893,9.2194649 q -0.10321,0.027263 -0.22589,0.044789 -0.12074,0.017526 -0.21616,0.017526 -0.33299,0 -0.50631,-0.1791559 -0.17331,-0.1791559 -0.17331,-0.5744672 V 7.371433 h -0.24732 V 7.0637523 h 0.24732 V 6.4386541 h 0.3661 v 0.6250982 h 0.75557 V 7.371433 h -0.75557 v 0.9911994 q 0,0.1713665 0.008,0.2687338 0.008,0.09542 0.0545,0.1791559 0.0428,0.077894 0.11684,0.1148934 0.076,0.035052 0.22979,0.035052 0.0896,0 0.18695,-0.025315 0.0974,-0.027263 0.14021,-0.044789 h 0.0195 z"
         style="stroke-width:0.09970414"
         id="path3137" />
    </g>
    <g
       aria-label="tri"
       transform="rotate(-90)"
       style="font-style:normal;font-weight:normal;font-size:3.98816562px;line-height:1.25;font-family:sans-serif;letter-spacing:0px;word-spacing:0px;fill:#000000;fill-opacity:1;stroke:none;stroke-width:0.09970414"
       id="text949">
      <path
         d="m -225.19706,4.8925186 q -0.10321,0.027263 -0.22589,0.044789 -0.12074,0.017526 -0.21616,0.017526 -0.333,0 -0.50631,-0.1791559 -0.17331,-0.1791559 -0.17331,-0.5744672 V 3.0444868 h -0.24732 V 2.736806 h 0.24732 V 2.1117078 h 0.3661 V 2.736806 h 0.75557 v 0.3076808 h -0.75557 v 0.9911994 q 0,0.1713664 0.008,0.2687338 0.008,0.09542 0.0545,0.1791558 0.0428,0.077894 0.11684,0.1148935 0.076,0.035052 0.22979,0.035052 0.0896,0 0.18694,-0.025315 0.0974,-0.027263 0.14021,-0.044789 h 0.0195 z"
         style="stroke-width:0.09970414"
         id="path3140" />
      <path
         d="m -223.39577,3.1360121 h -0.0195 q -0.0818,-0.019473 -0.15968,-0.027263 -0.076,-0.00974 -0.18111,-0.00974 -0.16942,0 -0.32715,0.075946 -0.15774,0.073999 -0.30379,0.1927873 v 1.5442458 h -0.3661 V 2.736806 h 0.3661 v 0.3213122 q 0.21811,-0.1752612 0.38363,-0.247313 0.16747,-0.073999 0.34079,-0.073999 0.0954,0 0.13826,0.00584 0.0428,0.00389 0.12852,0.017526 z"
         style="stroke-width:0.09970414"
         id="path3142" />
      <path
         d="m -222.65383,2.3726522 h -0.41284 V 1.9929197 h 0.41284 z m -0.0234,2.5393399 h -0.3661 V 2.736806 h 0.3661 z"
         style="stroke-width:0.09970414"
         id="path3144" />
    </g>
    <g
       aria-label="hammondeggs"
       style="font-style:normal;font-variant:normal;font-weight:bold;font-stretch:normal;font-size:2.80348301px;line-height:1.25;font-family:Aharoni;-inkscape-font-specification:'Aharoni, Bold';font-variant-ligatures:normal;font-variant-caps:normal;font-variant-numeric:normal;font-feature-settings:normal;text-align:start;letter-spacing:0px;word-spacing:0px;writing-mode:lr-tb;text-anchor:start;display:inline;fill:#000000;fill-opacity:1;stroke:none;stroke-width:0.07008708"
       id="text909"
       transform="translate(5.3385133,-3.6806322)">
      <path
         d="M 4.9123368,295.457 H 4.4633414 v -0.64338 q 0,-0.16974 -0.038329,-0.22449 -0.056124,-0.0808 -0.1683733,-0.0808 -0.1040355,0 -0.1724799,0.0698 -0.062969,0.0643 -0.062969,0.19849 v 0.68038 h -0.448995 v -2.05607 h 0.4489954 v 0.9459 q 0.078027,-0.0903 0.1437332,-0.1273 0.1081422,-0.0616 0.2669332,-0.0616 0.2025955,0 0.3340087,0.11224 0.1464711,0.12594 0.1464711,0.37782 z"
         style="font-style:normal;font-variant:normal;font-weight:bold;font-stretch:normal;font-size:2.80348301px;font-family:Aharoni;-inkscape-font-specification:'Aharoni, Bold';font-variant-ligatures:normal;font-variant-caps:normal;font-variant-numeric:normal;font-feature-settings:normal;text-align:start;writing-mode:lr-tb;text-anchor:start;stroke-width:0.07008708"
         id="path924-6"
         inkscape:connector-curvature="0" />
      <path
         d="M 6.6521937,295.457 H 6.2031983 v -0.14099 q -0.064338,0.0808 -0.1300444,0.11772 -0.1149866,0.0643 -0.2614576,0.0643 -0.2368177,0 -0.4216176,-0.1629 -0.220391,-0.19438 -0.220391,-0.5147 0,-0.3258 0.2258666,-0.52018 0.1793243,-0.15468 0.4120353,-0.15468 0.13552,0 0.2546132,0.0575 0.068445,0.0328 0.1409955,0.10814 v -0.12457 h 0.4489954 z m -0.4353065,-0.63516 q 0,-0.12047 -0.084871,-0.20397 -0.084871,-0.0849 -0.2053332,-0.0849 -0.134151,0 -0.220391,0.1013 -0.069813,0.0821 -0.069813,0.18754 0,0.1054 0.069813,0.18753 0.084871,0.1013 0.220391,0.1013 0.1218311,0 0.2053332,-0.0835 0.084871,-0.0835 0.084871,-0.20533 z"
         style="font-style:normal;font-variant:normal;font-weight:bold;font-stretch:normal;font-size:2.80348301px;font-family:Aharoni;-inkscape-font-specification:'Aharoni, Bold';font-variant-ligatures:normal;font-variant-caps:normal;font-variant-numeric:normal;font-feature-settings:normal;text-align:start;writing-mode:lr-tb;text-anchor:start;stroke-width:0.07008708"
         id="path926-6"
         inkscape:connector-curvature="0" />
      <path
         d="M 9.1107168,295.457 H 8.6617215 v -0.62832 q 0,-0.16427 -0.034222,-0.2245 -0.050649,-0.089 -0.1519466,-0.089 -0.1122489,0 -0.1724799,0.0972 -0.042436,0.0684 -0.042436,0.21628 V 295.457 H 7.8116419 v -0.62832 q 0,-0.16427 -0.027378,-0.21355 -0.054755,-0.0986 -0.1683732,-0.0986 -0.1054044,0 -0.1642666,0.0849 -0.021902,0.0301 -0.031484,0.0835 -0.00958,0.052 -0.00958,0.14373 V 295.457 H 6.9615623 v -1.27033 h 0.4489954 v 0.15606 q 0.079396,-0.0767 0.1451021,-0.11225 0.1190933,-0.0643 0.2655643,-0.0643 0.1875377,0 0.3121065,0.0972 0.062969,0.0493 0.1204622,0.13963 0.052018,-0.0849 0.1163555,-0.13415 0.1355199,-0.10404 0.3093687,-0.10404 0.1423644,0 0.2532443,0.0684 0.1190933,0.0753 0.1560533,0.20397 0.021902,0.078 0.021902,0.19438 z"
         style="font-style:normal;font-variant:normal;font-weight:bold;font-stretch:normal;font-size:2.80348301px;font-family:Aharoni;-inkscape-font-specification:'Aharoni, Bold';font-variant-ligatures:normal;font-variant-caps:normal;font-variant-numeric:normal;font-feature-settings:normal;text-align:start;writing-mode:lr-tb;text-anchor:start;stroke-width:0.07008708"
         id="path928-8"
         inkscape:connector-curvature="0" />
      <path
         d="m 11.56924,295.457 h -0.448995 v -0.62832 q 0,-0.16427 -0.03422,-0.2245 -0.05065,-0.089 -0.151947,-0.089 -0.112249,0 -0.17248,0.0972 -0.04244,0.0684 -0.04244,0.21628 v 0.62832 h -0.448995 v -0.62832 q 0,-0.16427 -0.02738,-0.21355 -0.05476,-0.0986 -0.168373,-0.0986 -0.1054042,0 -0.1642664,0.0849 -0.021902,0.0301 -0.031484,0.0835 -0.00958,0.052 -0.00958,0.14373 v 0.62836 h -0.448994 v -1.27033 h 0.4489953 v 0.15606 q 0.079396,-0.0767 0.1451021,-0.11225 0.119093,-0.0643 0.265564,-0.0643 0.187538,0 0.312107,0.0972 0.06297,0.0493 0.120462,0.13963 0.05202,-0.0849 0.116356,-0.13415 0.135519,-0.10404 0.309368,-0.10404 0.142365,0 0.253245,0.0684 0.119093,0.0753 0.156053,0.20397 0.0219,0.078 0.0219,0.19438 z"
         style="font-style:normal;font-variant:normal;font-weight:bold;font-stretch:normal;font-size:2.80348301px;font-family:Aharoni;-inkscape-font-specification:'Aharoni, Bold';font-variant-ligatures:normal;font-variant-caps:normal;font-variant-numeric:normal;font-feature-settings:normal;text-align:start;writing-mode:lr-tb;text-anchor:start;stroke-width:0.07008708"
         id="path930-6"
         inkscape:connector-curvature="0" />
      <path
         d="m 13.357008,294.82184 q 0,0.26419 -0.173849,0.4531 -0.210808,0.22997 -0.58999,0.22997 -0.380551,0 -0.59136,-0.22997 -0.173849,-0.18891 -0.173849,-0.46405 0,-0.24777 0.175218,-0.43942 0.212177,-0.23134 0.603679,-0.23134 0.360018,0 0.574933,0.23134 0.175218,0.18891 0.175218,0.45037 z m -0.466791,0 q 0,-0.1232 -0.08761,-0.20807 -0.08624,-0.0862 -0.209439,-0.0862 -0.139627,0 -0.227236,0.10403 -0.07118,0.0835 -0.07118,0.19028 0,0.10814 0.07118,0.19164 0.08761,0.10404 0.227236,0.10404 0.124568,0 0.210808,-0.0849 0.08624,-0.0862 0.08624,-0.21081 z"
         style="font-style:normal;font-variant:normal;font-weight:bold;font-stretch:normal;font-size:2.80348301px;font-family:Aharoni;-inkscape-font-specification:'Aharoni, Bold';font-variant-ligatures:normal;font-variant-caps:normal;font-variant-numeric:normal;font-feature-settings:normal;text-align:start;writing-mode:lr-tb;text-anchor:start;stroke-width:0.07008708"
         id="path932-5"
         inkscape:connector-curvature="0" />
      <path
         d="m 14.954501,295.457 h -0.448996 v -0.64338 q 0,-0.16837 -0.03833,-0.22313 -0.05612,-0.0808 -0.168373,-0.0808 -0.102666,0 -0.17248,0.0698 -0.06297,0.063 -0.06297,0.19712 v 0.68034 h -0.448995 v -1.27033 h 0.448995 v 0.16016 q 0.07803,-0.0903 0.143734,-0.1273 0.106773,-0.0602 0.266933,-0.0602 0.205333,0 0.334009,0.11088 0.146471,0.12594 0.146471,0.37782 z"
         style="font-style:normal;font-variant:normal;font-weight:bold;font-stretch:normal;font-size:2.80348301px;font-family:Aharoni;-inkscape-font-specification:'Aharoni, Bold';font-variant-ligatures:normal;font-variant-caps:normal;font-variant-numeric:normal;font-feature-settings:normal;text-align:start;writing-mode:lr-tb;text-anchor:start;stroke-width:0.07008708"
         id="path934-4"
         inkscape:connector-curvature="0" />
      <path
         d="m 16.694358,295.457 h -0.448995 v -0.14099 q -0.06434,0.0808 -0.130045,0.11772 -0.114986,0.0643 -0.261457,0.0643 -0.236818,0 -0.421618,-0.1629 -0.220391,-0.19438 -0.220391,-0.5147 0,-0.3258 0.225867,-0.52018 0.179324,-0.15468 0.412035,-0.15468 0.13552,0 0.254613,0.0575 0.06845,0.0328 0.140996,0.10814 v -0.91031 h 0.448995 z m -0.435306,-0.63516 q 0,-0.12047 -0.08487,-0.20397 -0.08487,-0.0849 -0.205333,-0.0849 -0.134151,0 -0.220391,0.1013 -0.06981,0.0821 -0.06981,0.18754 0,0.1054 0.06981,0.18753 0.08487,0.1013 0.220391,0.1013 0.121831,0 0.205333,-0.0835 0.08487,-0.0835 0.08487,-0.20533 z"
         style="font-style:normal;font-variant:normal;font-weight:bold;font-stretch:normal;font-size:2.80348301px;font-family:Aharoni;-inkscape-font-specification:'Aharoni, Bold';font-variant-ligatures:normal;font-variant-caps:normal;font-variant-numeric:normal;font-feature-settings:normal;text-align:start;writing-mode:lr-tb;text-anchor:start;stroke-width:0.07008708"
         id="path936"
         inkscape:connector-curvature="0" />
      <path
         d="m 18.352081,294.90397 h -0.944533 q 0,0.2861 0.276516,0.2861 0.140995,0 0.216284,-0.12046 h 0.433937 q -0.05202,0.17248 -0.153315,0.26693 -0.183431,0.17111 -0.491431,0.17111 -0.391502,0 -0.588622,-0.23819 -0.14784,-0.17795 -0.14784,-0.43393 0,-0.3039 0.1848,-0.49417 0.1848,-0.19028 0.521547,-0.19028 0.414773,0 0.592728,0.30116 0.09993,0.16974 0.09993,0.39424 z m -0.41888,-0.25735 q -0.04791,-0.21081 -0.255982,-0.21081 -0.114986,0 -0.186169,0.0671 -0.05612,0.0534 -0.07118,0.14373 z"
         style="font-style:normal;font-variant:normal;font-weight:bold;font-stretch:normal;font-size:2.80348301px;font-family:Aharoni;-inkscape-font-specification:'Aharoni, Bold';font-variant-ligatures:normal;font-variant-caps:normal;font-variant-numeric:normal;font-feature-settings:normal;text-align:start;writing-mode:lr-tb;text-anchor:start;stroke-width:0.07008708"
         id="path938"
         inkscape:connector-curvature="0" />
      <path
         d="m 20.030338,295.36939 q 0,0.16701 -0.02327,0.26967 -0.03696,0.16427 -0.191645,0.29431 -0.195751,0.16427 -0.520177,0.16427 -0.339484,0 -0.540711,-0.17932 -0.134151,-0.1191 -0.171111,-0.24914 -0.0041,-0.0137 -0.01095,-0.0575 h 0.50512 q 0.0219,0.063 0.05886,0.0903 0.06023,0.0452 0.153315,0.0452 0.156053,0 0.239556,-0.11088 0.05202,-0.0698 0.05202,-0.19986 v -0.12046 q -0.08076,0.0739 -0.13552,0.10403 -0.113617,0.063 -0.268302,0.063 -0.194382,0 -0.347697,-0.0999 -0.157422,-0.10267 -0.225867,-0.28062 -0.04654,-0.12046 -0.04654,-0.26146 0,-0.31211 0.198489,-0.50786 0.1848,-0.18206 0.444889,-0.18206 0.138257,0 0.246399,0.0561 0.06434,0.0342 0.134151,0.11224 v -0.13278 h 0.448996 z m -0.427093,-0.55166 q 0,-0.12183 -0.0835,-0.20944 -0.0835,-0.0876 -0.205333,-0.0876 -0.13552,0 -0.22176,0.10404 -0.06844,0.0835 -0.06844,0.19301 0,0.12183 0.0835,0.20944 0.08487,0.0862 0.206702,0.0862 0.120462,0 0.203965,-0.0862 0.08487,-0.0876 0.08487,-0.20944 z"
         style="font-style:normal;font-variant:normal;font-weight:bold;font-stretch:normal;font-size:2.80348301px;font-family:Aharoni;-inkscape-font-specification:'Aharoni, Bold';font-variant-ligatures:normal;font-variant-caps:normal;font-variant-numeric:normal;font-feature-settings:normal;text-align:start;writing-mode:lr-tb;text-anchor:start;stroke-width:0.07008708"
         id="path940"
         inkscape:connector-curvature="0" />
      <path
         d="m 21.760612,295.36939 q 0,0.16701 -0.02327,0.26967 -0.03696,0.16427 -0.191645,0.29431 -0.195751,0.16427 -0.520177,0.16427 -0.339484,0 -0.540711,-0.17932 -0.134151,-0.1191 -0.171111,-0.24914 -0.0041,-0.0137 -0.01095,-0.0575 h 0.50512 q 0.0219,0.063 0.05886,0.0903 0.06023,0.0452 0.153315,0.0452 0.156054,0 0.239556,-0.11088 0.05202,-0.0698 0.05202,-0.19986 v -0.12046 q -0.08076,0.0739 -0.13552,0.10403 -0.113618,0.063 -0.268302,0.063 -0.194383,0 -0.347698,-0.0999 -0.157422,-0.10267 -0.225867,-0.28062 -0.04654,-0.12046 -0.04654,-0.26146 0,-0.31211 0.198489,-0.50786 0.1848,-0.18206 0.444889,-0.18206 0.138257,0 0.2464,0.0561 0.06434,0.0342 0.134151,0.11224 v -0.13278 h 0.448995 z m -0.427093,-0.55166 q 0,-0.12183 -0.0835,-0.20944 -0.0835,-0.0876 -0.205334,-0.0876 -0.13552,0 -0.221759,0.10404 -0.06845,0.0835 -0.06845,0.19301 0,0.12183 0.0835,0.20944 0.08487,0.0862 0.206702,0.0862 0.120463,0 0.203965,-0.0862 0.08487,-0.0876 0.08487,-0.20944 z"
         style="font-style:normal;font-variant:normal;font-weight:bold;font-stretch:normal;font-size:2.80348301px;font-family:Aharoni;-inkscape-font-specification:'Aharoni, Bold';font-variant-ligatures:normal;font-variant-caps:normal;font-variant-numeric:normal;font-feature-settings:normal;text-align:start;writing-mode:lr-tb;text-anchor:start;stroke-width:0.07008708"
         id="path942"
         inkscape:connector-curvature="0" />
      <path
         d="m 23.102124,295.02854 q 0,0.20259 -0.145102,0.33127 -0.162898,0.1451 -0.458578,0.1451 -0.261458,0 -0.507857,-0.14647 l 0.162897,-0.31758 q 0.193014,0.12731 0.358649,0.12731 0.140995,0 0.140995,-0.0972 0,-0.0506 -0.04928,-0.078 -0.03148,-0.0178 -0.142365,-0.0424 -0.124569,-0.0274 -0.162898,-0.0424 -0.136888,-0.0534 -0.184799,-0.16701 -0.02601,-0.0616 -0.02601,-0.14784 0,-0.167 0.113617,-0.29157 0.146471,-0.16016 0.451733,-0.16016 0.212178,0 0.412036,0.0821 l -0.151947,0.29021 q -0.125937,-0.0643 -0.240924,-0.0643 -0.13552,0 -0.13552,0.0931 0,0.0424 0.05476,0.0685 0.02464,0.0123 0.145102,0.037 0.176586,0.037 0.260088,0.11772 0.105405,0.1013 0.105405,0.26283 z"
         style="font-style:normal;font-variant:normal;font-weight:bold;font-stretch:normal;font-size:2.80348301px;font-family:Aharoni;-inkscape-font-specification:'Aharoni, Bold';font-variant-ligatures:normal;font-variant-caps:normal;font-variant-numeric:normal;font-feature-settings:normal;text-align:start;writing-mode:lr-tb;text-anchor:start;stroke-width:0.07008708"
         id="path944"
         inkscape:connector-curvature="0" />
    </g>
    <g
       aria-label="v1.0"
       style="font-style:normal;font-weight:normal;font-size:1.68418849px;line-height:1.25;font-family:sans-serif;letter-spacing:0px;word-spacing:0px;display:inline;fill:#000000;fill-opacity:1;stroke:none;stroke-width:0.04210471"
       id="text913"
       transform="translate(-2.4005496,-3.0806362)">
      <path
         d="m 19.826918,291.44535 -0.371706,0.91857 h -0.155425 l -0.369239,-0.91857 h 0.167761 l 0.284536,0.73107 0.282069,-0.73107 z"
         style="stroke-width:0.04210471"
         id="path915"
         inkscape:connector-curvature="0" />
      <path
         d="m 20.768518,292.36392 h -0.662821 v -0.125 h 0.254931 v -0.82071 h -0.254931 v -0.11184 q 0.05181,0 0.111019,-0.008 0.05921,-0.009 0.08964,-0.0255 0.03783,-0.0206 0.05921,-0.0518 0.0222,-0.0321 0.02549,-0.0855 h 0.127466 v 1.1036 h 0.249997 z"
         style="stroke-width:0.04210471"
         id="path917"
         inkscape:connector-curvature="0" />
      <path
         d="m 21.354036,292.36392 h -0.196543 v -0.23437 h 0.196543 z"
         style="stroke-width:0.04210471"
         id="path919"
         inkscape:connector-curvature="0" />
      <path
         d="m 22.520962,291.75127 q 0,0.32976 -0.103617,0.48436 -0.102795,0.15379 -0.319897,0.15379 -0.220392,0 -0.322365,-0.15625 -0.10115,-0.15625 -0.10115,-0.48026 0,-0.32648 0.102795,-0.4819 0.102795,-0.15625 0.32072,-0.15625 0.220392,0 0.321542,0.15872 0.101972,0.15789 0.101972,0.47779 z m -0.21628,0.37335 q 0.02878,-0.0666 0.03865,-0.15625 0.01069,-0.0905 0.01069,-0.2171 0,-0.125 -0.01069,-0.21711 -0.0099,-0.0921 -0.03947,-0.15624 -0.02878,-0.0633 -0.07895,-0.0954 -0.04934,-0.0321 -0.127465,-0.0321 -0.0773,0 -0.128288,0.0321 -0.05016,0.0321 -0.07977,0.097 -0.02796,0.0608 -0.03865,0.15872 -0.0099,0.0979 -0.0099,0.21463 0,0.12829 0.009,0.21464 0.009,0.0863 0.03865,0.1546 0.02714,0.0641 0.07648,0.0979 0.05016,0.0337 0.1324,0.0337 0.0773,0 0.128287,-0.0321 0.05099,-0.0321 0.07895,-0.097 z"
         style="stroke-width:0.04210471"
         id="path921"
         inkscape:connector-curvature="0" />
    </g>
  </g>
</svg>
