<?xml version="1.0" encoding="UTF-8" standalone="no"?>
<!-- Created with Inkscape (http://www.inkscape.org/) -->

<svg
   xmlns:dc="http://purl.org/dc/elements/1.1/"
   xmlns:cc="http://creativecommons.org/ns#"
   xmlns:rdf="http://www.w3.org/1999/02/22-rdf-syntax-ns#"
   xmlns:svg="http://www.w3.org/2000/svg"
   xmlns="http://www.w3.org/2000/svg"
   xmlns:sodipodi="http://sodipodi.sourceforge.net/DTD/sodipodi-0.dtd"
   xmlns:inkscape="http://www.inkscape.org/namespaces/inkscape"
   width="45"
   height="380"
   viewBox="0 0 11.90625 100.54167"
   version="1.1"
   id="svg8"
   inkscape:version="0.92.3 (2405546, 2018-03-11)"
   sodipodi:docname="MyModule.svg">
  <defs
     id="defs2">
    <inkscape:path-effect
       effect="powerstroke"
       id="path-effect41"
       is_visible="true"
       offset_points="0,0.13229166"
       sort_points="true"
       interpolator_type="CubicBezierJohan"
       interpolator_beta="0.2"
       start_linecap_type="zerowidth"
       linejoin_type="extrp_arc"
       miter_limit="4"
       end_linecap_type="zerowidth" />
  </defs>
  <sodipodi:namedview
     id="base"
     pagecolor="#ffffff"
     bordercolor="#666666"
     borderopacity="1.0"
     inkscape:pageopacity="0.0"
     inkscape:pageshadow="2"
     inkscape:zoom="2.8284271"
     inkscape:cx="-3.6164018"
     inkscape:cy="79.56316"
     inkscape:document-units="mm"
     inkscape:current-layer="layer1"
     showgrid="true"
     units="px"
     inkscape:snap-bbox="true"
     inkscape:snap-page="true"
     inkscape:bbox-nodes="false"
     inkscape:snap-bbox-edge-midpoints="false"
     inkscape:window-width="1680"
     inkscape:window-height="988"
     inkscape:window-x="-8"
     inkscape:window-y="-8"
     inkscape:window-maximized="1"
     inkscape:snap-global="false"
     inkscape:snap-grids="false"
     showguides="false">
    <inkscape:grid
       type="xygrid"
       id="grid98"
       spacingx="7.9375003"
       spacingy="7.9375003" />
  </sodipodi:namedview>
  <metadata
     id="metadata5">
    <rdf:RDF>
      <cc:Work
         rdf:about="">
        <dc:format>image/svg+xml</dc:format>
        <dc:type
           rdf:resource="http://purl.org/dc/dcmitype/StillImage" />
        <dc:title />
      </cc:Work>
    </rdf:RDF>
  </metadata>
  <g
     inkscape:label="Layer 1"
     inkscape:groupmode="layer"
     id="layer1"
     transform="translate(0,-196.45832)"
     style="display:inline">
    <path
       style="opacity:1;vector-effect:none;fill:#cccccc;fill-opacity:1;fill-rule:evenodd;stroke:none;stroke-width:0.34446105;stroke-linecap:butt;stroke-linejoin:round;stroke-miterlimit:4;stroke-dasharray:none;stroke-dashoffset:0;stroke-opacity:1;paint-order:normal"
       d="M -0.03935888,196.36476 H 11.919407 V 296.90644 H -0.03935888 Z"
       id="rect817"
       inkscape:connector-curvature="0" />
    <path
       style="fill:#ececec;stroke:none;stroke-width:0.18699139"
       d="M -0.00639596,203.54524 H 11.887473 v 1.00029 H -0.00639596 Z"
       id="rect110"
       inkscape:connector-curvature="0" />
    <path
       style="fill:#ececec;stroke:none;stroke-width:0.18705633"
       d="M -0.01275577,205.04097 H 11.889378 v 1.00029 H -0.01275577 Z"
       id="rect110-9"
       inkscape:connector-curvature="0" />
    <path
       style="fill:#ececec;stroke:none;stroke-width:0.18705638"
       d="M -0.01275603,206.57788 H 11.889378 v 1.00029 H -0.01275603 Z"
       id="rect110-1"
       inkscape:connector-curvature="0" />
    <path
       style="fill:#ececec;stroke:none;stroke-width:0.18697283"
       d="M -0.00402884,201.95918 H 11.887479 v 1.00029 H -0.00402884 Z"
       id="rect110-3"
       inkscape:connector-curvature="0" />
    <path
       style="fill:#ececec;stroke:none;stroke-width:0.18698624"
       d="M -0.0059424,208.1815 H 11.887275 v 1.00029 H -0.0059424 Z"
       id="rect110-2"
       inkscape:connector-curvature="0" />
    <path
       style="fill:#ececec;stroke:none;stroke-width:0.18705633"
       d="M 0.01224353,200.23022 H 11.914377 v 1.00029 H 0.01224353 Z"
       id="rect110-3-9"
       inkscape:connector-curvature="0" />
    <g
       style="font-style:normal;font-weight:normal;font-size:10.58333302px;line-height:1.25;font-family:sans-serif;letter-spacing:0px;word-spacing:0px;fill:#000000;fill-opacity:1;stroke:none;stroke-width:0.26458332"
       id="text4029" />
    <g
       style="font-style:normal;font-weight:normal;font-size:10.58333302px;line-height:1.25;font-family:sans-serif;letter-spacing:0px;word-spacing:0px;fill:#000000;fill-opacity:1;stroke:none;stroke-width:0.26458332"
       id="text3852" />
    <g
       style="font-style:normal;font-weight:normal;font-size:10.58333302px;line-height:1.25;font-family:sans-serif;letter-spacing:0px;word-spacing:0px;fill:#000000;fill-opacity:1;stroke:none;stroke-width:0.26458332"
       id="text4016" />
    <g
       style="font-style:normal;font-weight:normal;font-size:10.58333302px;line-height:1.25;font-family:sans-serif;letter-spacing:0px;word-spacing:0px;fill:#000000;fill-opacity:1;stroke:none;stroke-width:0.26458332"
       id="text4887" />
    <g
       id="g69"
       transform="matrix(2.6741677,0,0,2.0231332,0.54082114,-211.27227)">
      <path
         inkscape:connector-curvature="0"
         id="path63"
         d="m 0.26893996,207.29097 c 0.78343384,-3.18051 0.78343384,-3.18051 0.78343384,-3.18051 l 0.3975634,1.42655"
         style="fill:none;stroke:#000000;stroke-width:0.26458332px;stroke-linecap:butt;stroke-linejoin:miter;stroke-opacity:1" />
      <path
         inkscape:connector-curvature="0"
         id="path65"
         d="m 1.414858,205.51363 h 1.2979276 l 0.9855697,1.70705"
         style="fill:none;stroke:#000000;stroke-width:0.26458332px;stroke-linecap:butt;stroke-linejoin:miter;stroke-opacity:1" />
    </g>
    <g
       aria-label="a"
       style="font-style:normal;font-weight:normal;font-size:10.58333302px;line-height:1.25;font-family:sans-serif;letter-spacing:0px;word-spacing:0px;fill:#000000;fill-opacity:1;stroke:none;stroke-width:0.26458332"
       id="text88">
      <path
         d="M 6.9391129,221.99062 H 6.5525732 v -0.24598 q -0.051676,0.0351 -0.1405599,0.0992 -0.086816,0.062 -0.1694986,0.0992 -0.097152,0.0476 -0.2232422,0.0786 -0.1260905,0.0331 -0.2955892,0.0331 -0.3121256,0 -0.5291666,-0.2067 -0.217041,-0.20671 -0.217041,-0.5271 0,-0.26252 0.1116211,-0.42375 0.1136881,-0.16329 0.3224609,-0.25631 0.2108398,-0.093 0.506429,-0.12609 0.2955892,-0.0331 0.6345865,-0.0496 v -0.0599 q 0,-0.13229 -0.047542,-0.21911 -0.045475,-0.0868 -0.1322916,-0.13642 -0.082682,-0.0475 -0.1984375,-0.0641 -0.1157552,-0.0165 -0.2418457,-0.0165 -0.1529622,0 -0.3410645,0.0413 -0.1881022,0.0393 -0.3886067,0.11575 h -0.020671 v -0.39481 q 0.1136882,-0.031 0.3286621,-0.0682 0.214974,-0.0372 0.4237467,-0.0372 0.2439128,0 0.4237468,0.0413 0.181901,0.0393 0.3141927,0.13643 0.1302246,0.0951 0.1984374,0.24598 0.068213,0.15089 0.068213,0.37414 z m -0.3865397,-0.56844 v -0.64286 q -0.1777669,0.0103 -0.4196126,0.031 -0.2397786,0.0207 -0.3803385,0.0599 -0.1674316,0.0475 -0.2707845,0.14883 -0.1033528,0.0992 -0.1033528,0.27492 0,0.19844 0.1198893,0.29972 0.1198893,0.0992 0.3658691,0.0992 0.2046387,0 0.3741373,-0.0786 0.1694987,-0.0806 0.3141927,-0.19223 z"
         style="font-style:normal;font-variant:normal;font-weight:normal;font-stretch:normal;font-size:4.23333311px;font-family:sans-serif;-inkscape-font-specification:'sans-serif, Normal';font-variant-ligatures:normal;font-variant-caps:normal;font-variant-numeric:normal;font-feature-settings:normal;text-align:start;writing-mode:lr-tb;text-anchor:start;stroke-width:0.26458332"
         id="path184" />
    </g>
    <g
       aria-label="d"
       style="font-style:normal;font-weight:normal;font-size:10.58333302px;line-height:1.25;font-family:sans-serif;letter-spacing:0px;word-spacing:0px;fill:#000000;fill-opacity:1;stroke:none;stroke-width:0.26458332"
       id="text106"
       transform="translate(0.18708867,-3.1805074)">
      <path
         d="M 6.9515152,236.27811 H 6.5629085 v -0.24185 q -0.1674317,0.1447 -0.3493327,0.22531 -0.181901,0.0806 -0.3948079,0.0806 -0.4134115,0 -0.6573242,-0.31833 -0.2418457,-0.31833 -0.2418457,-0.88263 0,-0.29353 0.082682,-0.52297 0.084749,-0.22944 0.2273763,-0.39067 0.1405599,-0.1571 0.326595,-0.23978 0.1881022,-0.0827 0.3886068,-0.0827 0.181901,0 0.3224609,0.0393 0.1405599,0.0372 0.2955892,0.11782 v -1.00045 h 0.3886067 z m -0.3886067,-0.56844 v -1.32499 q -0.1570964,-0.0703 -0.2811198,-0.0971 -0.1240235,-0.0269 -0.2707845,-0.0269 -0.326595,0 -0.5084961,0.22738 -0.181901,0.22737 -0.181901,0.64492 0,0.41134 0.1405599,0.62632 0.1405599,0.2129 0.4506184,0.2129 0.1653646,0 0.3348633,-0.0723 0.1694987,-0.0744 0.3162598,-0.19017 z"
         style="font-style:normal;font-variant:normal;font-weight:normal;font-stretch:normal;font-size:4.23333311px;font-family:sans-serif;-inkscape-font-specification:'sans-serif, Normal';font-variant-ligatures:normal;font-variant-caps:normal;font-variant-numeric:normal;font-feature-settings:normal;text-align:start;writing-mode:lr-tb;text-anchor:start;stroke-width:0.26458332"
         id="path187"
         inkscape:connector-curvature="0" />
    </g>
    <g
       aria-label="s"
       style="font-style:normal;font-weight:normal;font-size:10.58333302px;line-height:1.25;font-family:sans-serif;letter-spacing:0px;word-spacing:0px;display:inline;fill:#000000;fill-opacity:1;stroke:none;stroke-width:0.26458332"
       id="text106-3"
       transform="translate(0.18708867,-5.4723436)">
      <path
         d="m 6.7892495,248.13992 q 0,0.31626 -0.2625162,0.51883 -0.2604492,0.20257 -0.7131348,0.20257 -0.256315,0 -0.471289,-0.0599 -0.2129069,-0.062 -0.3576009,-0.13436 v -0.43615 h 0.020671 q 0.1839681,0.13849 0.4092773,0.22117 0.2253092,0.0806 0.432015,0.0806 0.2563151,0 0.4010091,-0.0827 0.144694,-0.0827 0.144694,-0.26045 0,-0.13643 -0.078548,-0.20671 -0.078548,-0.0703 -0.3017904,-0.11989 -0.082682,-0.0186 -0.217041,-0.0434 -0.1322916,-0.0248 -0.2418457,-0.0537 -0.3038574,-0.0806 -0.4320149,-0.23564 -0.1260905,-0.1571 -0.1260905,-0.38448 0,-0.14262 0.057878,-0.26871 0.059945,-0.12609 0.179834,-0.22531 0.1157552,-0.0971 0.2935221,-0.15296 0.179834,-0.0579 0.4010091,-0.0579 0.2067057,0 0.4175455,0.0517 0.2129069,0.0496 0.3534668,0.12196 v 0.41548 H 6.677629 q -0.1488281,-0.10955 -0.361735,-0.18397 -0.2129068,-0.0765 -0.4175455,-0.0765 -0.2129069,0 -0.359668,0.0827 -0.146761,0.0806 -0.146761,0.24185 0,0.14263 0.088883,0.21497 0.086816,0.0724 0.2811198,0.11782 0.107487,0.0248 0.2397786,0.0496 0.1343588,0.0248 0.2232422,0.0455 0.2707845,0.062 0.4175456,0.21291 0.146761,0.15296 0.146761,0.40514 z"
         style="font-style:normal;font-variant:normal;font-weight:normal;font-stretch:normal;font-size:4.23333311px;font-family:sans-serif;-inkscape-font-specification:'sans-serif, Normal';font-variant-ligatures:normal;font-variant-caps:normal;font-variant-numeric:normal;font-feature-settings:normal;text-align:start;writing-mode:lr-tb;text-anchor:start;stroke-width:0.26458332"
         id="path190"
         inkscape:connector-curvature="0" />
    </g>
    <g
       aria-label="r"
       style="font-style:normal;font-weight:normal;font-size:10.58333302px;line-height:1.25;font-family:sans-serif;letter-spacing:0px;word-spacing:0px;display:inline;fill:#000000;fill-opacity:1;stroke:none;stroke-width:0.26458332"
       id="text106-3-5"
       transform="translate(0.18708867,-7.9044963)">
      <path
         d="m 6.5804772,259.95109 h -0.02067 q -0.086816,-0.0207 -0.1694987,-0.0289 -0.080615,-0.0103 -0.1922363,-0.0103 -0.179834,0 -0.3472656,0.0806 -0.1674317,0.0786 -0.322461,0.20464 v 1.63917 H 5.1397384 v -2.3089 h 0.3886067 v 0.34106 q 0.2315104,-0.18603 0.4072103,-0.26251 0.1777669,-0.0786 0.361735,-0.0786 0.1012858,0 0.1467611,0.006 0.045475,0.004 0.1364257,0.0186 z"
         style="font-style:normal;font-variant:normal;font-weight:normal;font-stretch:normal;font-size:4.23333311px;font-family:sans-serif;-inkscape-font-specification:'sans-serif, Normal';font-variant-ligatures:normal;font-variant-caps:normal;font-variant-numeric:normal;font-feature-settings:normal;text-align:start;writing-mode:lr-tb;text-anchor:start;stroke-width:0.26458332"
         id="path181"
         inkscape:connector-curvature="0" />
    </g>
    <g
       aria-label="gate"
       style="font-style:normal;font-weight:normal;font-size:10.58333302px;line-height:1.25;font-family:sans-serif;letter-spacing:0px;word-spacing:0px;display:inline;fill:#000000;fill-opacity:1;stroke:none;stroke-width:0.26458332"
       id="text106-3-5-3"
       transform="translate(-0.06614583,-2.5796875)">
      <path
         d="m 3.7320721,288.56533 q 0,0.58705 -0.2666504,0.86197 -0.2666503,0.27492 -0.8206217,0.27492 -0.183968,0 -0.3596679,-0.0269 -0.1736328,-0.0248 -0.3431315,-0.0723 v -0.39688 h 0.020671 q 0.095085,0.0372 0.3017903,0.091 0.2067057,0.0558 0.4134115,0.0558 0.1984374,0 0.3286621,-0.0475 0.1302246,-0.0475 0.2025716,-0.13229 0.072347,-0.0806 0.1033528,-0.1943 0.031006,-0.11369 0.031006,-0.25425 v -0.21084 q -0.1756999,0.14056 -0.3369303,0.21084 -0.1591635,0.0682 -0.4072103,0.0682 -0.4134114,0 -0.6573242,-0.29766 -0.2418457,-0.29972 -0.2418457,-0.84336 0,-0.29765 0.082682,-0.51263 0.084749,-0.21704 0.2294433,-0.37413 0.1343588,-0.14676 0.3265951,-0.22738 0.1922363,-0.0827 0.3824056,-0.0827 0.2005045,0 0.3348632,0.0413 0.1364258,0.0393 0.287321,0.12196 l 0.024805,-0.0992 h 0.363802 z m -0.3886067,-0.37207 v -1.25883 q -0.1550293,-0.0703 -0.289388,-0.0992 -0.1322917,-0.031 -0.2645834,-0.031 -0.3203938,0 -0.5043619,0.21498 -0.1839681,0.21497 -0.1839681,0.62425 0,0.3886 0.1364258,0.58911 0.1364258,0.2005 0.4526855,0.2005 0.1694987,0 0.3389974,-0.0641 0.1715657,-0.0661 0.3141927,-0.1757 z"
         style="font-style:normal;font-variant:normal;font-weight:normal;font-stretch:normal;font-size:4.23333311px;font-family:sans-serif;-inkscape-font-specification:'sans-serif, Normal';font-variant-ligatures:normal;font-variant-caps:normal;font-variant-numeric:normal;font-feature-settings:normal;text-align:start;writing-mode:lr-tb;text-anchor:start;stroke-width:0.26458332"
         id="path172"
         inkscape:connector-curvature="0" />
      <path
         d="M 6.2910888,288.82785 H 5.9045492 v -0.24598 q -0.051677,0.0351 -0.1405599,0.0992 -0.086816,0.062 -0.1694987,0.0992 -0.097152,0.0475 -0.2232422,0.0786 -0.1260905,0.0331 -0.2955892,0.0331 -0.3121256,0 -0.5291666,-0.20671 -0.217041,-0.2067 -0.217041,-0.5271 0,-0.26251 0.1116211,-0.42374 0.1136881,-0.1633 0.3224609,-0.25632 0.2108398,-0.093 0.506429,-0.12609 0.2955892,-0.0331 0.6345866,-0.0496 v -0.0599 q 0,-0.13229 -0.047542,-0.21911 -0.045475,-0.0868 -0.1322916,-0.13643 -0.082682,-0.0475 -0.1984375,-0.0641 -0.1157552,-0.0165 -0.2418457,-0.0165 -0.1529622,0 -0.3410644,0.0413 -0.1881022,0.0393 -0.3886068,0.11575 h -0.020671 v -0.3948 q 0.1136882,-0.031 0.3286621,-0.0682 0.214974,-0.0372 0.4237468,-0.0372 0.2439127,0 0.4237467,0.0413 0.181901,0.0393 0.3141927,0.13642 0.1302246,0.0951 0.1984375,0.24598 0.068213,0.1509 0.068213,0.37414 z m -0.3865396,-0.56844 v -0.64286 q -0.177767,0.0103 -0.4196127,0.031 -0.2397786,0.0207 -0.3803385,0.06 -0.1674316,0.0475 -0.2707845,0.14882 -0.1033528,0.0992 -0.1033528,0.27492 0,0.19844 0.1198893,0.29973 0.1198893,0.0992 0.3658691,0.0992 0.2046387,0 0.3741374,-0.0785 0.1694987,-0.0806 0.3141927,-0.19224 z"
         style="font-style:normal;font-variant:normal;font-weight:normal;font-stretch:normal;font-size:4.23333311px;font-family:sans-serif;-inkscape-font-specification:'sans-serif, Normal';font-variant-ligatures:normal;font-variant-caps:normal;font-variant-numeric:normal;font-feature-settings:normal;text-align:start;writing-mode:lr-tb;text-anchor:start;stroke-width:0.26458332"
         id="path174"
         inkscape:connector-curvature="0" />
      <path
         d="m 8.2423908,288.80718 q -0.109554,0.0289 -0.2397786,0.0475 -0.1281576,0.0186 -0.2294434,0.0186 -0.3534668,0 -0.5374349,-0.19017 -0.183968,-0.19017 -0.183968,-0.60979 v -1.22783 H 6.7892496 v -0.32659 h 0.2625163 v -0.66353 h 0.3886067 v 0.66353 h 0.8020182 v 0.32659 H 7.4403726 v 1.05213 q 0,0.18191 0.00827,0.28526 0.00827,0.10128 0.057878,0.19017 0.045475,0.0827 0.1240235,0.12195 0.080615,0.0372 0.2439127,0.0372 0.095085,0 0.1984375,-0.0269 0.1033529,-0.0289 0.1488281,-0.0475 h 0.020671 z"
         style="font-style:normal;font-variant:normal;font-weight:normal;font-stretch:normal;font-size:4.23333311px;font-family:sans-serif;-inkscape-font-specification:'sans-serif, Normal';font-variant-ligatures:normal;font-variant-caps:normal;font-variant-numeric:normal;font-feature-settings:normal;text-align:start;writing-mode:lr-tb;text-anchor:start;stroke-width:0.26458332"
         id="path176"
         inkscape:connector-curvature="0" />
      <path
         d="M 10.646378,287.71371 H 8.9451903 q 0,0.2129 0.064079,0.37207 0.064079,0.15709 0.1756999,0.25838 0.107487,0.0992 0.254248,0.14883 0.1488281,0.0496 0.3265951,0.0496 0.2356437,0 0.4733557,-0.093 0.239779,-0.0951 0.341064,-0.18604 h 0.02067 v 0.42375 q -0.19637,0.0827 -0.401009,0.13849 -0.2046384,0.0558 -0.4299476,0.0558 -0.5746419,0 -0.8971028,-0.31005 -0.322461,-0.31213 -0.322461,-0.88471 0,-0.56637 0.3079916,-0.89917 0.3100585,-0.33279 0.8144205,-0.33279 0.4671543,0 0.7193353,0.27285 0.254248,0.27285 0.254248,0.77515 z m -0.378271,-0.29766 q -0.0021,-0.30592 -0.155029,-0.47336 -0.1508956,-0.16743 -0.4609542,-0.16743 -0.3121256,0 -0.4981608,0.18397 -0.1839681,0.18397 -0.2087727,0.45682 z"
         style="font-style:normal;font-variant:normal;font-weight:normal;font-stretch:normal;font-size:4.23333311px;font-family:sans-serif;-inkscape-font-specification:'sans-serif, Normal';font-variant-ligatures:normal;font-variant-caps:normal;font-variant-numeric:normal;font-feature-settings:normal;text-align:start;writing-mode:lr-tb;text-anchor:start;stroke-width:0.26458332"
         id="path178"
         inkscape:connector-curvature="0" />
    </g>
    <rect
       style="fill:#000000;stroke:#000000;stroke-width:0.26458332"
       id="rect47"
       width="9.3927078"
       height="9.7895832"
       x="1.3890625"
       y="263.59634"
       rx="2.5999999" />
    <g
       aria-label="CV"
       style="font-style:normal;font-weight:normal;font-size:10.58333302px;line-height:1.25;font-family:sans-serif;letter-spacing:0px;word-spacing:0px;fill:#000000;fill-opacity:1;stroke:none;stroke-width:0.26458332"
       id="text51">
      <path
         d="m 5.7839457,262.44595 q -0.1136882,0.0496 -0.2067058,0.093 -0.09095,0.0434 -0.2397786,0.091 -0.1260905,0.0393 -0.2749186,0.0661 -0.1467611,0.0289 -0.324528,0.0289 -0.3348632,0 -0.6097819,-0.093 -0.2728515,-0.0951 -0.4754231,-0.29559 -0.1984375,-0.19637 -0.3100586,-0.49816 -0.1116211,-0.30385 -0.1116211,-0.70486 0,-0.38034 0.107487,-0.68007 0.107487,-0.29972 0.3100586,-0.50642 0.1963704,-0.20051 0.4733561,-0.30593 0.2790527,-0.10542 0.6180501,-0.10542 0.2480468,0 0.4940266,0.06 0.2480469,0.0599 0.5498373,0.21084 v 0.48575 h -0.031006 q -0.254248,-0.2129 -0.504362,-0.31005 -0.2501139,-0.0972 -0.5353678,-0.0972 -0.2335774,0 -0.4216796,0.0765 -0.1860352,0.0744 -0.3327962,0.23358 -0.142627,0.15503 -0.2232422,0.39274 -0.078548,0.23565 -0.078548,0.54571 0,0.32452 0.086816,0.5581 0.088884,0.23358 0.2273763,0.38034 0.144694,0.15296 0.3369303,0.22738 0.1943034,0.0723 0.4092773,0.0723 0.2955892,0 0.5539714,-0.10128 0.2583821,-0.10129 0.4836914,-0.30386 h 0.028939 z"
         style="font-style:normal;font-variant:normal;font-weight:normal;font-stretch:normal;font-size:4.23333311px;font-family:sans-serif;-inkscape-font-specification:'sans-serif, Normal';font-variant-ligatures:normal;font-variant-caps:normal;font-variant-numeric:normal;font-feature-settings:normal;text-align:start;writing-mode:lr-tb;text-anchor:start;stroke-width:0.26458332"
         id="path53" />
      <path
         d="m 8.7935808,259.59134 -1.120345,3.07785 H 7.1275327 l -1.120345,-3.07785 h 0.4382162 l 0.9653157,2.70785 0.9653157,-2.70785 z"
         style="font-style:normal;font-variant:normal;font-weight:normal;font-stretch:normal;font-size:4.23333311px;font-family:sans-serif;-inkscape-font-specification:'sans-serif, Normal';font-variant-ligatures:normal;font-variant-caps:normal;font-variant-numeric:normal;font-feature-settings:normal;text-align:start;writing-mode:lr-tb;text-anchor:start;stroke-width:0.26458332"
         id="path55" />
    </g>
  </g>
</svg>
